G75*
%MOIN*%
%OFA0B0*%
%FSLAX25Y25*%
%IPPOS*%
%LPD*%
%AMOC8*
5,1,8,0,0,1.08239X$1,22.5*
%
%ADD10C,0.00000*%
%ADD11C,0.00600*%
%ADD12C,0.00800*%
%ADD13C,0.00500*%
%ADD14C,0.01000*%
%ADD15R,0.02000X0.10000*%
%ADD16R,0.10000X0.02000*%
%ADD17C,0.00400*%
%ADD18R,0.03400X0.02400*%
%ADD19R,0.02400X0.03400*%
%ADD20C,0.01600*%
D10*
X0005060Y0001800D02*
X0005060Y0198650D01*
X0201910Y0198650D01*
X0201910Y0001800D01*
X0005060Y0001800D01*
D11*
X0055060Y0033300D02*
X0055060Y0050300D01*
X0055062Y0050360D01*
X0055067Y0050421D01*
X0055076Y0050480D01*
X0055089Y0050539D01*
X0055105Y0050598D01*
X0055125Y0050655D01*
X0055148Y0050710D01*
X0055175Y0050765D01*
X0055204Y0050817D01*
X0055237Y0050868D01*
X0055273Y0050917D01*
X0055311Y0050963D01*
X0055353Y0051007D01*
X0055397Y0051049D01*
X0055443Y0051087D01*
X0055492Y0051123D01*
X0055543Y0051156D01*
X0055595Y0051185D01*
X0055650Y0051212D01*
X0055705Y0051235D01*
X0055762Y0051255D01*
X0055821Y0051271D01*
X0055880Y0051284D01*
X0055939Y0051293D01*
X0056000Y0051298D01*
X0056060Y0051300D01*
X0064060Y0051300D01*
X0064120Y0051298D01*
X0064181Y0051293D01*
X0064240Y0051284D01*
X0064299Y0051271D01*
X0064358Y0051255D01*
X0064415Y0051235D01*
X0064470Y0051212D01*
X0064525Y0051185D01*
X0064577Y0051156D01*
X0064628Y0051123D01*
X0064677Y0051087D01*
X0064723Y0051049D01*
X0064767Y0051007D01*
X0064809Y0050963D01*
X0064847Y0050917D01*
X0064883Y0050868D01*
X0064916Y0050817D01*
X0064945Y0050765D01*
X0064972Y0050710D01*
X0064995Y0050655D01*
X0065015Y0050598D01*
X0065031Y0050539D01*
X0065044Y0050480D01*
X0065053Y0050421D01*
X0065058Y0050360D01*
X0065060Y0050300D01*
X0065060Y0033300D01*
X0065058Y0033240D01*
X0065053Y0033179D01*
X0065044Y0033120D01*
X0065031Y0033061D01*
X0065015Y0033002D01*
X0064995Y0032945D01*
X0064972Y0032890D01*
X0064945Y0032835D01*
X0064916Y0032783D01*
X0064883Y0032732D01*
X0064847Y0032683D01*
X0064809Y0032637D01*
X0064767Y0032593D01*
X0064723Y0032551D01*
X0064677Y0032513D01*
X0064628Y0032477D01*
X0064577Y0032444D01*
X0064525Y0032415D01*
X0064470Y0032388D01*
X0064415Y0032365D01*
X0064358Y0032345D01*
X0064299Y0032329D01*
X0064240Y0032316D01*
X0064181Y0032307D01*
X0064120Y0032302D01*
X0064060Y0032300D01*
X0056060Y0032300D01*
X0056000Y0032302D01*
X0055939Y0032307D01*
X0055880Y0032316D01*
X0055821Y0032329D01*
X0055762Y0032345D01*
X0055705Y0032365D01*
X0055650Y0032388D01*
X0055595Y0032415D01*
X0055543Y0032444D01*
X0055492Y0032477D01*
X0055443Y0032513D01*
X0055397Y0032551D01*
X0055353Y0032593D01*
X0055311Y0032637D01*
X0055273Y0032683D01*
X0055237Y0032732D01*
X0055204Y0032783D01*
X0055175Y0032835D01*
X0055148Y0032890D01*
X0055125Y0032945D01*
X0055105Y0033002D01*
X0055089Y0033061D01*
X0055076Y0033120D01*
X0055067Y0033179D01*
X0055062Y0033240D01*
X0055060Y0033300D01*
X0060060Y0040300D02*
X0060060Y0040800D01*
X0060060Y0042800D02*
X0060060Y0043300D01*
X0048560Y0054300D02*
X0041560Y0054300D01*
X0041500Y0054302D01*
X0041439Y0054307D01*
X0041380Y0054316D01*
X0041321Y0054329D01*
X0041262Y0054345D01*
X0041205Y0054365D01*
X0041150Y0054388D01*
X0041095Y0054415D01*
X0041043Y0054444D01*
X0040992Y0054477D01*
X0040943Y0054513D01*
X0040897Y0054551D01*
X0040853Y0054593D01*
X0040811Y0054637D01*
X0040773Y0054683D01*
X0040737Y0054732D01*
X0040704Y0054783D01*
X0040675Y0054835D01*
X0040648Y0054890D01*
X0040625Y0054945D01*
X0040605Y0055002D01*
X0040589Y0055061D01*
X0040576Y0055120D01*
X0040567Y0055179D01*
X0040562Y0055240D01*
X0040560Y0055300D01*
X0040560Y0056800D01*
X0041060Y0057300D01*
X0041060Y0076300D01*
X0040560Y0076800D01*
X0040560Y0078300D01*
X0040562Y0078360D01*
X0040567Y0078421D01*
X0040576Y0078480D01*
X0040589Y0078539D01*
X0040605Y0078598D01*
X0040625Y0078655D01*
X0040648Y0078710D01*
X0040675Y0078765D01*
X0040704Y0078817D01*
X0040737Y0078868D01*
X0040773Y0078917D01*
X0040811Y0078963D01*
X0040853Y0079007D01*
X0040897Y0079049D01*
X0040943Y0079087D01*
X0040992Y0079123D01*
X0041043Y0079156D01*
X0041095Y0079185D01*
X0041150Y0079212D01*
X0041205Y0079235D01*
X0041262Y0079255D01*
X0041321Y0079271D01*
X0041380Y0079284D01*
X0041439Y0079293D01*
X0041500Y0079298D01*
X0041560Y0079300D01*
X0048560Y0079300D01*
X0048620Y0079298D01*
X0048681Y0079293D01*
X0048740Y0079284D01*
X0048799Y0079271D01*
X0048858Y0079255D01*
X0048915Y0079235D01*
X0048970Y0079212D01*
X0049025Y0079185D01*
X0049077Y0079156D01*
X0049128Y0079123D01*
X0049177Y0079087D01*
X0049223Y0079049D01*
X0049267Y0079007D01*
X0049309Y0078963D01*
X0049347Y0078917D01*
X0049383Y0078868D01*
X0049416Y0078817D01*
X0049445Y0078765D01*
X0049472Y0078710D01*
X0049495Y0078655D01*
X0049515Y0078598D01*
X0049531Y0078539D01*
X0049544Y0078480D01*
X0049553Y0078421D01*
X0049558Y0078360D01*
X0049560Y0078300D01*
X0049560Y0076800D01*
X0049060Y0076300D01*
X0049060Y0057300D01*
X0049560Y0056800D01*
X0049560Y0055300D01*
X0049558Y0055240D01*
X0049553Y0055179D01*
X0049544Y0055120D01*
X0049531Y0055061D01*
X0049515Y0055002D01*
X0049495Y0054945D01*
X0049472Y0054890D01*
X0049445Y0054835D01*
X0049416Y0054783D01*
X0049383Y0054732D01*
X0049347Y0054683D01*
X0049309Y0054637D01*
X0049267Y0054593D01*
X0049223Y0054551D01*
X0049177Y0054513D01*
X0049128Y0054477D01*
X0049077Y0054444D01*
X0049025Y0054415D01*
X0048970Y0054388D01*
X0048915Y0054365D01*
X0048858Y0054345D01*
X0048799Y0054329D01*
X0048740Y0054316D01*
X0048681Y0054307D01*
X0048620Y0054302D01*
X0048560Y0054300D01*
X0034560Y0055300D02*
X0034560Y0056800D01*
X0034060Y0057300D01*
X0034060Y0076300D01*
X0034560Y0076800D01*
X0034560Y0078300D01*
X0034558Y0078360D01*
X0034553Y0078421D01*
X0034544Y0078480D01*
X0034531Y0078539D01*
X0034515Y0078598D01*
X0034495Y0078655D01*
X0034472Y0078710D01*
X0034445Y0078765D01*
X0034416Y0078817D01*
X0034383Y0078868D01*
X0034347Y0078917D01*
X0034309Y0078963D01*
X0034267Y0079007D01*
X0034223Y0079049D01*
X0034177Y0079087D01*
X0034128Y0079123D01*
X0034077Y0079156D01*
X0034025Y0079185D01*
X0033970Y0079212D01*
X0033915Y0079235D01*
X0033858Y0079255D01*
X0033799Y0079271D01*
X0033740Y0079284D01*
X0033681Y0079293D01*
X0033620Y0079298D01*
X0033560Y0079300D01*
X0026560Y0079300D01*
X0026500Y0079298D01*
X0026439Y0079293D01*
X0026380Y0079284D01*
X0026321Y0079271D01*
X0026262Y0079255D01*
X0026205Y0079235D01*
X0026150Y0079212D01*
X0026095Y0079185D01*
X0026043Y0079156D01*
X0025992Y0079123D01*
X0025943Y0079087D01*
X0025897Y0079049D01*
X0025853Y0079007D01*
X0025811Y0078963D01*
X0025773Y0078917D01*
X0025737Y0078868D01*
X0025704Y0078817D01*
X0025675Y0078765D01*
X0025648Y0078710D01*
X0025625Y0078655D01*
X0025605Y0078598D01*
X0025589Y0078539D01*
X0025576Y0078480D01*
X0025567Y0078421D01*
X0025562Y0078360D01*
X0025560Y0078300D01*
X0025560Y0076800D01*
X0026060Y0076300D01*
X0026060Y0057300D01*
X0025560Y0056800D01*
X0025560Y0055300D01*
X0025562Y0055240D01*
X0025567Y0055179D01*
X0025576Y0055120D01*
X0025589Y0055061D01*
X0025605Y0055002D01*
X0025625Y0054945D01*
X0025648Y0054890D01*
X0025675Y0054835D01*
X0025704Y0054783D01*
X0025737Y0054732D01*
X0025773Y0054683D01*
X0025811Y0054637D01*
X0025853Y0054593D01*
X0025897Y0054551D01*
X0025943Y0054513D01*
X0025992Y0054477D01*
X0026043Y0054444D01*
X0026095Y0054415D01*
X0026150Y0054388D01*
X0026205Y0054365D01*
X0026262Y0054345D01*
X0026321Y0054329D01*
X0026380Y0054316D01*
X0026439Y0054307D01*
X0026500Y0054302D01*
X0026560Y0054300D01*
X0033560Y0054300D01*
X0033620Y0054302D01*
X0033681Y0054307D01*
X0033740Y0054316D01*
X0033799Y0054329D01*
X0033858Y0054345D01*
X0033915Y0054365D01*
X0033970Y0054388D01*
X0034025Y0054415D01*
X0034077Y0054444D01*
X0034128Y0054477D01*
X0034177Y0054513D01*
X0034223Y0054551D01*
X0034267Y0054593D01*
X0034309Y0054637D01*
X0034347Y0054683D01*
X0034383Y0054732D01*
X0034416Y0054783D01*
X0034445Y0054835D01*
X0034472Y0054890D01*
X0034495Y0054945D01*
X0034515Y0055002D01*
X0034531Y0055061D01*
X0034544Y0055120D01*
X0034553Y0055179D01*
X0034558Y0055240D01*
X0034560Y0055300D01*
X0088560Y0026800D02*
X0111560Y0026800D01*
X0111560Y0166800D01*
X0104060Y0166800D01*
X0104058Y0166674D01*
X0104052Y0166549D01*
X0104042Y0166424D01*
X0104028Y0166299D01*
X0104011Y0166174D01*
X0103989Y0166050D01*
X0103964Y0165927D01*
X0103934Y0165805D01*
X0103901Y0165684D01*
X0103864Y0165564D01*
X0103824Y0165445D01*
X0103779Y0165328D01*
X0103731Y0165211D01*
X0103679Y0165097D01*
X0103624Y0164984D01*
X0103565Y0164873D01*
X0103503Y0164764D01*
X0103437Y0164657D01*
X0103368Y0164552D01*
X0103296Y0164449D01*
X0103221Y0164348D01*
X0103142Y0164250D01*
X0103060Y0164155D01*
X0102976Y0164062D01*
X0102888Y0163972D01*
X0102798Y0163884D01*
X0102705Y0163800D01*
X0102610Y0163718D01*
X0102512Y0163639D01*
X0102411Y0163564D01*
X0102308Y0163492D01*
X0102203Y0163423D01*
X0102096Y0163357D01*
X0101987Y0163295D01*
X0101876Y0163236D01*
X0101763Y0163181D01*
X0101649Y0163129D01*
X0101532Y0163081D01*
X0101415Y0163036D01*
X0101296Y0162996D01*
X0101176Y0162959D01*
X0101055Y0162926D01*
X0100933Y0162896D01*
X0100810Y0162871D01*
X0100686Y0162849D01*
X0100561Y0162832D01*
X0100436Y0162818D01*
X0100311Y0162808D01*
X0100186Y0162802D01*
X0100060Y0162800D01*
X0099934Y0162802D01*
X0099809Y0162808D01*
X0099684Y0162818D01*
X0099559Y0162832D01*
X0099434Y0162849D01*
X0099310Y0162871D01*
X0099187Y0162896D01*
X0099065Y0162926D01*
X0098944Y0162959D01*
X0098824Y0162996D01*
X0098705Y0163036D01*
X0098588Y0163081D01*
X0098471Y0163129D01*
X0098357Y0163181D01*
X0098244Y0163236D01*
X0098133Y0163295D01*
X0098024Y0163357D01*
X0097917Y0163423D01*
X0097812Y0163492D01*
X0097709Y0163564D01*
X0097608Y0163639D01*
X0097510Y0163718D01*
X0097415Y0163800D01*
X0097322Y0163884D01*
X0097232Y0163972D01*
X0097144Y0164062D01*
X0097060Y0164155D01*
X0096978Y0164250D01*
X0096899Y0164348D01*
X0096824Y0164449D01*
X0096752Y0164552D01*
X0096683Y0164657D01*
X0096617Y0164764D01*
X0096555Y0164873D01*
X0096496Y0164984D01*
X0096441Y0165097D01*
X0096389Y0165211D01*
X0096341Y0165328D01*
X0096296Y0165445D01*
X0096256Y0165564D01*
X0096219Y0165684D01*
X0096186Y0165805D01*
X0096156Y0165927D01*
X0096131Y0166050D01*
X0096109Y0166174D01*
X0096092Y0166299D01*
X0096078Y0166424D01*
X0096068Y0166549D01*
X0096062Y0166674D01*
X0096060Y0166800D01*
X0088560Y0166800D01*
X0088560Y0026800D01*
X0110060Y0022800D02*
X0110214Y0022798D01*
X0110368Y0022792D01*
X0110522Y0022782D01*
X0110676Y0022768D01*
X0110829Y0022751D01*
X0110981Y0022729D01*
X0111133Y0022703D01*
X0111285Y0022674D01*
X0111435Y0022640D01*
X0111585Y0022603D01*
X0111733Y0022562D01*
X0111881Y0022517D01*
X0112027Y0022468D01*
X0112172Y0022416D01*
X0112315Y0022360D01*
X0112458Y0022300D01*
X0112598Y0022237D01*
X0112737Y0022170D01*
X0112874Y0022099D01*
X0113009Y0022025D01*
X0113142Y0021948D01*
X0113274Y0021867D01*
X0113403Y0021783D01*
X0113530Y0021695D01*
X0113654Y0021604D01*
X0113776Y0021511D01*
X0113896Y0021413D01*
X0114013Y0021313D01*
X0114128Y0021210D01*
X0114240Y0021104D01*
X0114349Y0020996D01*
X0114455Y0020884D01*
X0114559Y0020770D01*
X0114659Y0020653D01*
X0114757Y0020534D01*
X0114851Y0020412D01*
X0114942Y0020287D01*
X0110060Y0010800D02*
X0109908Y0010802D01*
X0109757Y0010808D01*
X0109606Y0010817D01*
X0109454Y0010831D01*
X0109304Y0010848D01*
X0109154Y0010869D01*
X0109004Y0010894D01*
X0108855Y0010922D01*
X0108707Y0010955D01*
X0108560Y0010991D01*
X0108413Y0011030D01*
X0108268Y0011074D01*
X0108124Y0011121D01*
X0107981Y0011172D01*
X0107840Y0011226D01*
X0107699Y0011284D01*
X0107561Y0011345D01*
X0107424Y0011410D01*
X0107288Y0011479D01*
X0107155Y0011550D01*
X0107023Y0011625D01*
X0106893Y0011704D01*
X0106766Y0011785D01*
X0106640Y0011870D01*
X0106516Y0011958D01*
X0106395Y0012049D01*
X0106276Y0012143D01*
X0106160Y0012241D01*
X0106046Y0012341D01*
X0105934Y0012443D01*
X0105826Y0012549D01*
X0105720Y0012657D01*
X0105616Y0012768D01*
X0105516Y0012882D01*
X0105418Y0012998D01*
X0105324Y0013117D01*
X0110060Y0010800D02*
X0110212Y0010802D01*
X0110363Y0010808D01*
X0110514Y0010817D01*
X0110666Y0010831D01*
X0110816Y0010848D01*
X0110966Y0010869D01*
X0111116Y0010894D01*
X0111265Y0010922D01*
X0111413Y0010955D01*
X0111560Y0010991D01*
X0111707Y0011030D01*
X0111852Y0011074D01*
X0111996Y0011121D01*
X0112139Y0011172D01*
X0112280Y0011226D01*
X0112421Y0011284D01*
X0112559Y0011345D01*
X0112696Y0011410D01*
X0112832Y0011479D01*
X0112965Y0011550D01*
X0113097Y0011625D01*
X0113227Y0011704D01*
X0113354Y0011785D01*
X0113480Y0011870D01*
X0113604Y0011958D01*
X0113725Y0012049D01*
X0113844Y0012143D01*
X0113960Y0012241D01*
X0114074Y0012341D01*
X0114186Y0012443D01*
X0114294Y0012549D01*
X0114400Y0012657D01*
X0114504Y0012768D01*
X0114604Y0012882D01*
X0114702Y0012998D01*
X0114796Y0013117D01*
X0110060Y0022800D02*
X0109910Y0022798D01*
X0109759Y0022792D01*
X0109609Y0022783D01*
X0109460Y0022770D01*
X0109310Y0022753D01*
X0109161Y0022732D01*
X0109013Y0022708D01*
X0108865Y0022680D01*
X0108718Y0022648D01*
X0108572Y0022613D01*
X0108427Y0022573D01*
X0108283Y0022531D01*
X0108140Y0022484D01*
X0107998Y0022434D01*
X0107857Y0022381D01*
X0107718Y0022324D01*
X0107580Y0022264D01*
X0107444Y0022200D01*
X0107310Y0022133D01*
X0107177Y0022062D01*
X0107046Y0021988D01*
X0106917Y0021911D01*
X0106790Y0021830D01*
X0106665Y0021747D01*
X0106542Y0021660D01*
X0106421Y0021571D01*
X0106303Y0021478D01*
X0106187Y0021382D01*
X0106073Y0021284D01*
X0105962Y0021183D01*
X0105853Y0021078D01*
X0105748Y0020972D01*
X0105644Y0020862D01*
X0105544Y0020750D01*
X0105446Y0020636D01*
X0105352Y0020519D01*
X0105260Y0020400D01*
X0150360Y0011370D02*
X0150360Y0007100D01*
X0150360Y0010303D02*
X0154630Y0010303D01*
X0154630Y0011370D02*
X0154630Y0007100D01*
X0156805Y0007100D02*
X0160008Y0007100D01*
X0161076Y0008168D01*
X0161076Y0010303D01*
X0160008Y0011370D01*
X0156805Y0011370D01*
X0156805Y0004965D01*
X0154630Y0011370D02*
X0152495Y0013505D01*
X0150360Y0011370D01*
X0152560Y0013300D02*
X0152560Y0020300D01*
X0152562Y0020360D01*
X0152567Y0020421D01*
X0152576Y0020480D01*
X0152589Y0020539D01*
X0152605Y0020598D01*
X0152625Y0020655D01*
X0152648Y0020710D01*
X0152675Y0020765D01*
X0152704Y0020817D01*
X0152737Y0020868D01*
X0152773Y0020917D01*
X0152811Y0020963D01*
X0152853Y0021007D01*
X0152897Y0021049D01*
X0152943Y0021087D01*
X0152992Y0021123D01*
X0153043Y0021156D01*
X0153095Y0021185D01*
X0153150Y0021212D01*
X0153205Y0021235D01*
X0153262Y0021255D01*
X0153321Y0021271D01*
X0153380Y0021284D01*
X0153439Y0021293D01*
X0153500Y0021298D01*
X0153560Y0021300D01*
X0155060Y0021300D01*
X0155560Y0020800D01*
X0174560Y0020800D01*
X0175060Y0021300D01*
X0176560Y0021300D01*
X0176620Y0021298D01*
X0176681Y0021293D01*
X0176740Y0021284D01*
X0176799Y0021271D01*
X0176858Y0021255D01*
X0176915Y0021235D01*
X0176970Y0021212D01*
X0177025Y0021185D01*
X0177077Y0021156D01*
X0177128Y0021123D01*
X0177177Y0021087D01*
X0177223Y0021049D01*
X0177267Y0021007D01*
X0177309Y0020963D01*
X0177347Y0020917D01*
X0177383Y0020868D01*
X0177416Y0020817D01*
X0177445Y0020765D01*
X0177472Y0020710D01*
X0177495Y0020655D01*
X0177515Y0020598D01*
X0177531Y0020539D01*
X0177544Y0020480D01*
X0177553Y0020421D01*
X0177558Y0020360D01*
X0177560Y0020300D01*
X0177560Y0013300D01*
X0177558Y0013240D01*
X0177553Y0013179D01*
X0177544Y0013120D01*
X0177531Y0013061D01*
X0177515Y0013002D01*
X0177495Y0012945D01*
X0177472Y0012890D01*
X0177445Y0012835D01*
X0177416Y0012783D01*
X0177383Y0012732D01*
X0177347Y0012683D01*
X0177309Y0012637D01*
X0177267Y0012593D01*
X0177223Y0012551D01*
X0177177Y0012513D01*
X0177128Y0012477D01*
X0177077Y0012444D01*
X0177025Y0012415D01*
X0176970Y0012388D01*
X0176915Y0012365D01*
X0176858Y0012345D01*
X0176799Y0012329D01*
X0176740Y0012316D01*
X0176681Y0012307D01*
X0176620Y0012302D01*
X0176560Y0012300D01*
X0175060Y0012300D01*
X0174560Y0012800D01*
X0155560Y0012800D01*
X0155060Y0012300D01*
X0153560Y0012300D01*
X0153500Y0012302D01*
X0153439Y0012307D01*
X0153380Y0012316D01*
X0153321Y0012329D01*
X0153262Y0012345D01*
X0153205Y0012365D01*
X0153150Y0012388D01*
X0153095Y0012415D01*
X0153043Y0012444D01*
X0152992Y0012477D01*
X0152943Y0012513D01*
X0152897Y0012551D01*
X0152853Y0012593D01*
X0152811Y0012637D01*
X0152773Y0012683D01*
X0152737Y0012732D01*
X0152704Y0012783D01*
X0152675Y0012835D01*
X0152648Y0012890D01*
X0152625Y0012945D01*
X0152605Y0013002D01*
X0152589Y0013061D01*
X0152576Y0013120D01*
X0152567Y0013179D01*
X0152562Y0013240D01*
X0152560Y0013300D01*
X0157495Y0022100D02*
X0157495Y0025303D01*
X0159630Y0027438D01*
X0159630Y0028505D01*
X0161805Y0026370D02*
X0161805Y0023168D01*
X0162873Y0022100D01*
X0166076Y0022100D01*
X0166076Y0026370D01*
X0168251Y0025303D02*
X0168251Y0023168D01*
X0169319Y0022100D01*
X0172521Y0022100D01*
X0174696Y0022100D02*
X0174696Y0028505D01*
X0175764Y0026370D02*
X0177899Y0026370D01*
X0178967Y0025303D01*
X0178967Y0022100D01*
X0181142Y0023168D02*
X0181142Y0025303D01*
X0182210Y0026370D01*
X0184345Y0026370D01*
X0185412Y0025303D01*
X0185412Y0024235D01*
X0181142Y0024235D01*
X0181142Y0023168D02*
X0182210Y0022100D01*
X0184345Y0022100D01*
X0187587Y0022100D02*
X0187587Y0026370D01*
X0190790Y0026370D01*
X0191858Y0025303D01*
X0191858Y0022100D01*
X0191175Y0013505D02*
X0193310Y0013505D01*
X0194378Y0012438D01*
X0190107Y0008168D01*
X0191175Y0007100D01*
X0193310Y0007100D01*
X0194378Y0008168D01*
X0194378Y0012438D01*
X0196553Y0011370D02*
X0198688Y0013505D01*
X0198688Y0007100D01*
X0196553Y0007100D02*
X0200823Y0007100D01*
X0202998Y0007100D02*
X0202998Y0008168D01*
X0207269Y0012438D01*
X0207269Y0013505D01*
X0202998Y0013505D01*
X0191175Y0013505D02*
X0190107Y0012438D01*
X0190107Y0008168D01*
X0187932Y0007100D02*
X0183662Y0007100D01*
X0187932Y0011370D01*
X0187932Y0012438D01*
X0186864Y0013505D01*
X0184729Y0013505D01*
X0183662Y0012438D01*
X0175054Y0007100D02*
X0172919Y0007100D01*
X0173987Y0007100D02*
X0173987Y0013505D01*
X0172919Y0013505D01*
X0169690Y0013505D02*
X0169690Y0014573D01*
X0169690Y0011370D02*
X0169690Y0007100D01*
X0170757Y0007100D02*
X0168622Y0007100D01*
X0168622Y0011370D02*
X0169690Y0011370D01*
X0166454Y0011370D02*
X0165386Y0011370D01*
X0163251Y0009235D01*
X0163251Y0007100D02*
X0163251Y0011370D01*
X0168251Y0025303D02*
X0169319Y0026370D01*
X0172521Y0026370D01*
X0174696Y0025303D02*
X0175764Y0026370D01*
X0157495Y0025303D02*
X0155360Y0027438D01*
X0155360Y0028505D01*
X0148060Y0072300D02*
X0123560Y0072300D01*
X0120560Y0075300D01*
X0120560Y0088300D01*
X0123560Y0091300D01*
X0148060Y0091300D01*
X0148136Y0091298D01*
X0148212Y0091292D01*
X0148287Y0091283D01*
X0148362Y0091269D01*
X0148436Y0091252D01*
X0148509Y0091231D01*
X0148581Y0091207D01*
X0148652Y0091178D01*
X0148721Y0091147D01*
X0148788Y0091112D01*
X0148853Y0091073D01*
X0148917Y0091031D01*
X0148978Y0090986D01*
X0149037Y0090938D01*
X0149093Y0090887D01*
X0149147Y0090833D01*
X0149198Y0090777D01*
X0149246Y0090718D01*
X0149291Y0090657D01*
X0149333Y0090593D01*
X0149372Y0090528D01*
X0149407Y0090461D01*
X0149438Y0090392D01*
X0149467Y0090321D01*
X0149491Y0090249D01*
X0149512Y0090176D01*
X0149529Y0090102D01*
X0149543Y0090027D01*
X0149552Y0089952D01*
X0149558Y0089876D01*
X0149560Y0089800D01*
X0149560Y0073800D01*
X0149558Y0073724D01*
X0149552Y0073648D01*
X0149543Y0073573D01*
X0149529Y0073498D01*
X0149512Y0073424D01*
X0149491Y0073351D01*
X0149467Y0073279D01*
X0149438Y0073208D01*
X0149407Y0073139D01*
X0149372Y0073072D01*
X0149333Y0073007D01*
X0149291Y0072943D01*
X0149246Y0072882D01*
X0149198Y0072823D01*
X0149147Y0072767D01*
X0149093Y0072713D01*
X0149037Y0072662D01*
X0148978Y0072614D01*
X0148917Y0072569D01*
X0148853Y0072527D01*
X0148788Y0072488D01*
X0148721Y0072453D01*
X0148652Y0072422D01*
X0148581Y0072393D01*
X0148509Y0072369D01*
X0148436Y0072348D01*
X0148362Y0072331D01*
X0148287Y0072317D01*
X0148212Y0072308D01*
X0148136Y0072302D01*
X0148060Y0072300D01*
X0141060Y0081800D02*
X0137560Y0081800D01*
X0132560Y0081800D02*
X0132560Y0086600D01*
X0134560Y0086600D01*
X0134560Y0077000D01*
X0132560Y0077000D01*
X0132560Y0081800D01*
X0129060Y0081800D01*
X0128060Y0085900D02*
X0128060Y0088400D01*
X0129360Y0087200D02*
X0126760Y0087200D01*
X0163560Y0147300D02*
X0165060Y0147300D01*
X0165560Y0147800D01*
X0184560Y0147800D01*
X0185060Y0147300D01*
X0186560Y0147300D01*
X0186620Y0147302D01*
X0186681Y0147307D01*
X0186740Y0147316D01*
X0186799Y0147329D01*
X0186858Y0147345D01*
X0186915Y0147365D01*
X0186970Y0147388D01*
X0187025Y0147415D01*
X0187077Y0147444D01*
X0187128Y0147477D01*
X0187177Y0147513D01*
X0187223Y0147551D01*
X0187267Y0147593D01*
X0187309Y0147637D01*
X0187347Y0147683D01*
X0187383Y0147732D01*
X0187416Y0147783D01*
X0187445Y0147835D01*
X0187472Y0147890D01*
X0187495Y0147945D01*
X0187515Y0148002D01*
X0187531Y0148061D01*
X0187544Y0148120D01*
X0187553Y0148179D01*
X0187558Y0148240D01*
X0187560Y0148300D01*
X0187560Y0155300D01*
X0187558Y0155360D01*
X0187553Y0155421D01*
X0187544Y0155480D01*
X0187531Y0155539D01*
X0187515Y0155598D01*
X0187495Y0155655D01*
X0187472Y0155710D01*
X0187445Y0155765D01*
X0187416Y0155817D01*
X0187383Y0155868D01*
X0187347Y0155917D01*
X0187309Y0155963D01*
X0187267Y0156007D01*
X0187223Y0156049D01*
X0187177Y0156087D01*
X0187128Y0156123D01*
X0187077Y0156156D01*
X0187025Y0156185D01*
X0186970Y0156212D01*
X0186915Y0156235D01*
X0186858Y0156255D01*
X0186799Y0156271D01*
X0186740Y0156284D01*
X0186681Y0156293D01*
X0186620Y0156298D01*
X0186560Y0156300D01*
X0185060Y0156300D01*
X0184560Y0155800D01*
X0165560Y0155800D01*
X0165060Y0156300D01*
X0163560Y0156300D01*
X0163500Y0156298D01*
X0163439Y0156293D01*
X0163380Y0156284D01*
X0163321Y0156271D01*
X0163262Y0156255D01*
X0163205Y0156235D01*
X0163150Y0156212D01*
X0163095Y0156185D01*
X0163043Y0156156D01*
X0162992Y0156123D01*
X0162943Y0156087D01*
X0162897Y0156049D01*
X0162853Y0156007D01*
X0162811Y0155963D01*
X0162773Y0155917D01*
X0162737Y0155868D01*
X0162704Y0155817D01*
X0162675Y0155765D01*
X0162648Y0155710D01*
X0162625Y0155655D01*
X0162605Y0155598D01*
X0162589Y0155539D01*
X0162576Y0155480D01*
X0162567Y0155421D01*
X0162562Y0155360D01*
X0162560Y0155300D01*
X0162560Y0148300D01*
X0162562Y0148240D01*
X0162567Y0148179D01*
X0162576Y0148120D01*
X0162589Y0148061D01*
X0162605Y0148002D01*
X0162625Y0147945D01*
X0162648Y0147890D01*
X0162675Y0147835D01*
X0162704Y0147783D01*
X0162737Y0147732D01*
X0162773Y0147683D01*
X0162811Y0147637D01*
X0162853Y0147593D01*
X0162897Y0147551D01*
X0162943Y0147513D01*
X0162992Y0147477D01*
X0163043Y0147444D01*
X0163095Y0147415D01*
X0163150Y0147388D01*
X0163205Y0147365D01*
X0163262Y0147345D01*
X0163321Y0147329D01*
X0163380Y0147316D01*
X0163439Y0147307D01*
X0163500Y0147302D01*
X0163560Y0147300D01*
X0150060Y0158300D02*
X0150060Y0175300D01*
X0150058Y0175360D01*
X0150053Y0175421D01*
X0150044Y0175480D01*
X0150031Y0175539D01*
X0150015Y0175598D01*
X0149995Y0175655D01*
X0149972Y0175710D01*
X0149945Y0175765D01*
X0149916Y0175817D01*
X0149883Y0175868D01*
X0149847Y0175917D01*
X0149809Y0175963D01*
X0149767Y0176007D01*
X0149723Y0176049D01*
X0149677Y0176087D01*
X0149628Y0176123D01*
X0149577Y0176156D01*
X0149525Y0176185D01*
X0149470Y0176212D01*
X0149415Y0176235D01*
X0149358Y0176255D01*
X0149299Y0176271D01*
X0149240Y0176284D01*
X0149181Y0176293D01*
X0149120Y0176298D01*
X0149060Y0176300D01*
X0141060Y0176300D01*
X0141060Y0177300D02*
X0149060Y0177300D01*
X0149120Y0177302D01*
X0149181Y0177307D01*
X0149240Y0177316D01*
X0149299Y0177329D01*
X0149358Y0177345D01*
X0149415Y0177365D01*
X0149470Y0177388D01*
X0149525Y0177415D01*
X0149577Y0177444D01*
X0149628Y0177477D01*
X0149677Y0177513D01*
X0149723Y0177551D01*
X0149767Y0177593D01*
X0149809Y0177637D01*
X0149847Y0177683D01*
X0149883Y0177732D01*
X0149916Y0177783D01*
X0149945Y0177835D01*
X0149972Y0177890D01*
X0149995Y0177945D01*
X0150015Y0178002D01*
X0150031Y0178061D01*
X0150044Y0178120D01*
X0150053Y0178179D01*
X0150058Y0178240D01*
X0150060Y0178300D01*
X0150060Y0195300D01*
X0150058Y0195360D01*
X0150053Y0195421D01*
X0150044Y0195480D01*
X0150031Y0195539D01*
X0150015Y0195598D01*
X0149995Y0195655D01*
X0149972Y0195710D01*
X0149945Y0195765D01*
X0149916Y0195817D01*
X0149883Y0195868D01*
X0149847Y0195917D01*
X0149809Y0195963D01*
X0149767Y0196007D01*
X0149723Y0196049D01*
X0149677Y0196087D01*
X0149628Y0196123D01*
X0149577Y0196156D01*
X0149525Y0196185D01*
X0149470Y0196212D01*
X0149415Y0196235D01*
X0149358Y0196255D01*
X0149299Y0196271D01*
X0149240Y0196284D01*
X0149181Y0196293D01*
X0149120Y0196298D01*
X0149060Y0196300D01*
X0141060Y0196300D01*
X0141000Y0196298D01*
X0140939Y0196293D01*
X0140880Y0196284D01*
X0140821Y0196271D01*
X0140762Y0196255D01*
X0140705Y0196235D01*
X0140650Y0196212D01*
X0140595Y0196185D01*
X0140543Y0196156D01*
X0140492Y0196123D01*
X0140443Y0196087D01*
X0140397Y0196049D01*
X0140353Y0196007D01*
X0140311Y0195963D01*
X0140273Y0195917D01*
X0140237Y0195868D01*
X0140204Y0195817D01*
X0140175Y0195765D01*
X0140148Y0195710D01*
X0140125Y0195655D01*
X0140105Y0195598D01*
X0140089Y0195539D01*
X0140076Y0195480D01*
X0140067Y0195421D01*
X0140062Y0195360D01*
X0140060Y0195300D01*
X0140060Y0178300D01*
X0140062Y0178240D01*
X0140067Y0178179D01*
X0140076Y0178120D01*
X0140089Y0178061D01*
X0140105Y0178002D01*
X0140125Y0177945D01*
X0140148Y0177890D01*
X0140175Y0177835D01*
X0140204Y0177783D01*
X0140237Y0177732D01*
X0140273Y0177683D01*
X0140311Y0177637D01*
X0140353Y0177593D01*
X0140397Y0177551D01*
X0140443Y0177513D01*
X0140492Y0177477D01*
X0140543Y0177444D01*
X0140595Y0177415D01*
X0140650Y0177388D01*
X0140705Y0177365D01*
X0140762Y0177345D01*
X0140821Y0177329D01*
X0140880Y0177316D01*
X0140939Y0177307D01*
X0141000Y0177302D01*
X0141060Y0177300D01*
X0141060Y0176300D02*
X0141000Y0176298D01*
X0140939Y0176293D01*
X0140880Y0176284D01*
X0140821Y0176271D01*
X0140762Y0176255D01*
X0140705Y0176235D01*
X0140650Y0176212D01*
X0140595Y0176185D01*
X0140543Y0176156D01*
X0140492Y0176123D01*
X0140443Y0176087D01*
X0140397Y0176049D01*
X0140353Y0176007D01*
X0140311Y0175963D01*
X0140273Y0175917D01*
X0140237Y0175868D01*
X0140204Y0175817D01*
X0140175Y0175765D01*
X0140148Y0175710D01*
X0140125Y0175655D01*
X0140105Y0175598D01*
X0140089Y0175539D01*
X0140076Y0175480D01*
X0140067Y0175421D01*
X0140062Y0175360D01*
X0140060Y0175300D01*
X0140060Y0158300D01*
X0140062Y0158240D01*
X0140067Y0158179D01*
X0140076Y0158120D01*
X0140089Y0158061D01*
X0140105Y0158002D01*
X0140125Y0157945D01*
X0140148Y0157890D01*
X0140175Y0157835D01*
X0140204Y0157783D01*
X0140237Y0157732D01*
X0140273Y0157683D01*
X0140311Y0157637D01*
X0140353Y0157593D01*
X0140397Y0157551D01*
X0140443Y0157513D01*
X0140492Y0157477D01*
X0140543Y0157444D01*
X0140595Y0157415D01*
X0140650Y0157388D01*
X0140705Y0157365D01*
X0140762Y0157345D01*
X0140821Y0157329D01*
X0140880Y0157316D01*
X0140939Y0157307D01*
X0141000Y0157302D01*
X0141060Y0157300D01*
X0149060Y0157300D01*
X0149120Y0157302D01*
X0149181Y0157307D01*
X0149240Y0157316D01*
X0149299Y0157329D01*
X0149358Y0157345D01*
X0149415Y0157365D01*
X0149470Y0157388D01*
X0149525Y0157415D01*
X0149577Y0157444D01*
X0149628Y0157477D01*
X0149677Y0157513D01*
X0149723Y0157551D01*
X0149767Y0157593D01*
X0149809Y0157637D01*
X0149847Y0157683D01*
X0149883Y0157732D01*
X0149916Y0157783D01*
X0149945Y0157835D01*
X0149972Y0157890D01*
X0149995Y0157945D01*
X0150015Y0158002D01*
X0150031Y0158061D01*
X0150044Y0158120D01*
X0150053Y0158179D01*
X0150058Y0158240D01*
X0150060Y0158300D01*
X0145060Y0165300D02*
X0145060Y0165800D01*
X0145060Y0167800D02*
X0145060Y0168300D01*
X0160560Y0163800D02*
X0160560Y0188300D01*
X0163560Y0191300D01*
X0176560Y0191300D01*
X0179560Y0188300D01*
X0179560Y0163800D01*
X0179558Y0163724D01*
X0179552Y0163648D01*
X0179543Y0163573D01*
X0179529Y0163498D01*
X0179512Y0163424D01*
X0179491Y0163351D01*
X0179467Y0163279D01*
X0179438Y0163208D01*
X0179407Y0163139D01*
X0179372Y0163072D01*
X0179333Y0163007D01*
X0179291Y0162943D01*
X0179246Y0162882D01*
X0179198Y0162823D01*
X0179147Y0162767D01*
X0179093Y0162713D01*
X0179037Y0162662D01*
X0178978Y0162614D01*
X0178917Y0162569D01*
X0178853Y0162527D01*
X0178788Y0162488D01*
X0178721Y0162453D01*
X0178652Y0162422D01*
X0178581Y0162393D01*
X0178509Y0162369D01*
X0178436Y0162348D01*
X0178362Y0162331D01*
X0178287Y0162317D01*
X0178212Y0162308D01*
X0178136Y0162302D01*
X0178060Y0162300D01*
X0162060Y0162300D01*
X0161984Y0162302D01*
X0161908Y0162308D01*
X0161833Y0162317D01*
X0161758Y0162331D01*
X0161684Y0162348D01*
X0161611Y0162369D01*
X0161539Y0162393D01*
X0161468Y0162422D01*
X0161399Y0162453D01*
X0161332Y0162488D01*
X0161267Y0162527D01*
X0161203Y0162569D01*
X0161142Y0162614D01*
X0161083Y0162662D01*
X0161027Y0162713D01*
X0160973Y0162767D01*
X0160922Y0162823D01*
X0160874Y0162882D01*
X0160829Y0162943D01*
X0160787Y0163007D01*
X0160748Y0163072D01*
X0160713Y0163139D01*
X0160682Y0163208D01*
X0160653Y0163279D01*
X0160629Y0163351D01*
X0160608Y0163424D01*
X0160591Y0163498D01*
X0160577Y0163573D01*
X0160568Y0163648D01*
X0160562Y0163724D01*
X0160560Y0163800D01*
X0170060Y0170800D02*
X0170060Y0174300D01*
X0170060Y0179300D02*
X0174860Y0179300D01*
X0174860Y0177300D01*
X0165260Y0177300D01*
X0165260Y0179300D01*
X0170060Y0179300D01*
X0170060Y0182800D01*
X0174160Y0183800D02*
X0176660Y0183800D01*
X0175460Y0182500D02*
X0175460Y0185100D01*
X0190060Y0192800D02*
X0190214Y0192798D01*
X0190368Y0192792D01*
X0190522Y0192782D01*
X0190676Y0192768D01*
X0190829Y0192751D01*
X0190981Y0192729D01*
X0191133Y0192703D01*
X0191285Y0192674D01*
X0191435Y0192640D01*
X0191585Y0192603D01*
X0191733Y0192562D01*
X0191881Y0192517D01*
X0192027Y0192468D01*
X0192172Y0192416D01*
X0192315Y0192360D01*
X0192458Y0192300D01*
X0192598Y0192237D01*
X0192737Y0192170D01*
X0192874Y0192099D01*
X0193009Y0192025D01*
X0193142Y0191948D01*
X0193274Y0191867D01*
X0193403Y0191783D01*
X0193530Y0191695D01*
X0193654Y0191604D01*
X0193776Y0191511D01*
X0193896Y0191413D01*
X0194013Y0191313D01*
X0194128Y0191210D01*
X0194240Y0191104D01*
X0194349Y0190996D01*
X0194455Y0190884D01*
X0194559Y0190770D01*
X0194659Y0190653D01*
X0194757Y0190534D01*
X0194851Y0190412D01*
X0194942Y0190287D01*
X0190060Y0180800D02*
X0189908Y0180802D01*
X0189757Y0180808D01*
X0189606Y0180817D01*
X0189454Y0180831D01*
X0189304Y0180848D01*
X0189154Y0180869D01*
X0189004Y0180894D01*
X0188855Y0180922D01*
X0188707Y0180955D01*
X0188560Y0180991D01*
X0188413Y0181030D01*
X0188268Y0181074D01*
X0188124Y0181121D01*
X0187981Y0181172D01*
X0187840Y0181226D01*
X0187699Y0181284D01*
X0187561Y0181345D01*
X0187424Y0181410D01*
X0187288Y0181479D01*
X0187155Y0181550D01*
X0187023Y0181625D01*
X0186893Y0181704D01*
X0186766Y0181785D01*
X0186640Y0181870D01*
X0186516Y0181958D01*
X0186395Y0182049D01*
X0186276Y0182143D01*
X0186160Y0182241D01*
X0186046Y0182341D01*
X0185934Y0182443D01*
X0185826Y0182549D01*
X0185720Y0182657D01*
X0185616Y0182768D01*
X0185516Y0182882D01*
X0185418Y0182998D01*
X0185324Y0183117D01*
X0190060Y0180800D02*
X0190212Y0180802D01*
X0190363Y0180808D01*
X0190514Y0180817D01*
X0190666Y0180831D01*
X0190816Y0180848D01*
X0190966Y0180869D01*
X0191116Y0180894D01*
X0191265Y0180922D01*
X0191413Y0180955D01*
X0191560Y0180991D01*
X0191707Y0181030D01*
X0191852Y0181074D01*
X0191996Y0181121D01*
X0192139Y0181172D01*
X0192280Y0181226D01*
X0192421Y0181284D01*
X0192559Y0181345D01*
X0192696Y0181410D01*
X0192832Y0181479D01*
X0192965Y0181550D01*
X0193097Y0181625D01*
X0193227Y0181704D01*
X0193354Y0181785D01*
X0193480Y0181870D01*
X0193604Y0181958D01*
X0193725Y0182049D01*
X0193844Y0182143D01*
X0193960Y0182241D01*
X0194074Y0182341D01*
X0194186Y0182443D01*
X0194294Y0182549D01*
X0194400Y0182657D01*
X0194504Y0182768D01*
X0194604Y0182882D01*
X0194702Y0182998D01*
X0194796Y0183117D01*
X0190060Y0192800D02*
X0189910Y0192798D01*
X0189759Y0192792D01*
X0189609Y0192783D01*
X0189460Y0192770D01*
X0189310Y0192753D01*
X0189161Y0192732D01*
X0189013Y0192708D01*
X0188865Y0192680D01*
X0188718Y0192648D01*
X0188572Y0192613D01*
X0188427Y0192573D01*
X0188283Y0192531D01*
X0188140Y0192484D01*
X0187998Y0192434D01*
X0187857Y0192381D01*
X0187718Y0192324D01*
X0187580Y0192264D01*
X0187444Y0192200D01*
X0187310Y0192133D01*
X0187177Y0192062D01*
X0187046Y0191988D01*
X0186917Y0191911D01*
X0186790Y0191830D01*
X0186665Y0191747D01*
X0186542Y0191660D01*
X0186421Y0191571D01*
X0186303Y0191478D01*
X0186187Y0191382D01*
X0186073Y0191284D01*
X0185962Y0191183D01*
X0185853Y0191078D01*
X0185748Y0190972D01*
X0185644Y0190862D01*
X0185544Y0190750D01*
X0185446Y0190636D01*
X0185352Y0190519D01*
X0185260Y0190400D01*
X0145060Y0188300D02*
X0145060Y0187800D01*
X0145060Y0185800D02*
X0145060Y0185300D01*
X0100060Y0190300D02*
X0100060Y0173300D01*
X0100058Y0173240D01*
X0100053Y0173179D01*
X0100044Y0173120D01*
X0100031Y0173061D01*
X0100015Y0173002D01*
X0099995Y0172945D01*
X0099972Y0172890D01*
X0099945Y0172835D01*
X0099916Y0172783D01*
X0099883Y0172732D01*
X0099847Y0172683D01*
X0099809Y0172637D01*
X0099767Y0172593D01*
X0099723Y0172551D01*
X0099677Y0172513D01*
X0099628Y0172477D01*
X0099577Y0172444D01*
X0099525Y0172415D01*
X0099470Y0172388D01*
X0099415Y0172365D01*
X0099358Y0172345D01*
X0099299Y0172329D01*
X0099240Y0172316D01*
X0099181Y0172307D01*
X0099120Y0172302D01*
X0099060Y0172300D01*
X0091060Y0172300D01*
X0091000Y0172302D01*
X0090939Y0172307D01*
X0090880Y0172316D01*
X0090821Y0172329D01*
X0090762Y0172345D01*
X0090705Y0172365D01*
X0090650Y0172388D01*
X0090595Y0172415D01*
X0090543Y0172444D01*
X0090492Y0172477D01*
X0090443Y0172513D01*
X0090397Y0172551D01*
X0090353Y0172593D01*
X0090311Y0172637D01*
X0090273Y0172683D01*
X0090237Y0172732D01*
X0090204Y0172783D01*
X0090175Y0172835D01*
X0090148Y0172890D01*
X0090125Y0172945D01*
X0090105Y0173002D01*
X0090089Y0173061D01*
X0090076Y0173120D01*
X0090067Y0173179D01*
X0090062Y0173240D01*
X0090060Y0173300D01*
X0090060Y0190300D01*
X0090062Y0190360D01*
X0090067Y0190421D01*
X0090076Y0190480D01*
X0090089Y0190539D01*
X0090105Y0190598D01*
X0090125Y0190655D01*
X0090148Y0190710D01*
X0090175Y0190765D01*
X0090204Y0190817D01*
X0090237Y0190868D01*
X0090273Y0190917D01*
X0090311Y0190963D01*
X0090353Y0191007D01*
X0090397Y0191049D01*
X0090443Y0191087D01*
X0090492Y0191123D01*
X0090543Y0191156D01*
X0090595Y0191185D01*
X0090650Y0191212D01*
X0090705Y0191235D01*
X0090762Y0191255D01*
X0090821Y0191271D01*
X0090880Y0191284D01*
X0090939Y0191293D01*
X0091000Y0191298D01*
X0091060Y0191300D01*
X0099060Y0191300D01*
X0099120Y0191298D01*
X0099181Y0191293D01*
X0099240Y0191284D01*
X0099299Y0191271D01*
X0099358Y0191255D01*
X0099415Y0191235D01*
X0099470Y0191212D01*
X0099525Y0191185D01*
X0099577Y0191156D01*
X0099628Y0191123D01*
X0099677Y0191087D01*
X0099723Y0191049D01*
X0099767Y0191007D01*
X0099809Y0190963D01*
X0099847Y0190917D01*
X0099883Y0190868D01*
X0099916Y0190817D01*
X0099945Y0190765D01*
X0099972Y0190710D01*
X0099995Y0190655D01*
X0100015Y0190598D01*
X0100031Y0190539D01*
X0100044Y0190480D01*
X0100053Y0190421D01*
X0100058Y0190360D01*
X0100060Y0190300D01*
X0095060Y0183300D02*
X0095060Y0182800D01*
X0095060Y0180800D02*
X0095060Y0180300D01*
D12*
X0072560Y0091800D02*
X0067560Y0091800D01*
X0065060Y0089300D01*
X0065060Y0064300D01*
X0067560Y0061800D01*
X0072560Y0061800D01*
X0075060Y0064300D01*
X0075060Y0089300D01*
X0072560Y0091800D01*
X0067560Y0026800D02*
X0082560Y0026800D01*
X0090060Y0019300D01*
X0090060Y0014300D01*
X0082560Y0006800D01*
X0067560Y0006800D01*
X0060060Y0014300D01*
X0060060Y0019300D01*
X0067560Y0026800D01*
X0055060Y0019300D02*
X0055060Y0014300D01*
X0047560Y0006800D01*
X0032560Y0006800D01*
X0025060Y0014300D01*
X0025060Y0019300D01*
X0032560Y0026800D01*
X0047560Y0026800D01*
X0055060Y0019300D01*
D13*
X0055310Y0019050D02*
X0055310Y0020952D01*
X0056261Y0020952D01*
X0056578Y0020635D01*
X0056578Y0020001D01*
X0056261Y0019684D01*
X0055310Y0019684D01*
X0055944Y0019684D02*
X0056578Y0019050D01*
X0057520Y0019050D02*
X0057520Y0020952D01*
X0058788Y0020952D01*
X0059730Y0020635D02*
X0059730Y0020318D01*
X0060047Y0020001D01*
X0060681Y0020001D01*
X0060997Y0019684D01*
X0060997Y0019367D01*
X0060681Y0019050D01*
X0060047Y0019050D01*
X0059730Y0019367D01*
X0058788Y0019050D02*
X0057520Y0019050D01*
X0057520Y0020001D02*
X0058154Y0020001D01*
X0059730Y0020635D02*
X0060047Y0020952D01*
X0060681Y0020952D01*
X0060997Y0020635D01*
X0061940Y0020952D02*
X0061940Y0019050D01*
X0063207Y0019050D01*
X0062573Y0020001D02*
X0061940Y0020001D01*
X0061940Y0020952D02*
X0063207Y0020952D01*
X0064150Y0020952D02*
X0065417Y0020952D01*
X0064783Y0020952D02*
X0064783Y0019050D01*
X0064466Y0022550D02*
X0065100Y0022550D01*
X0065417Y0022867D01*
X0065417Y0024135D01*
X0065100Y0024452D01*
X0064466Y0024452D01*
X0064150Y0024135D01*
X0064150Y0022867D01*
X0064466Y0022550D01*
X0062573Y0022550D02*
X0062573Y0024452D01*
X0061940Y0024452D02*
X0063207Y0024452D01*
X0060997Y0024452D02*
X0059730Y0024452D01*
X0060364Y0024452D02*
X0060364Y0022550D01*
X0058788Y0022867D02*
X0058788Y0024452D01*
X0057520Y0024452D02*
X0057520Y0022867D01*
X0057837Y0022550D01*
X0058471Y0022550D01*
X0058788Y0022867D01*
X0056578Y0022867D02*
X0056261Y0022550D01*
X0055310Y0022550D01*
X0055310Y0024452D01*
X0056261Y0024452D01*
X0056578Y0024135D01*
X0056578Y0023818D01*
X0056261Y0023501D01*
X0055310Y0023501D01*
X0056261Y0023501D02*
X0056578Y0023184D01*
X0056578Y0022867D01*
X0057158Y0014552D02*
X0055890Y0014552D01*
X0055890Y0012650D01*
X0057158Y0012650D01*
X0058100Y0012650D02*
X0058100Y0014552D01*
X0059051Y0014552D01*
X0059368Y0014235D01*
X0059368Y0013601D01*
X0059051Y0013284D01*
X0058100Y0013284D01*
X0058734Y0013284D02*
X0059368Y0012650D01*
X0059051Y0011052D02*
X0058417Y0011052D01*
X0058100Y0010735D01*
X0057158Y0011052D02*
X0057158Y0009150D01*
X0055890Y0011052D01*
X0055890Y0009150D01*
X0054948Y0009467D02*
X0054948Y0010735D01*
X0054631Y0011052D01*
X0053997Y0011052D01*
X0053680Y0010735D01*
X0053680Y0009467D01*
X0053997Y0009150D01*
X0054631Y0009150D01*
X0054948Y0009467D01*
X0052738Y0011052D02*
X0051470Y0011052D01*
X0052104Y0011052D02*
X0052104Y0009150D01*
X0049894Y0009150D02*
X0049894Y0011052D01*
X0049261Y0011052D02*
X0050528Y0011052D01*
X0051787Y0012650D02*
X0052421Y0012650D01*
X0052738Y0012967D01*
X0052738Y0014552D01*
X0053680Y0014235D02*
X0053680Y0013918D01*
X0053997Y0013601D01*
X0054631Y0013601D01*
X0054948Y0013284D01*
X0054948Y0012967D01*
X0054631Y0012650D01*
X0053997Y0012650D01*
X0053680Y0012967D01*
X0053680Y0014235D02*
X0053997Y0014552D01*
X0054631Y0014552D01*
X0054948Y0014235D01*
X0055890Y0013601D02*
X0056524Y0013601D01*
X0059051Y0011052D02*
X0059368Y0010735D01*
X0059368Y0010418D01*
X0058100Y0009150D01*
X0059368Y0009150D01*
X0051787Y0012650D02*
X0051470Y0012967D01*
X0051470Y0014552D01*
X0048318Y0011052D02*
X0048318Y0009467D01*
X0048001Y0009150D01*
X0047368Y0009150D01*
X0047051Y0009467D01*
X0047051Y0011052D01*
X0046109Y0010735D02*
X0046109Y0010418D01*
X0045792Y0010101D01*
X0044841Y0010101D01*
X0045792Y0010101D02*
X0046109Y0009784D01*
X0046109Y0009467D01*
X0045792Y0009150D01*
X0044841Y0009150D01*
X0044841Y0011052D01*
X0045792Y0011052D01*
X0046109Y0010735D01*
X0045060Y0016800D02*
X0040060Y0021800D01*
X0040060Y0016800D02*
X0035060Y0016800D01*
X0017710Y0017425D02*
X0016759Y0016474D01*
X0017076Y0016157D02*
X0015808Y0017425D01*
X0015808Y0018367D02*
X0015808Y0019001D01*
X0015808Y0018684D02*
X0017710Y0018684D01*
X0017710Y0018367D02*
X0017710Y0019001D01*
X0017710Y0020474D02*
X0015808Y0020474D01*
X0015808Y0019840D02*
X0015808Y0021108D01*
X0015808Y0016157D02*
X0017710Y0016157D01*
X0017393Y0015215D02*
X0017710Y0014898D01*
X0017710Y0014264D01*
X0017393Y0013947D01*
X0016125Y0013947D01*
X0015808Y0014264D01*
X0015808Y0014898D01*
X0016125Y0015215D01*
X0015808Y0013108D02*
X0015808Y0012474D01*
X0015808Y0012791D02*
X0017710Y0012791D01*
X0017710Y0012474D02*
X0017710Y0013108D01*
X0016759Y0011532D02*
X0017076Y0011215D01*
X0017076Y0010264D01*
X0017710Y0010264D02*
X0015808Y0010264D01*
X0015808Y0011215D01*
X0016125Y0011532D01*
X0016759Y0011532D01*
X0049306Y0033801D02*
X0050057Y0033050D01*
X0053059Y0033050D01*
X0053810Y0033801D01*
X0053810Y0035302D01*
X0053059Y0036053D01*
X0053810Y0037654D02*
X0050807Y0040656D01*
X0050057Y0040656D01*
X0049306Y0039906D01*
X0049306Y0038405D01*
X0050057Y0037654D01*
X0050057Y0036053D02*
X0049306Y0035302D01*
X0049306Y0033801D01*
X0053810Y0037654D02*
X0053810Y0040656D01*
X0066306Y0041457D02*
X0067807Y0039956D01*
X0066306Y0041457D02*
X0070810Y0041457D01*
X0070810Y0039956D02*
X0070810Y0042958D01*
X0070059Y0044560D02*
X0070810Y0045310D01*
X0070810Y0047562D01*
X0067807Y0047562D01*
X0068558Y0049164D02*
X0068558Y0050665D01*
X0066306Y0049164D02*
X0066306Y0052166D01*
X0066306Y0049164D02*
X0070810Y0049164D01*
X0070059Y0044560D02*
X0067807Y0044560D01*
X0070059Y0038405D02*
X0070810Y0038405D01*
X0070810Y0037654D01*
X0070059Y0037654D01*
X0070059Y0038405D01*
X0070059Y0036053D02*
X0067057Y0036053D01*
X0070059Y0033050D01*
X0070810Y0033801D01*
X0070810Y0035302D01*
X0070059Y0036053D01*
X0067057Y0036053D02*
X0066306Y0035302D01*
X0066306Y0033801D01*
X0067057Y0033050D01*
X0070059Y0033050D01*
X0069203Y0024452D02*
X0069203Y0022550D01*
X0068569Y0022550D02*
X0069837Y0022550D01*
X0068569Y0023818D02*
X0069203Y0024452D01*
X0067627Y0024452D02*
X0067627Y0022550D01*
X0066359Y0024452D01*
X0066359Y0022550D01*
X0070060Y0016800D02*
X0075060Y0011800D01*
X0075060Y0016800D02*
X0080060Y0016800D01*
X0117810Y0018550D02*
X0120813Y0018550D01*
X0122414Y0018550D02*
X0125416Y0018550D01*
X0127018Y0018550D02*
X0129270Y0018550D01*
X0130020Y0019301D01*
X0130020Y0022303D01*
X0129270Y0023054D01*
X0127018Y0023054D01*
X0127018Y0018550D01*
X0123915Y0020802D02*
X0122414Y0020802D01*
X0122414Y0023054D02*
X0122414Y0018550D01*
X0120062Y0015054D02*
X0118561Y0015054D01*
X0117810Y0014303D01*
X0117810Y0011301D01*
X0118561Y0010550D01*
X0120062Y0010550D01*
X0120813Y0011301D01*
X0120813Y0012802D01*
X0119311Y0012802D01*
X0120813Y0014303D02*
X0120062Y0015054D01*
X0122414Y0013553D02*
X0122414Y0010550D01*
X0122414Y0012051D02*
X0123915Y0013553D01*
X0124666Y0013553D01*
X0126251Y0012802D02*
X0126251Y0011301D01*
X0127001Y0010550D01*
X0128502Y0010550D01*
X0129253Y0012051D02*
X0126251Y0012051D01*
X0126251Y0012802D02*
X0127001Y0013553D01*
X0128502Y0013553D01*
X0129253Y0012802D01*
X0129253Y0012051D01*
X0130854Y0012051D02*
X0133857Y0012051D01*
X0133857Y0012802D01*
X0133106Y0013553D01*
X0131605Y0013553D01*
X0130854Y0012802D01*
X0130854Y0011301D01*
X0131605Y0010550D01*
X0133106Y0010550D01*
X0135458Y0010550D02*
X0135458Y0013553D01*
X0137710Y0013553D01*
X0138461Y0012802D01*
X0138461Y0010550D01*
X0134624Y0018550D02*
X0131622Y0018550D01*
X0134624Y0021553D01*
X0134624Y0022303D01*
X0133874Y0023054D01*
X0132372Y0023054D01*
X0131622Y0022303D01*
X0125416Y0023054D02*
X0122414Y0023054D01*
X0117810Y0023054D02*
X0117810Y0018550D01*
X0160398Y0018303D02*
X0161149Y0019054D01*
X0162650Y0019054D01*
X0163401Y0018303D01*
X0163401Y0017553D01*
X0162650Y0016802D01*
X0163401Y0016051D01*
X0163401Y0015301D01*
X0162650Y0014550D01*
X0161149Y0014550D01*
X0160398Y0015301D01*
X0161899Y0016802D02*
X0162650Y0016802D01*
X0165002Y0018303D02*
X0165753Y0019054D01*
X0167254Y0019054D01*
X0168005Y0018303D01*
X0168005Y0017553D01*
X0167254Y0016802D01*
X0168005Y0016051D01*
X0168005Y0015301D01*
X0167254Y0014550D01*
X0165753Y0014550D01*
X0165002Y0015301D01*
X0166503Y0016802D02*
X0167254Y0016802D01*
X0169606Y0015301D02*
X0169606Y0018303D01*
X0170357Y0019054D01*
X0171858Y0019054D01*
X0172609Y0018303D01*
X0169606Y0015301D01*
X0170357Y0014550D01*
X0171858Y0014550D01*
X0172609Y0015301D01*
X0172609Y0018303D01*
X0173457Y0010554D02*
X0172706Y0009803D01*
X0173457Y0010554D02*
X0174958Y0010554D01*
X0175709Y0009803D01*
X0175709Y0009053D01*
X0172706Y0006050D01*
X0175709Y0006050D01*
X0171105Y0006050D02*
X0169603Y0007551D01*
X0170354Y0007551D02*
X0168102Y0007551D01*
X0168102Y0006050D02*
X0168102Y0010554D01*
X0170354Y0010554D01*
X0171105Y0009803D01*
X0171105Y0008302D01*
X0170354Y0007551D01*
X0190993Y0062050D02*
X0191310Y0062367D01*
X0191310Y0062684D01*
X0190993Y0063001D01*
X0189408Y0063001D01*
X0189408Y0062684D02*
X0189408Y0063318D01*
X0189725Y0064260D02*
X0189408Y0064577D01*
X0189408Y0065211D01*
X0189725Y0065528D01*
X0190042Y0065528D01*
X0190359Y0065211D01*
X0190676Y0065528D01*
X0190993Y0065528D01*
X0191310Y0065211D01*
X0191310Y0064577D01*
X0190993Y0064260D01*
X0190359Y0064894D02*
X0190359Y0065211D01*
X0202908Y0065211D02*
X0203225Y0065528D01*
X0204493Y0065528D01*
X0204810Y0065211D01*
X0204810Y0064577D01*
X0204493Y0064260D01*
X0203225Y0064260D01*
X0202908Y0064577D01*
X0202908Y0065211D01*
X0202908Y0066470D02*
X0204810Y0067738D01*
X0202908Y0067738D01*
X0202908Y0068680D02*
X0204810Y0069947D01*
X0202908Y0069947D01*
X0202908Y0068680D02*
X0204810Y0068680D01*
X0204810Y0066470D02*
X0202908Y0066470D01*
X0203225Y0063318D02*
X0202908Y0063001D01*
X0202908Y0062367D01*
X0203225Y0062050D01*
X0204493Y0062050D01*
X0204810Y0062367D01*
X0204810Y0063001D01*
X0204493Y0063318D01*
X0205127Y0070890D02*
X0205127Y0072157D01*
X0204493Y0073099D02*
X0203225Y0074367D01*
X0204493Y0074367D01*
X0204810Y0074050D01*
X0204810Y0073416D01*
X0204493Y0073099D01*
X0203225Y0073099D01*
X0202908Y0073416D01*
X0202908Y0074050D01*
X0203225Y0074367D01*
X0203225Y0075309D02*
X0203542Y0075309D01*
X0203859Y0075626D01*
X0203859Y0076260D01*
X0204176Y0076577D01*
X0204493Y0076577D01*
X0204810Y0076260D01*
X0204810Y0075626D01*
X0204493Y0075309D01*
X0204176Y0075309D01*
X0203859Y0075626D01*
X0203859Y0076260D02*
X0203542Y0076577D01*
X0203225Y0076577D01*
X0202908Y0076260D01*
X0202908Y0075626D01*
X0203225Y0075309D01*
X0205127Y0077519D02*
X0205127Y0078787D01*
X0204493Y0079729D02*
X0203225Y0080997D01*
X0204493Y0080997D01*
X0204810Y0080680D01*
X0204810Y0080046D01*
X0204493Y0079729D01*
X0203225Y0079729D01*
X0202908Y0080046D01*
X0202908Y0080680D01*
X0203225Y0080997D01*
X0203542Y0081939D02*
X0202908Y0082573D01*
X0204810Y0082573D01*
X0204810Y0081939D02*
X0204810Y0083207D01*
X0168624Y0080054D02*
X0165622Y0080054D01*
X0165622Y0075550D01*
X0164020Y0075550D02*
X0164020Y0078553D01*
X0165622Y0077802D02*
X0167123Y0077802D01*
X0164020Y0075550D02*
X0161768Y0075550D01*
X0161018Y0076301D01*
X0161018Y0078553D01*
X0159416Y0079303D02*
X0156414Y0076301D01*
X0157165Y0075550D01*
X0158666Y0075550D01*
X0159416Y0076301D01*
X0159416Y0079303D01*
X0158666Y0080054D01*
X0157165Y0080054D01*
X0156414Y0079303D01*
X0156414Y0076301D01*
X0154813Y0075550D02*
X0151810Y0075550D01*
X0153311Y0075550D02*
X0153311Y0080054D01*
X0151810Y0078553D01*
X0131416Y0093801D02*
X0130666Y0093050D01*
X0129165Y0093050D01*
X0128414Y0093801D01*
X0128414Y0095302D02*
X0129915Y0096053D01*
X0130666Y0096053D01*
X0131416Y0095302D01*
X0131416Y0093801D01*
X0128414Y0095302D02*
X0128414Y0097554D01*
X0131416Y0097554D01*
X0126813Y0096803D02*
X0126062Y0097554D01*
X0124561Y0097554D01*
X0123810Y0096803D01*
X0123810Y0093801D01*
X0124561Y0093050D01*
X0126062Y0093050D01*
X0126813Y0093801D01*
X0077710Y0090791D02*
X0077393Y0091108D01*
X0077710Y0090791D02*
X0077710Y0090157D01*
X0077393Y0089840D01*
X0076125Y0089840D01*
X0075808Y0090157D01*
X0075808Y0090791D01*
X0076125Y0091108D01*
X0076125Y0088898D02*
X0075808Y0088581D01*
X0075808Y0087947D01*
X0076125Y0087630D01*
X0076442Y0087630D01*
X0076759Y0087947D01*
X0076759Y0088581D01*
X0077076Y0088898D01*
X0077393Y0088898D01*
X0077710Y0088581D01*
X0077710Y0087947D01*
X0077393Y0087630D01*
X0077393Y0086688D02*
X0076125Y0086688D01*
X0075808Y0086371D01*
X0075808Y0085737D01*
X0076125Y0085420D01*
X0077393Y0085420D01*
X0077710Y0085737D01*
X0077710Y0086371D01*
X0077393Y0086688D01*
X0064210Y0086688D02*
X0062308Y0086688D01*
X0062942Y0086054D01*
X0062308Y0085420D01*
X0064210Y0085420D01*
X0063893Y0084478D02*
X0064210Y0084161D01*
X0064210Y0083527D01*
X0063893Y0083210D01*
X0063576Y0083210D01*
X0063259Y0083527D01*
X0063259Y0084161D01*
X0063576Y0084478D01*
X0063893Y0084478D01*
X0063259Y0084161D02*
X0062942Y0084478D01*
X0062625Y0084478D01*
X0062308Y0084161D01*
X0062308Y0083527D01*
X0062625Y0083210D01*
X0062942Y0083210D01*
X0063259Y0083527D01*
X0063259Y0087630D02*
X0063259Y0088898D01*
X0062308Y0088898D02*
X0064210Y0088898D01*
X0064210Y0089840D02*
X0064210Y0091108D01*
X0062942Y0091108D02*
X0062942Y0089840D01*
X0062942Y0091108D02*
X0064210Y0089840D01*
X0064210Y0087630D02*
X0062308Y0087630D01*
X0055059Y0077449D02*
X0055810Y0076698D01*
X0055810Y0075197D01*
X0055059Y0074446D01*
X0055810Y0072845D02*
X0054309Y0071343D01*
X0054309Y0072094D02*
X0054309Y0069842D01*
X0055810Y0069842D02*
X0051306Y0069842D01*
X0051306Y0072094D01*
X0052057Y0072845D01*
X0053558Y0072845D01*
X0054309Y0072094D01*
X0052057Y0074446D02*
X0051306Y0075197D01*
X0051306Y0076698D01*
X0052057Y0077449D01*
X0052807Y0077449D01*
X0053558Y0076698D01*
X0054309Y0077449D01*
X0055059Y0077449D01*
X0053558Y0076698D02*
X0053558Y0075947D01*
X0047310Y0074349D02*
X0045058Y0072097D01*
X0045809Y0071346D02*
X0042806Y0074349D01*
X0040810Y0072845D02*
X0039309Y0071343D01*
X0039309Y0072094D02*
X0039309Y0069842D01*
X0040810Y0069842D02*
X0036306Y0069842D01*
X0036306Y0072094D01*
X0037057Y0072845D01*
X0038558Y0072845D01*
X0039309Y0072094D01*
X0038558Y0074446D02*
X0038558Y0077449D01*
X0036306Y0076698D02*
X0038558Y0074446D01*
X0040810Y0076698D02*
X0036306Y0076698D01*
X0032310Y0074349D02*
X0030058Y0072097D01*
X0030809Y0071346D02*
X0027806Y0074349D01*
X0027806Y0071346D02*
X0032310Y0071346D01*
X0031559Y0069745D02*
X0032310Y0068994D01*
X0032310Y0067493D01*
X0031559Y0066742D01*
X0028557Y0069745D01*
X0031559Y0069745D01*
X0028557Y0069745D02*
X0027806Y0068994D01*
X0027806Y0067493D01*
X0028557Y0066742D01*
X0031559Y0066742D01*
X0032310Y0065141D02*
X0032310Y0062138D01*
X0032310Y0063639D02*
X0027806Y0063639D01*
X0029307Y0062138D01*
X0020060Y0061800D02*
X0015060Y0056800D01*
X0020060Y0051800D01*
X0020060Y0061800D01*
X0020060Y0061621D02*
X0019881Y0061621D01*
X0020060Y0061123D02*
X0019383Y0061123D01*
X0018884Y0060624D02*
X0020060Y0060624D01*
X0020060Y0060126D02*
X0018386Y0060126D01*
X0017887Y0059627D02*
X0020060Y0059627D01*
X0020060Y0059129D02*
X0017389Y0059129D01*
X0016890Y0058630D02*
X0020060Y0058630D01*
X0020060Y0058132D02*
X0016392Y0058132D01*
X0015893Y0057633D02*
X0020060Y0057633D01*
X0020060Y0057135D02*
X0015395Y0057135D01*
X0015224Y0056636D02*
X0020060Y0056636D01*
X0020060Y0056138D02*
X0015722Y0056138D01*
X0016221Y0055639D02*
X0020060Y0055639D01*
X0020060Y0055141D02*
X0016719Y0055141D01*
X0017218Y0054642D02*
X0020060Y0054642D01*
X0020060Y0054144D02*
X0017716Y0054144D01*
X0018215Y0053645D02*
X0020060Y0053645D01*
X0020060Y0053147D02*
X0018713Y0053147D01*
X0019212Y0052648D02*
X0020060Y0052648D01*
X0020060Y0052150D02*
X0019710Y0052150D01*
X0017493Y0062050D02*
X0016225Y0062050D01*
X0015908Y0062367D01*
X0015908Y0063001D01*
X0016225Y0063318D01*
X0016225Y0064260D02*
X0017493Y0064260D01*
X0017810Y0064577D01*
X0017810Y0065211D01*
X0017493Y0065528D01*
X0016225Y0065528D01*
X0015908Y0065211D01*
X0015908Y0064577D01*
X0016225Y0064260D01*
X0017493Y0063318D02*
X0017810Y0063001D01*
X0017810Y0062367D01*
X0017493Y0062050D01*
X0017810Y0066470D02*
X0015908Y0066470D01*
X0017810Y0067738D01*
X0015908Y0067738D01*
X0015908Y0068680D02*
X0017810Y0069947D01*
X0015908Y0069947D01*
X0015908Y0068680D02*
X0017810Y0068680D01*
X0018127Y0070890D02*
X0018127Y0072157D01*
X0017493Y0073099D02*
X0016225Y0074367D01*
X0017493Y0074367D01*
X0017810Y0074050D01*
X0017810Y0073416D01*
X0017493Y0073099D01*
X0016225Y0073099D01*
X0015908Y0073416D01*
X0015908Y0074050D01*
X0016225Y0074367D01*
X0016225Y0075309D02*
X0016542Y0075309D01*
X0016859Y0075626D01*
X0016859Y0076260D01*
X0017176Y0076577D01*
X0017493Y0076577D01*
X0017810Y0076260D01*
X0017810Y0075626D01*
X0017493Y0075309D01*
X0017176Y0075309D01*
X0016859Y0075626D01*
X0016859Y0076260D02*
X0016542Y0076577D01*
X0016225Y0076577D01*
X0015908Y0076260D01*
X0015908Y0075626D01*
X0016225Y0075309D01*
X0018127Y0077519D02*
X0018127Y0078787D01*
X0017493Y0079729D02*
X0016225Y0080997D01*
X0017493Y0080997D01*
X0017810Y0080680D01*
X0017810Y0080046D01*
X0017493Y0079729D01*
X0016225Y0079729D01*
X0015908Y0080046D01*
X0015908Y0080680D01*
X0016225Y0080997D01*
X0016542Y0081939D02*
X0015908Y0082573D01*
X0017810Y0082573D01*
X0017810Y0081939D02*
X0017810Y0083207D01*
X0003359Y0065528D02*
X0003359Y0064260D01*
X0002408Y0065211D01*
X0004310Y0065211D01*
X0003993Y0063001D02*
X0002408Y0063001D01*
X0002408Y0062684D02*
X0002408Y0063318D01*
X0003993Y0063001D02*
X0004310Y0062684D01*
X0004310Y0062367D01*
X0003993Y0062050D01*
X0042806Y0063639D02*
X0044307Y0062138D01*
X0042806Y0063639D02*
X0047310Y0063639D01*
X0047310Y0062138D02*
X0047310Y0065141D01*
X0046559Y0066742D02*
X0043557Y0069745D01*
X0046559Y0069745D01*
X0047310Y0068994D01*
X0047310Y0067493D01*
X0046559Y0066742D01*
X0043557Y0066742D01*
X0042806Y0067493D01*
X0042806Y0068994D01*
X0043557Y0069745D01*
X0042806Y0071346D02*
X0047310Y0071346D01*
X0134306Y0156083D02*
X0134306Y0157584D01*
X0135057Y0158335D01*
X0138059Y0155332D01*
X0138810Y0156083D01*
X0138810Y0157584D01*
X0138059Y0158335D01*
X0135057Y0158335D01*
X0134306Y0156083D02*
X0135057Y0155332D01*
X0138059Y0155332D01*
X0138059Y0159936D02*
X0138059Y0160687D01*
X0138810Y0160687D01*
X0138810Y0159936D01*
X0138059Y0159936D01*
X0138810Y0162238D02*
X0138810Y0165241D01*
X0138436Y0164550D02*
X0135434Y0164550D01*
X0138436Y0167553D01*
X0138436Y0168303D01*
X0137685Y0169054D01*
X0136184Y0169054D01*
X0135434Y0168303D01*
X0135807Y0166842D02*
X0138059Y0166842D01*
X0138810Y0167593D01*
X0138810Y0169845D01*
X0135807Y0169845D01*
X0136558Y0171446D02*
X0136558Y0172947D01*
X0134306Y0171446D02*
X0134306Y0174449D01*
X0134306Y0171446D02*
X0138810Y0171446D01*
X0133832Y0168303D02*
X0133832Y0165301D01*
X0133082Y0164550D01*
X0131580Y0164550D01*
X0130830Y0165301D01*
X0133832Y0168303D01*
X0133082Y0169054D01*
X0131580Y0169054D01*
X0130830Y0168303D01*
X0130830Y0165301D01*
X0129228Y0168303D02*
X0126226Y0165301D01*
X0126226Y0164550D01*
X0124624Y0164550D02*
X0121622Y0164550D01*
X0123123Y0164550D02*
X0123123Y0169054D01*
X0121622Y0167553D01*
X0120020Y0168303D02*
X0120020Y0166802D01*
X0119270Y0166051D01*
X0117018Y0166051D01*
X0117018Y0164550D02*
X0117018Y0169054D01*
X0119270Y0169054D01*
X0120020Y0168303D01*
X0115416Y0168303D02*
X0114666Y0169054D01*
X0113165Y0169054D01*
X0112414Y0168303D01*
X0112414Y0165301D01*
X0113165Y0164550D01*
X0114666Y0164550D01*
X0115416Y0165301D01*
X0110813Y0164550D02*
X0110813Y0169054D01*
X0109311Y0167553D01*
X0107810Y0169054D01*
X0107810Y0164550D01*
X0108694Y0168050D02*
X0105691Y0168050D01*
X0108694Y0171053D01*
X0108694Y0171803D01*
X0107943Y0172554D01*
X0106442Y0172554D01*
X0105691Y0171803D01*
X0104090Y0171803D02*
X0104090Y0171053D01*
X0103339Y0170302D01*
X0104090Y0169551D01*
X0104090Y0168801D01*
X0103339Y0168050D01*
X0101838Y0168050D01*
X0101087Y0168801D01*
X0099486Y0168801D02*
X0098735Y0168050D01*
X0097234Y0168050D01*
X0096483Y0168801D01*
X0096483Y0171803D01*
X0097234Y0172554D01*
X0098735Y0172554D01*
X0099486Y0171803D01*
X0101087Y0171803D02*
X0101838Y0172554D01*
X0103339Y0172554D01*
X0104090Y0171803D01*
X0103339Y0170302D02*
X0102588Y0170302D01*
X0094915Y0172554D02*
X0093414Y0172554D01*
X0094165Y0172554D02*
X0094165Y0168050D01*
X0094915Y0168050D02*
X0093414Y0168050D01*
X0091813Y0170302D02*
X0091062Y0169551D01*
X0088810Y0169551D01*
X0088059Y0170332D02*
X0085057Y0170332D01*
X0084306Y0171083D01*
X0084306Y0172584D01*
X0085057Y0173335D01*
X0088059Y0170332D01*
X0088810Y0171083D01*
X0088810Y0172584D01*
X0088059Y0173335D01*
X0085057Y0173335D01*
X0088059Y0174936D02*
X0088059Y0175687D01*
X0088810Y0175687D01*
X0088810Y0174936D01*
X0088059Y0174936D01*
X0088810Y0177238D02*
X0088810Y0180241D01*
X0088810Y0178739D02*
X0084306Y0178739D01*
X0085807Y0177238D01*
X0085807Y0181842D02*
X0088059Y0181842D01*
X0088810Y0182593D01*
X0088810Y0184845D01*
X0085807Y0184845D01*
X0086558Y0186446D02*
X0086558Y0187947D01*
X0084306Y0186446D02*
X0084306Y0189449D01*
X0084306Y0186446D02*
X0088810Y0186446D01*
X0101306Y0187197D02*
X0101306Y0188698D01*
X0102057Y0189449D01*
X0102807Y0189449D01*
X0103558Y0188698D01*
X0104309Y0189449D01*
X0105059Y0189449D01*
X0105810Y0188698D01*
X0105810Y0187197D01*
X0105059Y0186446D01*
X0105059Y0184845D02*
X0105810Y0184094D01*
X0105810Y0182593D01*
X0105059Y0181842D01*
X0102057Y0181842D01*
X0101306Y0182593D01*
X0101306Y0184094D01*
X0102057Y0184845D01*
X0102057Y0186446D02*
X0101306Y0187197D01*
X0103558Y0187947D02*
X0103558Y0188698D01*
X0109608Y0180800D02*
X0111187Y0180800D01*
X0111814Y0175300D02*
X0128306Y0175300D01*
X0128933Y0180800D02*
X0130512Y0180800D01*
X0134306Y0180302D02*
X0134306Y0178801D01*
X0135057Y0178050D01*
X0138059Y0178050D01*
X0138810Y0178801D01*
X0138810Y0180302D01*
X0138059Y0181053D01*
X0138810Y0182654D02*
X0138810Y0185656D01*
X0138810Y0184155D02*
X0134306Y0184155D01*
X0135807Y0182654D01*
X0135057Y0181053D02*
X0134306Y0180302D01*
X0129228Y0169054D02*
X0126226Y0169054D01*
X0129228Y0169054D02*
X0129228Y0168303D01*
X0134306Y0163739D02*
X0135807Y0162238D01*
X0134306Y0163739D02*
X0138810Y0163739D01*
X0151306Y0167593D02*
X0152057Y0166842D01*
X0155059Y0166842D01*
X0155810Y0167593D01*
X0155810Y0169094D01*
X0155059Y0169845D01*
X0153558Y0171446D02*
X0153558Y0174449D01*
X0151306Y0173698D02*
X0153558Y0171446D01*
X0152057Y0169845D02*
X0151306Y0169094D01*
X0151306Y0167593D01*
X0151306Y0173698D02*
X0155810Y0173698D01*
X0155059Y0178050D02*
X0152057Y0178050D01*
X0151306Y0178801D01*
X0151306Y0180302D01*
X0152057Y0181053D01*
X0155059Y0178050D01*
X0155810Y0178801D01*
X0155810Y0180302D01*
X0155059Y0181053D01*
X0152057Y0181053D01*
X0155059Y0182654D02*
X0155059Y0183405D01*
X0155810Y0183405D01*
X0155810Y0182654D01*
X0155059Y0182654D01*
X0155810Y0184956D02*
X0155810Y0187958D01*
X0155810Y0186457D02*
X0151306Y0186457D01*
X0152807Y0184956D01*
X0152807Y0189560D02*
X0155059Y0189560D01*
X0155810Y0190310D01*
X0155810Y0192562D01*
X0152807Y0192562D01*
X0153558Y0194164D02*
X0153558Y0195665D01*
X0151306Y0194164D02*
X0151306Y0197166D01*
X0151306Y0194164D02*
X0155810Y0194164D01*
X0181306Y0186949D02*
X0182057Y0185447D01*
X0183558Y0183946D01*
X0183558Y0186198D01*
X0184309Y0186949D01*
X0185059Y0186949D01*
X0185810Y0186198D01*
X0185810Y0184697D01*
X0185059Y0183946D01*
X0183558Y0183946D01*
X0182057Y0182345D02*
X0181306Y0181594D01*
X0181306Y0180093D01*
X0182057Y0179342D01*
X0185059Y0179342D01*
X0185810Y0180093D01*
X0185810Y0181594D01*
X0185059Y0182345D01*
X0182810Y0178054D02*
X0182810Y0173550D01*
X0185813Y0173550D01*
X0187414Y0173550D02*
X0190416Y0173550D01*
X0192018Y0173550D02*
X0194270Y0173550D01*
X0195020Y0174301D01*
X0195020Y0177303D01*
X0194270Y0178054D01*
X0192018Y0178054D01*
X0192018Y0173550D01*
X0195020Y0170054D02*
X0195020Y0165550D01*
X0192768Y0165550D01*
X0192018Y0166301D01*
X0192018Y0167802D01*
X0192768Y0168553D01*
X0195020Y0168553D01*
X0190416Y0167802D02*
X0190416Y0167051D01*
X0187414Y0167051D01*
X0187414Y0166301D02*
X0187414Y0167802D01*
X0188165Y0168553D01*
X0189666Y0168553D01*
X0190416Y0167802D01*
X0189666Y0165550D02*
X0188165Y0165550D01*
X0187414Y0166301D01*
X0185813Y0165550D02*
X0184311Y0167051D01*
X0185062Y0167051D02*
X0182810Y0167051D01*
X0182810Y0165550D02*
X0182810Y0170054D01*
X0185062Y0170054D01*
X0185813Y0169303D01*
X0185813Y0167802D01*
X0185062Y0167051D01*
X0187414Y0173550D02*
X0187414Y0178054D01*
X0190416Y0178054D01*
X0188915Y0175802D02*
X0187414Y0175802D01*
X0196622Y0176553D02*
X0198123Y0178054D01*
X0198123Y0173550D01*
X0196622Y0173550D02*
X0199624Y0173550D01*
X0178620Y0153303D02*
X0175618Y0150301D01*
X0176368Y0149550D01*
X0177870Y0149550D01*
X0178620Y0150301D01*
X0178620Y0153303D01*
X0177870Y0154054D01*
X0176368Y0154054D01*
X0175618Y0153303D01*
X0175618Y0150301D01*
X0174016Y0150301D02*
X0173266Y0149550D01*
X0171765Y0149550D01*
X0171014Y0150301D01*
X0169413Y0150301D02*
X0168662Y0149550D01*
X0167161Y0149550D01*
X0166410Y0150301D01*
X0167559Y0149741D02*
X0168310Y0148990D01*
X0168310Y0147489D01*
X0167559Y0146738D01*
X0164557Y0149741D01*
X0167559Y0149741D01*
X0167559Y0151342D02*
X0165307Y0151342D01*
X0164557Y0149741D02*
X0163806Y0148990D01*
X0163806Y0147489D01*
X0164557Y0146738D01*
X0167559Y0146738D01*
X0168310Y0145137D02*
X0168310Y0142134D01*
X0168310Y0143636D02*
X0163806Y0143636D01*
X0165307Y0142134D01*
X0169413Y0150301D02*
X0169413Y0151051D01*
X0168662Y0151802D01*
X0167911Y0151802D01*
X0168310Y0152093D02*
X0168310Y0154345D01*
X0165307Y0154345D01*
X0166410Y0153303D02*
X0167161Y0154054D01*
X0168662Y0154054D01*
X0169413Y0153303D01*
X0169413Y0152553D01*
X0168662Y0151802D01*
X0168310Y0152093D02*
X0167559Y0151342D01*
X0171014Y0153303D02*
X0171765Y0154054D01*
X0173266Y0154054D01*
X0174016Y0153303D01*
X0174016Y0152553D01*
X0173266Y0151802D01*
X0174016Y0151051D01*
X0174016Y0150301D01*
X0173266Y0151802D02*
X0172515Y0151802D01*
X0168310Y0155946D02*
X0163806Y0155946D01*
X0163806Y0158949D01*
X0163310Y0159551D02*
X0165562Y0159551D01*
X0166313Y0160302D01*
X0166313Y0161803D01*
X0165562Y0162554D01*
X0163310Y0162554D01*
X0163310Y0158050D01*
X0164811Y0159551D02*
X0166313Y0158050D01*
X0166058Y0157447D02*
X0166058Y0155946D01*
X0167914Y0158050D02*
X0170916Y0158050D01*
X0169415Y0158050D02*
X0169415Y0162554D01*
X0167914Y0161053D01*
X0121187Y0180800D02*
X0118933Y0180800D01*
X0111814Y0175300D02*
X0111661Y0175499D01*
X0111513Y0175701D01*
X0111370Y0175906D01*
X0111232Y0176115D01*
X0111099Y0176327D01*
X0110971Y0176542D01*
X0110849Y0176760D01*
X0110731Y0176981D01*
X0110619Y0177205D01*
X0110512Y0177431D01*
X0110411Y0177660D01*
X0110315Y0177891D01*
X0110224Y0178125D01*
X0110139Y0178360D01*
X0110060Y0178598D01*
X0109987Y0178837D01*
X0109919Y0179078D01*
X0109857Y0179320D01*
X0109801Y0179564D01*
X0109750Y0179810D01*
X0109706Y0180056D01*
X0109667Y0180303D01*
X0109635Y0180551D01*
X0109608Y0180800D01*
X0123156Y0191833D02*
X0123398Y0191755D01*
X0123638Y0191671D01*
X0123876Y0191582D01*
X0124112Y0191486D01*
X0124346Y0191385D01*
X0124577Y0191279D01*
X0124805Y0191166D01*
X0125031Y0191049D01*
X0125254Y0190926D01*
X0125473Y0190797D01*
X0125690Y0190663D01*
X0125903Y0190524D01*
X0126113Y0190380D01*
X0126319Y0190231D01*
X0126521Y0190077D01*
X0126720Y0189918D01*
X0126915Y0189754D01*
X0127106Y0189585D01*
X0127292Y0189412D01*
X0127475Y0189235D01*
X0127653Y0189053D01*
X0127826Y0188867D01*
X0127995Y0188676D01*
X0128159Y0188482D01*
X0128319Y0188284D01*
X0128474Y0188082D01*
X0128623Y0187876D01*
X0128768Y0187667D01*
X0128908Y0187454D01*
X0129042Y0187238D01*
X0129171Y0187018D01*
X0129295Y0186796D01*
X0129414Y0186571D01*
X0129526Y0186343D01*
X0129634Y0186112D01*
X0129735Y0185879D01*
X0129831Y0185643D01*
X0129922Y0185405D01*
X0130006Y0185165D01*
X0130085Y0184923D01*
X0130158Y0184679D01*
X0130224Y0184433D01*
X0130285Y0184186D01*
X0130340Y0183938D01*
X0130389Y0183688D01*
X0130432Y0183437D01*
X0130468Y0183185D01*
X0130499Y0182933D01*
X0130523Y0182679D01*
X0130541Y0182426D01*
X0130553Y0182171D01*
X0130559Y0181917D01*
X0130559Y0181662D01*
X0130553Y0181408D01*
X0130540Y0181154D01*
X0130521Y0180900D01*
X0130496Y0180647D01*
X0130465Y0180394D01*
X0130428Y0180142D01*
X0130385Y0179892D01*
X0130336Y0179642D01*
X0130281Y0179393D01*
X0130219Y0179146D01*
X0130152Y0178901D01*
X0130079Y0178657D01*
X0130000Y0178415D01*
X0129915Y0178176D01*
X0129824Y0177938D01*
X0129727Y0177702D01*
X0129625Y0177469D01*
X0129517Y0177239D01*
X0129404Y0177011D01*
X0129285Y0176786D01*
X0129161Y0176564D01*
X0129032Y0176345D01*
X0128897Y0176129D01*
X0128757Y0175916D01*
X0128611Y0175707D01*
X0128461Y0175502D01*
X0128306Y0175300D01*
X0109608Y0180800D02*
X0109586Y0181055D01*
X0109571Y0181311D01*
X0109563Y0181567D01*
X0109560Y0181824D01*
X0109564Y0182080D01*
X0109574Y0182336D01*
X0109590Y0182592D01*
X0109612Y0182847D01*
X0109641Y0183102D01*
X0109676Y0183356D01*
X0109717Y0183609D01*
X0109764Y0183861D01*
X0109818Y0184111D01*
X0109877Y0184360D01*
X0109943Y0184608D01*
X0110014Y0184854D01*
X0110092Y0185099D01*
X0110175Y0185341D01*
X0110264Y0185581D01*
X0110360Y0185819D01*
X0110461Y0186055D01*
X0110567Y0186288D01*
X0110680Y0186518D01*
X0110798Y0186746D01*
X0110921Y0186970D01*
X0111050Y0187192D01*
X0111184Y0187410D01*
X0111324Y0187625D01*
X0111469Y0187836D01*
X0111619Y0188044D01*
X0111773Y0188248D01*
X0111933Y0188449D01*
X0112098Y0188645D01*
X0112267Y0188837D01*
X0112442Y0189026D01*
X0112620Y0189209D01*
X0112803Y0189389D01*
X0112991Y0189564D01*
X0113182Y0189734D01*
X0113378Y0189899D01*
X0113578Y0190060D01*
X0113781Y0190216D01*
X0113988Y0190366D01*
X0114199Y0190512D01*
X0114414Y0190653D01*
X0114631Y0190788D01*
X0114852Y0190918D01*
X0115076Y0191042D01*
X0115303Y0191161D01*
X0115533Y0191274D01*
X0115766Y0191382D01*
X0116001Y0191484D01*
X0116239Y0191580D01*
X0116478Y0191670D01*
X0116720Y0191755D01*
X0116964Y0191833D01*
X0091813Y0171803D02*
X0091813Y0170302D01*
X0091813Y0171803D02*
X0091062Y0172554D01*
X0088810Y0172554D01*
X0088810Y0168050D01*
D14*
X0092060Y0180800D02*
X0095060Y0180800D01*
X0098060Y0180800D01*
X0098060Y0182800D02*
X0095060Y0182800D01*
X0092060Y0182800D01*
X0142060Y0185800D02*
X0145060Y0185800D01*
X0148060Y0185800D01*
X0148060Y0187800D02*
X0145060Y0187800D01*
X0142060Y0187800D01*
X0142060Y0167800D02*
X0145060Y0167800D01*
X0148060Y0167800D01*
X0148060Y0165800D02*
X0145060Y0165800D01*
X0142060Y0165800D01*
X0183114Y0182831D02*
X0183213Y0182662D01*
X0183317Y0182496D01*
X0183424Y0182332D01*
X0183535Y0182171D01*
X0183650Y0182013D01*
X0183769Y0181858D01*
X0183892Y0181705D01*
X0184018Y0181556D01*
X0184148Y0181410D01*
X0184282Y0181267D01*
X0184419Y0181127D01*
X0184559Y0180991D01*
X0184703Y0180858D01*
X0184850Y0180729D01*
X0185000Y0180603D01*
X0185153Y0180482D01*
X0185309Y0180363D01*
X0185468Y0180249D01*
X0185629Y0180139D01*
X0185794Y0180033D01*
X0185960Y0179930D01*
X0186130Y0179832D01*
X0186301Y0179738D01*
X0186475Y0179648D01*
X0186651Y0179563D01*
X0186829Y0179481D01*
X0187009Y0179405D01*
X0187191Y0179332D01*
X0187374Y0179264D01*
X0187559Y0179201D01*
X0187746Y0179142D01*
X0187934Y0179088D01*
X0188123Y0179038D01*
X0188313Y0178993D01*
X0188505Y0178953D01*
X0188697Y0178917D01*
X0188890Y0178886D01*
X0189084Y0178860D01*
X0189279Y0178838D01*
X0189474Y0178822D01*
X0189669Y0178810D01*
X0189865Y0178802D01*
X0190060Y0178800D01*
X0183001Y0190565D02*
X0183094Y0190733D01*
X0183190Y0190899D01*
X0183290Y0191063D01*
X0183395Y0191224D01*
X0183503Y0191383D01*
X0183615Y0191539D01*
X0183731Y0191693D01*
X0183850Y0191843D01*
X0183973Y0191991D01*
X0184099Y0192136D01*
X0184229Y0192277D01*
X0184362Y0192416D01*
X0184499Y0192551D01*
X0184639Y0192683D01*
X0184781Y0192811D01*
X0184927Y0192936D01*
X0185076Y0193058D01*
X0185228Y0193176D01*
X0185382Y0193290D01*
X0185540Y0193400D01*
X0185699Y0193507D01*
X0185862Y0193610D01*
X0186027Y0193709D01*
X0186194Y0193804D01*
X0186363Y0193894D01*
X0186534Y0193981D01*
X0186708Y0194064D01*
X0186883Y0194142D01*
X0187061Y0194216D01*
X0187240Y0194286D01*
X0187420Y0194352D01*
X0187602Y0194413D01*
X0187786Y0194470D01*
X0187971Y0194522D01*
X0188157Y0194570D01*
X0188344Y0194614D01*
X0188532Y0194653D01*
X0188721Y0194687D01*
X0188911Y0194717D01*
X0189101Y0194742D01*
X0189292Y0194763D01*
X0189484Y0194779D01*
X0189676Y0194791D01*
X0189868Y0194798D01*
X0190060Y0194800D01*
X0196167Y0181632D02*
X0196040Y0181486D01*
X0195911Y0181344D01*
X0195777Y0181204D01*
X0195641Y0181068D01*
X0195501Y0180935D01*
X0195358Y0180805D01*
X0195211Y0180679D01*
X0195062Y0180557D01*
X0194910Y0180438D01*
X0194755Y0180323D01*
X0194598Y0180211D01*
X0194438Y0180104D01*
X0194275Y0180000D01*
X0194109Y0179901D01*
X0193942Y0179805D01*
X0193772Y0179713D01*
X0193600Y0179626D01*
X0193426Y0179542D01*
X0193250Y0179463D01*
X0193072Y0179389D01*
X0192892Y0179318D01*
X0192711Y0179252D01*
X0192528Y0179190D01*
X0192344Y0179133D01*
X0192158Y0179080D01*
X0191971Y0179032D01*
X0191783Y0178988D01*
X0191594Y0178949D01*
X0191404Y0178914D01*
X0191214Y0178884D01*
X0191023Y0178858D01*
X0190831Y0178837D01*
X0190638Y0178821D01*
X0190446Y0178809D01*
X0190253Y0178802D01*
X0190060Y0178800D01*
X0196206Y0191922D02*
X0196079Y0192070D01*
X0195949Y0192215D01*
X0195816Y0192356D01*
X0195679Y0192495D01*
X0195539Y0192630D01*
X0195395Y0192761D01*
X0195248Y0192889D01*
X0195099Y0193014D01*
X0194946Y0193135D01*
X0194791Y0193252D01*
X0194632Y0193365D01*
X0194471Y0193474D01*
X0194307Y0193579D01*
X0194141Y0193681D01*
X0193972Y0193778D01*
X0193802Y0193871D01*
X0193628Y0193960D01*
X0193453Y0194045D01*
X0193276Y0194125D01*
X0193097Y0194201D01*
X0192916Y0194273D01*
X0192733Y0194340D01*
X0192549Y0194403D01*
X0192363Y0194461D01*
X0192176Y0194515D01*
X0191988Y0194564D01*
X0191798Y0194609D01*
X0191608Y0194649D01*
X0191416Y0194684D01*
X0191224Y0194715D01*
X0191031Y0194741D01*
X0190837Y0194762D01*
X0190643Y0194779D01*
X0190449Y0194791D01*
X0190255Y0194798D01*
X0190060Y0194800D01*
X0063060Y0042800D02*
X0060060Y0042800D01*
X0057060Y0042800D01*
X0057060Y0040800D02*
X0060060Y0040800D01*
X0063060Y0040800D01*
X0103114Y0012831D02*
X0103213Y0012662D01*
X0103317Y0012496D01*
X0103424Y0012332D01*
X0103535Y0012171D01*
X0103650Y0012013D01*
X0103769Y0011858D01*
X0103892Y0011705D01*
X0104018Y0011556D01*
X0104148Y0011410D01*
X0104282Y0011267D01*
X0104419Y0011127D01*
X0104559Y0010991D01*
X0104703Y0010858D01*
X0104850Y0010729D01*
X0105000Y0010603D01*
X0105153Y0010482D01*
X0105309Y0010363D01*
X0105468Y0010249D01*
X0105629Y0010139D01*
X0105794Y0010033D01*
X0105960Y0009930D01*
X0106130Y0009832D01*
X0106301Y0009738D01*
X0106475Y0009648D01*
X0106651Y0009563D01*
X0106829Y0009481D01*
X0107009Y0009405D01*
X0107191Y0009332D01*
X0107374Y0009264D01*
X0107559Y0009201D01*
X0107746Y0009142D01*
X0107934Y0009088D01*
X0108123Y0009038D01*
X0108313Y0008993D01*
X0108505Y0008953D01*
X0108697Y0008917D01*
X0108890Y0008886D01*
X0109084Y0008860D01*
X0109279Y0008838D01*
X0109474Y0008822D01*
X0109669Y0008810D01*
X0109865Y0008802D01*
X0110060Y0008800D01*
X0103001Y0020565D02*
X0103094Y0020733D01*
X0103190Y0020899D01*
X0103290Y0021063D01*
X0103395Y0021224D01*
X0103503Y0021383D01*
X0103615Y0021539D01*
X0103731Y0021693D01*
X0103850Y0021843D01*
X0103973Y0021991D01*
X0104099Y0022136D01*
X0104229Y0022277D01*
X0104362Y0022416D01*
X0104499Y0022551D01*
X0104639Y0022683D01*
X0104781Y0022811D01*
X0104927Y0022936D01*
X0105076Y0023058D01*
X0105228Y0023176D01*
X0105382Y0023290D01*
X0105540Y0023400D01*
X0105699Y0023507D01*
X0105862Y0023610D01*
X0106027Y0023709D01*
X0106194Y0023804D01*
X0106363Y0023894D01*
X0106534Y0023981D01*
X0106708Y0024064D01*
X0106883Y0024142D01*
X0107061Y0024216D01*
X0107240Y0024286D01*
X0107420Y0024352D01*
X0107602Y0024413D01*
X0107786Y0024470D01*
X0107971Y0024522D01*
X0108157Y0024570D01*
X0108344Y0024614D01*
X0108532Y0024653D01*
X0108721Y0024687D01*
X0108911Y0024717D01*
X0109101Y0024742D01*
X0109292Y0024763D01*
X0109484Y0024779D01*
X0109676Y0024791D01*
X0109868Y0024798D01*
X0110060Y0024800D01*
X0116167Y0011632D02*
X0116040Y0011486D01*
X0115911Y0011344D01*
X0115777Y0011204D01*
X0115641Y0011068D01*
X0115501Y0010935D01*
X0115358Y0010805D01*
X0115211Y0010679D01*
X0115062Y0010557D01*
X0114910Y0010438D01*
X0114755Y0010323D01*
X0114598Y0010211D01*
X0114438Y0010104D01*
X0114275Y0010000D01*
X0114109Y0009901D01*
X0113942Y0009805D01*
X0113772Y0009713D01*
X0113600Y0009626D01*
X0113426Y0009542D01*
X0113250Y0009463D01*
X0113072Y0009389D01*
X0112892Y0009318D01*
X0112711Y0009252D01*
X0112528Y0009190D01*
X0112344Y0009133D01*
X0112158Y0009080D01*
X0111971Y0009032D01*
X0111783Y0008988D01*
X0111594Y0008949D01*
X0111404Y0008914D01*
X0111214Y0008884D01*
X0111023Y0008858D01*
X0110831Y0008837D01*
X0110638Y0008821D01*
X0110446Y0008809D01*
X0110253Y0008802D01*
X0110060Y0008800D01*
X0116206Y0021922D02*
X0116079Y0022070D01*
X0115949Y0022215D01*
X0115816Y0022356D01*
X0115679Y0022495D01*
X0115539Y0022630D01*
X0115395Y0022761D01*
X0115248Y0022889D01*
X0115099Y0023014D01*
X0114946Y0023135D01*
X0114791Y0023252D01*
X0114632Y0023365D01*
X0114471Y0023474D01*
X0114307Y0023579D01*
X0114141Y0023681D01*
X0113972Y0023778D01*
X0113802Y0023871D01*
X0113628Y0023960D01*
X0113453Y0024045D01*
X0113276Y0024125D01*
X0113097Y0024201D01*
X0112916Y0024273D01*
X0112733Y0024340D01*
X0112549Y0024403D01*
X0112363Y0024461D01*
X0112176Y0024515D01*
X0111988Y0024564D01*
X0111798Y0024609D01*
X0111608Y0024649D01*
X0111416Y0024684D01*
X0111224Y0024715D01*
X0111031Y0024741D01*
X0110837Y0024762D01*
X0110643Y0024779D01*
X0110449Y0024791D01*
X0110255Y0024798D01*
X0110060Y0024800D01*
D15*
X0137060Y0081800D03*
D16*
X0170060Y0174800D03*
D17*
X0080210Y0176604D02*
X0077141Y0176604D01*
X0077141Y0172000D01*
X0080210Y0172000D01*
X0078676Y0174302D02*
X0077141Y0174302D01*
X0075606Y0172767D02*
X0075606Y0175837D01*
X0074839Y0176604D01*
X0072537Y0176604D01*
X0072537Y0172000D01*
X0074839Y0172000D01*
X0075606Y0172767D01*
X0071002Y0172000D02*
X0069468Y0172000D01*
X0070235Y0172000D02*
X0070235Y0176604D01*
X0069468Y0176604D02*
X0071002Y0176604D01*
X0067933Y0172000D02*
X0064864Y0172000D01*
X0064864Y0176604D01*
X0063329Y0175837D02*
X0062562Y0176604D01*
X0061027Y0176604D01*
X0060260Y0175837D01*
X0060260Y0175069D01*
X0061027Y0174302D01*
X0062562Y0174302D01*
X0063329Y0173535D01*
X0063329Y0172767D01*
X0062562Y0172000D01*
X0061027Y0172000D01*
X0060260Y0172767D01*
X0048403Y0183673D02*
X0048403Y0184440D01*
X0047636Y0185207D01*
X0043799Y0185207D01*
X0043799Y0184440D02*
X0043799Y0185975D01*
X0045334Y0187509D02*
X0043799Y0189044D01*
X0048403Y0189044D01*
X0048403Y0187509D02*
X0048403Y0190579D01*
X0048403Y0183673D02*
X0047636Y0182906D01*
D18*
X0160860Y0151800D03*
X0189260Y0151800D03*
X0179260Y0016800D03*
X0150860Y0016800D03*
D19*
X0045060Y0052600D03*
X0030060Y0052600D03*
X0030060Y0081000D03*
X0045060Y0081000D03*
D20*
X0048131Y0178335D02*
X0081989Y0178335D01*
X0081989Y0195265D01*
X0048131Y0195265D01*
X0048131Y0178335D01*
X0065060Y0194674D02*
X0065060Y0202548D01*
X0072934Y0202548D01*
X0072934Y0194674D01*
M02*
