G75*
%MOIN*%
%OFA0B0*%
%FSLAX25Y25*%
%IPPOS*%
%LPD*%
%AMOC8*
5,1,8,0,0,1.08239X$1,22.5*
%
%ADD10C,0.00000*%
%ADD11C,0.07400*%
%ADD12OC8,0.05200*%
%ADD13C,0.05200*%
%ADD14C,0.05150*%
%ADD15C,0.11220*%
%ADD16C,0.05200*%
%ADD17C,0.05937*%
%ADD18C,0.01600*%
%ADD19C,0.03562*%
D10*
X0005060Y0001800D02*
X0005060Y0198650D01*
X0201910Y0198650D01*
X0201910Y0001800D01*
X0005060Y0001800D01*
D11*
X0010060Y0016800D03*
X0010060Y0026800D03*
X0010060Y0036800D03*
X0010060Y0046800D03*
X0010060Y0056800D03*
X0010060Y0066800D03*
X0010060Y0076800D03*
X0010060Y0086800D03*
X0010060Y0096800D03*
X0010060Y0106800D03*
X0010060Y0116800D03*
X0010060Y0126800D03*
X0010060Y0136800D03*
X0070060Y0086800D03*
X0070060Y0076800D03*
X0070060Y0066800D03*
X0065060Y0016800D03*
X0050060Y0016800D03*
X0030060Y0016800D03*
X0085060Y0016800D03*
X0197060Y0066800D03*
X0197060Y0076800D03*
X0197060Y0086800D03*
X0197060Y0096800D03*
X0197060Y0106800D03*
X0197060Y0116800D03*
X0197060Y0126800D03*
X0197060Y0136800D03*
D12*
X0195060Y0151800D03*
X0170060Y0166800D03*
X0155060Y0151800D03*
X0145060Y0161800D03*
X0145060Y0171800D03*
X0145060Y0181800D03*
X0145060Y0191800D03*
X0125060Y0181800D03*
X0120060Y0189300D03*
X0115060Y0181800D03*
X0095060Y0176800D03*
X0095060Y0186800D03*
X0185060Y0186800D03*
X0195060Y0186800D03*
X0145060Y0081800D03*
X0145060Y0016800D03*
X0115060Y0016800D03*
X0105060Y0016800D03*
X0060060Y0036800D03*
X0060060Y0046800D03*
X0045060Y0046800D03*
X0030060Y0046800D03*
X0030060Y0086800D03*
X0045060Y0086800D03*
X0185060Y0016800D03*
D13*
X0125060Y0081800D03*
X0170060Y0186800D03*
D14*
X0072934Y0186800D03*
X0065060Y0186800D03*
X0057186Y0186800D03*
X0040139Y0183099D03*
X0035414Y0179950D03*
X0040139Y0176800D03*
X0035414Y0173650D03*
X0040139Y0170501D03*
D15*
X0020060Y0162430D03*
X0020060Y0191170D03*
D16*
X0082460Y0161800D02*
X0087660Y0161800D01*
X0087660Y0151800D02*
X0082460Y0151800D01*
X0082460Y0141800D02*
X0087660Y0141800D01*
X0087660Y0131800D02*
X0082460Y0131800D01*
X0082460Y0121800D02*
X0087660Y0121800D01*
X0087660Y0111800D02*
X0082460Y0111800D01*
X0082460Y0101800D02*
X0087660Y0101800D01*
X0087660Y0091800D02*
X0082460Y0091800D01*
X0082460Y0081800D02*
X0087660Y0081800D01*
X0087660Y0071800D02*
X0082460Y0071800D01*
X0082460Y0061800D02*
X0087660Y0061800D01*
X0087660Y0051800D02*
X0082460Y0051800D01*
X0082460Y0041800D02*
X0087660Y0041800D01*
X0087660Y0031800D02*
X0082460Y0031800D01*
X0112460Y0031800D02*
X0117660Y0031800D01*
X0117660Y0041800D02*
X0112460Y0041800D01*
X0112460Y0051800D02*
X0117660Y0051800D01*
X0117660Y0061800D02*
X0112460Y0061800D01*
X0112460Y0071800D02*
X0117660Y0071800D01*
X0117660Y0081800D02*
X0112460Y0081800D01*
X0112460Y0091800D02*
X0117660Y0091800D01*
X0117660Y0101800D02*
X0112460Y0101800D01*
X0112460Y0111800D02*
X0117660Y0111800D01*
X0117660Y0121800D02*
X0112460Y0121800D01*
X0112460Y0131800D02*
X0117660Y0131800D01*
X0117660Y0141800D02*
X0112460Y0141800D01*
X0112460Y0151800D02*
X0117660Y0151800D01*
X0117660Y0161800D02*
X0112460Y0161800D01*
D17*
X0080808Y0186800D03*
X0049312Y0186800D03*
D18*
X0044314Y0189828D02*
X0044314Y0183529D01*
X0046043Y0181800D01*
X0060060Y0181800D01*
X0060060Y0096800D01*
X0055060Y0091800D02*
X0070060Y0076800D01*
X0075860Y0070467D02*
X0075860Y0121140D01*
X0084802Y0130082D01*
X0085060Y0131800D01*
X0085060Y0121800D02*
X0084749Y0116000D01*
X0080720Y0116000D01*
X0078260Y0113540D01*
X0078260Y0070060D01*
X0078592Y0069728D01*
X0078260Y0063540D01*
X0078260Y0060060D01*
X0078592Y0059728D01*
X0078260Y0053540D01*
X0078260Y0050060D01*
X0078592Y0049728D01*
X0078260Y0043540D01*
X0078260Y0040060D01*
X0078592Y0039728D01*
X0078260Y0033540D01*
X0078260Y0030060D01*
X0080040Y0028280D01*
X0079955Y0026695D01*
X0085060Y0023260D02*
X0091860Y0030060D01*
X0091860Y0053540D01*
X0085060Y0060340D01*
X0085060Y0061800D01*
X0075860Y0070467D02*
X0073443Y0054356D01*
X0074260Y0053540D01*
X0074260Y0050060D01*
X0073409Y0044390D01*
X0074260Y0043540D01*
X0074260Y0041800D01*
X0074260Y0036000D01*
X0070060Y0031800D01*
X0074260Y0040060D02*
X0074260Y0041800D01*
X0085060Y0023260D02*
X0085060Y0016800D01*
X0100060Y0031800D02*
X0100060Y0136800D01*
X0123641Y0153219D02*
X0115060Y0161800D01*
X0123641Y0153219D02*
X0123641Y0100317D01*
X0130060Y0096736D01*
X0130060Y0036800D01*
X0105060Y0051800D02*
X0105060Y0016800D01*
X0050060Y0016800D02*
X0050060Y0031800D01*
X0045060Y0036800D01*
X0030060Y0016800D02*
X0025060Y0016800D01*
X0025060Y0056800D01*
X0020060Y0051800D02*
X0020060Y0086800D01*
X0010060Y0086800D01*
X0010060Y0076800D02*
X0010060Y0074295D01*
X0015360Y0068995D01*
X0015360Y0054605D01*
X0010060Y0049305D01*
X0010060Y0046800D01*
X0030060Y0086800D02*
X0030060Y0156800D01*
X0040060Y0164675D02*
X0035964Y0168772D01*
X0035964Y0173101D01*
X0035414Y0173650D01*
X0040139Y0170501D02*
X0051359Y0175501D01*
X0055060Y0171800D01*
X0055132Y0171872D01*
X0040060Y0164675D02*
X0040060Y0136800D01*
X0035414Y0179950D02*
X0035964Y0185499D01*
X0035964Y0189828D01*
X0038409Y0192274D01*
X0041868Y0192274D01*
X0044314Y0189828D01*
X0095060Y0166800D02*
X0095060Y0101800D01*
X0055060Y0091800D02*
X0040060Y0091800D01*
X0155060Y0106800D02*
X0125344Y0172600D01*
X0123320Y0172600D01*
X0120860Y0175060D01*
X0120860Y0188540D01*
X0122101Y0189781D01*
X0120060Y0189300D01*
X0145060Y0181800D02*
X0145060Y0171800D01*
X0195060Y0186800D02*
X0195060Y0151800D01*
X0197060Y0106800D02*
X0160060Y0091800D01*
X0160060Y0061800D01*
X0170060Y0051800D02*
X0170060Y0086800D01*
X0197060Y0096800D01*
X0197060Y0086800D02*
X0180060Y0076800D01*
X0180060Y0041800D01*
X0190060Y0031800D02*
X0190060Y0071800D01*
X0197060Y0076800D01*
X0155060Y0076800D02*
X0155060Y0106800D01*
D19*
X0155060Y0076800D03*
X0160060Y0061800D03*
X0170060Y0051800D03*
X0180060Y0041800D03*
X0190060Y0031800D03*
X0130060Y0036800D03*
X0105060Y0051800D03*
X0100060Y0031800D03*
X0079955Y0026695D03*
X0070060Y0031800D03*
X0045060Y0036800D03*
X0025060Y0056800D03*
X0020060Y0051800D03*
X0040060Y0091800D03*
X0060060Y0096800D03*
X0095060Y0101800D03*
X0100060Y0136800D03*
X0095060Y0166800D03*
X0055132Y0171872D03*
X0030060Y0156800D03*
X0040060Y0136800D03*
M02*
