G75*
%MOIN*%
%OFA0B0*%
%FSLAX25Y25*%
%IPPOS*%
%LPD*%
%AMOC8*
5,1,8,0,0,1.08239X$1,22.5*
%
%ADD10C,0.00000*%
%ADD11C,0.07400*%
%ADD12OC8,0.05200*%
%ADD13C,0.05200*%
%ADD14C,0.05150*%
%ADD15C,0.11220*%
%ADD16C,0.05200*%
%ADD17C,0.05937*%
%ADD18C,0.01600*%
%ADD19C,0.03562*%
D10*
X0005060Y0001800D02*
X0005060Y0198650D01*
X0201910Y0198650D01*
X0201910Y0001800D01*
X0005060Y0001800D01*
D11*
X0010060Y0016800D03*
X0010060Y0026800D03*
X0010060Y0036800D03*
X0010060Y0046800D03*
X0010060Y0056800D03*
X0010060Y0066800D03*
X0010060Y0076800D03*
X0010060Y0086800D03*
X0010060Y0096800D03*
X0010060Y0106800D03*
X0010060Y0116800D03*
X0010060Y0126800D03*
X0010060Y0136800D03*
X0070060Y0086800D03*
X0070060Y0076800D03*
X0070060Y0066800D03*
X0065060Y0016800D03*
X0050060Y0016800D03*
X0030060Y0016800D03*
X0085060Y0016800D03*
X0197060Y0066800D03*
X0197060Y0076800D03*
X0197060Y0086800D03*
X0197060Y0096800D03*
X0197060Y0106800D03*
X0197060Y0116800D03*
X0197060Y0126800D03*
X0197060Y0136800D03*
D12*
X0195060Y0151800D03*
X0170060Y0166800D03*
X0155060Y0151800D03*
X0145060Y0161800D03*
X0145060Y0171800D03*
X0145060Y0181800D03*
X0145060Y0191800D03*
X0125060Y0181800D03*
X0120060Y0189300D03*
X0115060Y0181800D03*
X0095060Y0176800D03*
X0095060Y0186800D03*
X0185060Y0186800D03*
X0195060Y0186800D03*
X0145060Y0081800D03*
X0145060Y0016800D03*
X0115060Y0016800D03*
X0105060Y0016800D03*
X0060060Y0036800D03*
X0060060Y0046800D03*
X0045060Y0046800D03*
X0030060Y0046800D03*
X0030060Y0086800D03*
X0045060Y0086800D03*
X0185060Y0016800D03*
D13*
X0125060Y0081800D03*
X0170060Y0186800D03*
D14*
X0072934Y0186800D03*
X0065060Y0186800D03*
X0057186Y0186800D03*
X0040139Y0183099D03*
X0035414Y0179950D03*
X0040139Y0176800D03*
X0035414Y0173650D03*
X0040139Y0170501D03*
D15*
X0020060Y0162430D03*
X0020060Y0191170D03*
D16*
X0082460Y0161800D02*
X0087660Y0161800D01*
X0087660Y0151800D02*
X0082460Y0151800D01*
X0082460Y0141800D02*
X0087660Y0141800D01*
X0087660Y0131800D02*
X0082460Y0131800D01*
X0082460Y0121800D02*
X0087660Y0121800D01*
X0087660Y0111800D02*
X0082460Y0111800D01*
X0082460Y0101800D02*
X0087660Y0101800D01*
X0087660Y0091800D02*
X0082460Y0091800D01*
X0082460Y0081800D02*
X0087660Y0081800D01*
X0087660Y0071800D02*
X0082460Y0071800D01*
X0082460Y0061800D02*
X0087660Y0061800D01*
X0087660Y0051800D02*
X0082460Y0051800D01*
X0082460Y0041800D02*
X0087660Y0041800D01*
X0087660Y0031800D02*
X0082460Y0031800D01*
X0112460Y0031800D02*
X0117660Y0031800D01*
X0117660Y0041800D02*
X0112460Y0041800D01*
X0112460Y0051800D02*
X0117660Y0051800D01*
X0117660Y0061800D02*
X0112460Y0061800D01*
X0112460Y0071800D02*
X0117660Y0071800D01*
X0117660Y0081800D02*
X0112460Y0081800D01*
X0112460Y0091800D02*
X0117660Y0091800D01*
X0117660Y0101800D02*
X0112460Y0101800D01*
X0112460Y0111800D02*
X0117660Y0111800D01*
X0117660Y0121800D02*
X0112460Y0121800D01*
X0112460Y0131800D02*
X0117660Y0131800D01*
X0117660Y0141800D02*
X0112460Y0141800D01*
X0112460Y0151800D02*
X0117660Y0151800D01*
X0117660Y0161800D02*
X0112460Y0161800D01*
D17*
X0080808Y0186800D03*
X0049312Y0186800D03*
D18*
X0044773Y0188826D02*
X0027326Y0188826D01*
X0027670Y0189656D02*
X0026512Y0186859D01*
X0024371Y0184718D01*
X0021574Y0183560D01*
X0018546Y0183560D01*
X0015749Y0184718D01*
X0013608Y0186859D01*
X0012450Y0189656D01*
X0012450Y0192684D01*
X0013608Y0195481D01*
X0014778Y0196650D01*
X0007060Y0196650D01*
X0007060Y0141727D01*
X0008926Y0142500D01*
X0009009Y0142500D01*
X0012260Y0152254D01*
X0012260Y0152357D01*
X0012435Y0152780D01*
X0012580Y0153214D01*
X0012647Y0153291D01*
X0012686Y0153386D01*
X0013010Y0153710D01*
X0013310Y0154055D01*
X0013401Y0154101D01*
X0013474Y0154174D01*
X0013897Y0154349D01*
X0014306Y0154553D01*
X0014408Y0154561D01*
X0014503Y0154600D01*
X0014961Y0154600D01*
X0015417Y0154632D01*
X0015514Y0154600D01*
X0026913Y0154600D01*
X0026855Y0154658D01*
X0026279Y0156048D01*
X0026279Y0157552D01*
X0026855Y0158942D01*
X0027918Y0160005D01*
X0029308Y0160581D01*
X0030812Y0160581D01*
X0032202Y0160005D01*
X0032607Y0159600D01*
X0078392Y0159600D01*
X0077860Y0160885D01*
X0077860Y0162715D01*
X0078392Y0164000D01*
X0055416Y0164000D01*
X0055142Y0163945D01*
X0054864Y0164000D01*
X0054582Y0164000D01*
X0054323Y0164107D01*
X0054049Y0164161D01*
X0053814Y0164318D01*
X0053553Y0164426D01*
X0053355Y0164624D01*
X0044514Y0170518D01*
X0044514Y0170501D01*
X0040139Y0170501D01*
X0040139Y0170501D01*
X0044514Y0170501D01*
X0044514Y0170156D01*
X0044406Y0169476D01*
X0044193Y0168821D01*
X0043880Y0168208D01*
X0043476Y0167651D01*
X0042989Y0167164D01*
X0042432Y0166759D01*
X0041818Y0166446D01*
X0041163Y0166234D01*
X0040483Y0166126D01*
X0040139Y0166126D01*
X0040139Y0170501D01*
X0040139Y0170501D01*
X0040139Y0166126D01*
X0039794Y0166126D01*
X0039114Y0166234D01*
X0038459Y0166446D01*
X0037846Y0166759D01*
X0037289Y0167164D01*
X0036802Y0167651D01*
X0036397Y0168208D01*
X0036084Y0168821D01*
X0036002Y0169076D01*
X0034504Y0169076D01*
X0032823Y0169772D01*
X0031536Y0171059D01*
X0030840Y0172740D01*
X0030840Y0174560D01*
X0031536Y0176242D01*
X0032094Y0176800D01*
X0031536Y0177358D01*
X0030840Y0179040D01*
X0030840Y0180860D01*
X0031536Y0182541D01*
X0032823Y0183828D01*
X0034504Y0184524D01*
X0035777Y0184524D01*
X0036260Y0185691D01*
X0037547Y0186978D01*
X0039229Y0187674D01*
X0041049Y0187674D01*
X0042730Y0186978D01*
X0044017Y0185691D01*
X0044469Y0184600D01*
X0044845Y0184600D01*
X0044343Y0185812D01*
X0044343Y0187788D01*
X0045100Y0189614D01*
X0046498Y0191012D01*
X0048324Y0191768D01*
X0050300Y0191768D01*
X0052126Y0191012D01*
X0053524Y0189614D01*
X0053526Y0189610D01*
X0054595Y0190678D01*
X0056276Y0191375D01*
X0058096Y0191375D01*
X0059777Y0190678D01*
X0061064Y0189391D01*
X0061123Y0189250D01*
X0061182Y0189391D01*
X0062469Y0190678D01*
X0064150Y0191375D01*
X0065970Y0191375D01*
X0067651Y0190678D01*
X0068938Y0189391D01*
X0068997Y0189250D01*
X0069056Y0189391D01*
X0070343Y0190678D01*
X0072024Y0191375D01*
X0073844Y0191375D01*
X0075525Y0190678D01*
X0076594Y0189610D01*
X0076596Y0189614D01*
X0077994Y0191012D01*
X0079820Y0191768D01*
X0081796Y0191768D01*
X0083622Y0191012D01*
X0085020Y0189614D01*
X0085777Y0187788D01*
X0085777Y0185812D01*
X0085020Y0183986D01*
X0083622Y0182588D01*
X0081796Y0181831D01*
X0079820Y0181831D01*
X0077994Y0182588D01*
X0076656Y0183925D01*
X0076843Y0183264D01*
X0080075Y0180031D01*
X0081541Y0180031D01*
X0085112Y0183603D01*
X0085288Y0183856D01*
X0085502Y0183993D01*
X0085683Y0184174D01*
X0085967Y0184291D01*
X0090460Y0187175D01*
X0090460Y0188705D01*
X0093155Y0191400D01*
X0096965Y0191400D01*
X0098416Y0189950D01*
X0115958Y0191704D01*
X0118155Y0193900D01*
X0121965Y0193900D01*
X0124660Y0191205D01*
X0124660Y0187395D01*
X0123665Y0186400D01*
X0126965Y0186400D01*
X0128765Y0184600D01*
X0141355Y0184600D01*
X0143155Y0186400D01*
X0146965Y0186400D01*
X0148102Y0185264D01*
X0165921Y0188828D01*
X0166160Y0189406D01*
X0167454Y0190700D01*
X0169145Y0191400D01*
X0170975Y0191400D01*
X0172666Y0190700D01*
X0173765Y0189600D01*
X0181355Y0189600D01*
X0183155Y0191400D01*
X0186965Y0191400D01*
X0189660Y0188705D01*
X0189660Y0184895D01*
X0186965Y0182200D01*
X0183155Y0182200D01*
X0181355Y0184000D01*
X0173765Y0184000D01*
X0172666Y0182900D01*
X0170975Y0182200D01*
X0169145Y0182200D01*
X0167454Y0182900D01*
X0167018Y0183336D01*
X0149622Y0179857D01*
X0146965Y0177200D01*
X0143155Y0177200D01*
X0141355Y0179000D01*
X0128765Y0179000D01*
X0126965Y0177200D01*
X0125890Y0177200D01*
X0120162Y0165743D01*
X0120266Y0165700D01*
X0121560Y0164406D01*
X0122260Y0162715D01*
X0122260Y0160885D01*
X0121560Y0159194D01*
X0120266Y0157900D01*
X0118575Y0157200D01*
X0111545Y0157200D01*
X0109854Y0157900D01*
X0108560Y0159194D01*
X0107860Y0160885D01*
X0107860Y0162715D01*
X0108560Y0164406D01*
X0109854Y0165700D01*
X0111545Y0166400D01*
X0114230Y0166400D01*
X0120805Y0179550D01*
X0120460Y0179895D01*
X0120460Y0183705D01*
X0121455Y0184700D01*
X0118665Y0184700D01*
X0119660Y0183705D01*
X0119660Y0179895D01*
X0116965Y0177200D01*
X0113155Y0177200D01*
X0110460Y0179895D01*
X0110460Y0183705D01*
X0112483Y0185728D01*
X0099162Y0184396D01*
X0096965Y0182200D01*
X0093155Y0182200D01*
X0093124Y0182231D01*
X0089035Y0179607D01*
X0084286Y0174858D01*
X0083257Y0174431D01*
X0078359Y0174431D01*
X0077330Y0174858D01*
X0072642Y0179546D01*
X0072494Y0179628D01*
X0072251Y0179936D01*
X0071973Y0180214D01*
X0071909Y0180370D01*
X0071804Y0180502D01*
X0071697Y0180880D01*
X0071547Y0181243D01*
X0071547Y0181412D01*
X0071224Y0182557D01*
X0070343Y0182922D01*
X0069056Y0184209D01*
X0068997Y0184350D01*
X0068938Y0184209D01*
X0067860Y0183130D01*
X0067860Y0181243D01*
X0067434Y0180214D01*
X0066646Y0179426D01*
X0065617Y0179000D01*
X0044179Y0179000D01*
X0044714Y0177710D01*
X0044714Y0177115D01*
X0055986Y0169600D01*
X0092513Y0169600D01*
X0092918Y0170005D01*
X0094308Y0170581D01*
X0095812Y0170581D01*
X0097202Y0170005D01*
X0098265Y0168942D01*
X0098841Y0167552D01*
X0098841Y0166048D01*
X0098265Y0164658D01*
X0097202Y0163595D01*
X0095812Y0163019D01*
X0094308Y0163019D01*
X0092918Y0163595D01*
X0092513Y0164000D01*
X0091728Y0164000D01*
X0092260Y0162715D01*
X0092260Y0160885D01*
X0091560Y0159194D01*
X0090266Y0157900D01*
X0088575Y0157200D01*
X0084420Y0157200D01*
X0083620Y0156400D01*
X0088575Y0156400D01*
X0090266Y0155700D01*
X0091560Y0154406D01*
X0092260Y0152715D01*
X0092260Y0150885D01*
X0091560Y0149194D01*
X0090266Y0147900D01*
X0088575Y0147200D01*
X0081545Y0147200D01*
X0079854Y0147900D01*
X0078755Y0149000D01*
X0017078Y0149000D01*
X0014289Y0140632D01*
X0014892Y0140029D01*
X0015130Y0139454D01*
X0017578Y0143125D01*
X0017686Y0143386D01*
X0017884Y0143584D01*
X0018039Y0143817D01*
X0018274Y0143974D01*
X0018474Y0144174D01*
X0018732Y0144281D01*
X0018965Y0144436D01*
X0019242Y0144492D01*
X0019503Y0144600D01*
X0019783Y0144600D01*
X0020057Y0144655D01*
X0020334Y0144600D01*
X0078755Y0144600D01*
X0079854Y0145700D01*
X0081545Y0146400D01*
X0088575Y0146400D01*
X0090266Y0145700D01*
X0091560Y0144406D01*
X0092260Y0142715D01*
X0092260Y0140885D01*
X0091728Y0139600D01*
X0097513Y0139600D01*
X0097918Y0140005D01*
X0099308Y0140581D01*
X0100812Y0140581D01*
X0102202Y0140005D01*
X0103265Y0138942D01*
X0103841Y0137552D01*
X0103841Y0136048D01*
X0103265Y0134658D01*
X0102202Y0133595D01*
X0100812Y0133019D01*
X0099308Y0133019D01*
X0097918Y0133595D01*
X0097513Y0134000D01*
X0091728Y0134000D01*
X0092260Y0132715D01*
X0092260Y0130885D01*
X0091560Y0129194D01*
X0090266Y0127900D01*
X0088575Y0127200D01*
X0081545Y0127200D01*
X0079854Y0127900D01*
X0078560Y0129194D01*
X0077860Y0130885D01*
X0077860Y0132715D01*
X0078392Y0134000D01*
X0042607Y0134000D01*
X0042202Y0133595D01*
X0040812Y0133019D01*
X0039308Y0133019D01*
X0037918Y0133595D01*
X0036855Y0134658D01*
X0036279Y0136048D01*
X0036279Y0137552D01*
X0036855Y0138942D01*
X0036913Y0139000D01*
X0021558Y0139000D01*
X0018001Y0133664D01*
X0017734Y0133019D01*
X0017245Y0132530D01*
X0015155Y0129395D01*
X0015760Y0127934D01*
X0015760Y0125666D01*
X0014892Y0123571D01*
X0013289Y0121968D01*
X0012884Y0121800D01*
X0013289Y0121632D01*
X0014892Y0120029D01*
X0015760Y0117934D01*
X0015760Y0115666D01*
X0015582Y0115237D01*
X0016220Y0114600D01*
X0078755Y0114600D01*
X0079854Y0115700D01*
X0081545Y0116400D01*
X0088575Y0116400D01*
X0090266Y0115700D01*
X0091560Y0114406D01*
X0092260Y0112715D01*
X0092260Y0110885D01*
X0091560Y0109194D01*
X0090266Y0107900D01*
X0088575Y0107200D01*
X0081545Y0107200D01*
X0079854Y0107900D01*
X0078755Y0109000D01*
X0015318Y0109000D01*
X0015760Y0107934D01*
X0015760Y0107080D01*
X0020721Y0104600D01*
X0041583Y0104600D01*
X0042308Y0104900D01*
X0047812Y0104900D01*
X0048537Y0104600D01*
X0078755Y0104600D01*
X0079854Y0105700D01*
X0081545Y0106400D01*
X0088575Y0106400D01*
X0090266Y0105700D01*
X0091560Y0104406D01*
X0091803Y0103818D01*
X0091855Y0103942D01*
X0092918Y0105005D01*
X0094308Y0105581D01*
X0095812Y0105581D01*
X0097202Y0105005D01*
X0097607Y0104600D01*
X0108755Y0104600D01*
X0109854Y0105700D01*
X0111545Y0106400D01*
X0118575Y0106400D01*
X0120266Y0105700D01*
X0121560Y0104406D01*
X0122260Y0102715D01*
X0122260Y0100885D01*
X0121560Y0099194D01*
X0120266Y0097900D01*
X0118575Y0097200D01*
X0111545Y0097200D01*
X0109854Y0097900D01*
X0108755Y0099000D01*
X0097607Y0099000D01*
X0097202Y0098595D01*
X0095812Y0098019D01*
X0094308Y0098019D01*
X0092918Y0098595D01*
X0091855Y0099658D01*
X0091803Y0099782D01*
X0091560Y0099194D01*
X0090811Y0098446D01*
X0090986Y0098374D01*
X0091773Y0097586D01*
X0094759Y0094600D01*
X0108755Y0094600D01*
X0109854Y0095700D01*
X0111545Y0096400D01*
X0118575Y0096400D01*
X0120266Y0095700D01*
X0121560Y0094406D01*
X0122260Y0092715D01*
X0122260Y0090885D01*
X0121560Y0089194D01*
X0120266Y0087900D01*
X0118575Y0087200D01*
X0111545Y0087200D01*
X0109854Y0087900D01*
X0108755Y0089000D01*
X0093043Y0089000D01*
X0092014Y0089426D01*
X0091600Y0089840D01*
X0091423Y0089494D01*
X0091016Y0088934D01*
X0090526Y0088444D01*
X0089966Y0088037D01*
X0089349Y0087722D01*
X0088690Y0087508D01*
X0088006Y0087400D01*
X0085060Y0087400D01*
X0085060Y0091800D01*
X0085060Y0091800D01*
X0085060Y0091800D01*
X0078060Y0091800D01*
X0078060Y0092146D01*
X0078168Y0092830D01*
X0078288Y0093200D01*
X0061249Y0093200D01*
X0060812Y0093019D01*
X0059308Y0093019D01*
X0057918Y0093595D01*
X0056855Y0094658D01*
X0056279Y0096048D01*
X0056279Y0097552D01*
X0056855Y0098942D01*
X0056913Y0099000D01*
X0046998Y0099000D01*
X0046693Y0099126D01*
X0047434Y0098386D01*
X0047860Y0097357D01*
X0047860Y0090505D01*
X0049660Y0088705D01*
X0049660Y0084895D01*
X0047860Y0083095D01*
X0047860Y0059600D01*
X0064849Y0059600D01*
X0065035Y0059786D01*
X0065823Y0060574D01*
X0066852Y0061000D01*
X0077860Y0061000D01*
X0077860Y0062715D01*
X0078560Y0064406D01*
X0079854Y0065700D01*
X0081545Y0066400D01*
X0088575Y0066400D01*
X0090266Y0065700D01*
X0091560Y0064406D01*
X0092260Y0062715D01*
X0092260Y0060885D01*
X0091560Y0059194D01*
X0090266Y0057900D01*
X0088575Y0057200D01*
X0084420Y0057200D01*
X0083834Y0056614D01*
X0083620Y0056400D01*
X0088575Y0056400D01*
X0090266Y0055700D01*
X0091365Y0054600D01*
X0102513Y0054600D01*
X0102918Y0055005D01*
X0104308Y0055581D01*
X0105812Y0055581D01*
X0107202Y0055005D01*
X0108265Y0053942D01*
X0108317Y0053818D01*
X0108560Y0054406D01*
X0109854Y0055700D01*
X0111545Y0056400D01*
X0118575Y0056400D01*
X0120266Y0055700D01*
X0121365Y0054600D01*
X0167513Y0054600D01*
X0167918Y0055005D01*
X0169308Y0055581D01*
X0170812Y0055581D01*
X0172202Y0055005D01*
X0173265Y0053942D01*
X0173841Y0052552D01*
X0173841Y0051048D01*
X0173265Y0049658D01*
X0172202Y0048595D01*
X0170812Y0048019D01*
X0169308Y0048019D01*
X0167918Y0048595D01*
X0167513Y0049000D01*
X0121365Y0049000D01*
X0120266Y0047900D01*
X0118575Y0047200D01*
X0111545Y0047200D01*
X0109854Y0047900D01*
X0108560Y0049194D01*
X0108317Y0049782D01*
X0108265Y0049658D01*
X0107202Y0048595D01*
X0105812Y0048019D01*
X0104308Y0048019D01*
X0102918Y0048595D01*
X0102513Y0049000D01*
X0091365Y0049000D01*
X0090266Y0047900D01*
X0088575Y0047200D01*
X0081545Y0047200D01*
X0079854Y0047900D01*
X0078755Y0049000D01*
X0075443Y0049000D01*
X0074414Y0049426D01*
X0070640Y0053200D01*
X0069480Y0053200D01*
X0065706Y0049426D01*
X0064677Y0049000D01*
X0064082Y0049000D01*
X0064460Y0048623D01*
X0064460Y0046800D01*
X0060060Y0046800D01*
X0060060Y0046800D01*
X0064460Y0046800D01*
X0064460Y0044977D01*
X0061883Y0042400D01*
X0060060Y0042400D01*
X0060060Y0046800D01*
X0060060Y0046800D01*
X0060060Y0046800D01*
X0055660Y0046800D01*
X0055660Y0048623D01*
X0056037Y0049000D01*
X0049365Y0049000D01*
X0049660Y0048705D01*
X0049660Y0047098D01*
X0058208Y0041400D01*
X0061965Y0041400D01*
X0063102Y0040264D01*
X0078086Y0043261D01*
X0078560Y0044406D01*
X0079854Y0045700D01*
X0081545Y0046400D01*
X0088575Y0046400D01*
X0090266Y0045700D01*
X0091365Y0044600D01*
X0107077Y0044600D01*
X0108106Y0044174D01*
X0108359Y0043921D01*
X0108560Y0044406D01*
X0109854Y0045700D01*
X0111545Y0046400D01*
X0118575Y0046400D01*
X0120266Y0045700D01*
X0121365Y0044600D01*
X0177513Y0044600D01*
X0177918Y0045005D01*
X0179308Y0045581D01*
X0180812Y0045581D01*
X0182202Y0045005D01*
X0183265Y0043942D01*
X0183841Y0042552D01*
X0183841Y0041048D01*
X0183265Y0039658D01*
X0182202Y0038595D01*
X0180812Y0038019D01*
X0179308Y0038019D01*
X0177918Y0038595D01*
X0177513Y0039000D01*
X0133207Y0039000D01*
X0133265Y0038942D01*
X0133841Y0037552D01*
X0133841Y0036048D01*
X0133265Y0034658D01*
X0133207Y0034600D01*
X0187513Y0034600D01*
X0187918Y0035005D01*
X0189308Y0035581D01*
X0190812Y0035581D01*
X0192202Y0035005D01*
X0193265Y0033942D01*
X0193841Y0032552D01*
X0193841Y0031048D01*
X0193265Y0029658D01*
X0192202Y0028595D01*
X0190812Y0028019D01*
X0189308Y0028019D01*
X0187918Y0028595D01*
X0187513Y0029000D01*
X0121365Y0029000D01*
X0120266Y0027900D01*
X0118575Y0027200D01*
X0111545Y0027200D01*
X0109854Y0027900D01*
X0108560Y0029194D01*
X0107860Y0030885D01*
X0107860Y0032715D01*
X0108560Y0034406D01*
X0109309Y0035154D01*
X0109134Y0035226D01*
X0108347Y0036014D01*
X0105360Y0039000D01*
X0091365Y0039000D01*
X0090266Y0037900D01*
X0088575Y0037200D01*
X0081545Y0037200D01*
X0079854Y0037900D01*
X0079852Y0037903D01*
X0064622Y0034857D01*
X0064365Y0034600D01*
X0067513Y0034600D01*
X0067918Y0035005D01*
X0069308Y0035581D01*
X0070812Y0035581D01*
X0072202Y0035005D01*
X0073265Y0033942D01*
X0073841Y0032552D01*
X0073841Y0031048D01*
X0073265Y0029658D01*
X0073207Y0029600D01*
X0074534Y0029600D01*
X0074563Y0029611D01*
X0075090Y0029600D01*
X0075617Y0029600D01*
X0075646Y0029588D01*
X0077462Y0029549D01*
X0077813Y0029900D01*
X0078201Y0030061D01*
X0077860Y0030885D01*
X0077860Y0032715D01*
X0078560Y0034406D01*
X0079854Y0035700D01*
X0081545Y0036400D01*
X0088575Y0036400D01*
X0090266Y0035700D01*
X0091365Y0034600D01*
X0097513Y0034600D01*
X0097918Y0035005D01*
X0099308Y0035581D01*
X0100812Y0035581D01*
X0102202Y0035005D01*
X0103265Y0033942D01*
X0103841Y0032552D01*
X0103841Y0031048D01*
X0103265Y0029658D01*
X0102202Y0028595D01*
X0100812Y0028019D01*
X0099308Y0028019D01*
X0097918Y0028595D01*
X0097513Y0029000D01*
X0091365Y0029000D01*
X0090266Y0027900D01*
X0088575Y0027200D01*
X0083736Y0027200D01*
X0083736Y0025943D01*
X0083160Y0024553D01*
X0082097Y0023490D01*
X0080707Y0022914D01*
X0079203Y0022914D01*
X0077813Y0023490D01*
X0077352Y0023950D01*
X0075030Y0024000D01*
X0021220Y0024000D01*
X0015582Y0018363D01*
X0015760Y0017934D01*
X0015760Y0015666D01*
X0014892Y0013571D01*
X0013289Y0011968D01*
X0011194Y0011100D01*
X0008926Y0011100D01*
X0007060Y0011873D01*
X0007060Y0003800D01*
X0199910Y0003800D01*
X0199910Y0062080D01*
X0199171Y0061703D01*
X0198348Y0061435D01*
X0197493Y0061300D01*
X0197260Y0061300D01*
X0197260Y0066600D01*
X0196860Y0066600D01*
X0196860Y0061300D01*
X0196627Y0061300D01*
X0195772Y0061435D01*
X0194949Y0061703D01*
X0194177Y0062096D01*
X0193477Y0062605D01*
X0192865Y0063217D01*
X0192356Y0063917D01*
X0191963Y0064689D01*
X0191695Y0065512D01*
X0191560Y0066367D01*
X0191560Y0066600D01*
X0196860Y0066600D01*
X0196860Y0067000D01*
X0191560Y0067000D01*
X0191560Y0067233D01*
X0191695Y0068088D01*
X0191963Y0068911D01*
X0192356Y0069683D01*
X0192865Y0070383D01*
X0193477Y0070995D01*
X0194177Y0071504D01*
X0194524Y0071681D01*
X0193831Y0071968D01*
X0192228Y0073571D01*
X0192050Y0074000D01*
X0157607Y0074000D01*
X0157202Y0073595D01*
X0155812Y0073019D01*
X0154308Y0073019D01*
X0152918Y0073595D01*
X0151855Y0074658D01*
X0151279Y0076048D01*
X0151279Y0077552D01*
X0151855Y0078942D01*
X0152918Y0080005D01*
X0154308Y0080581D01*
X0155812Y0080581D01*
X0157202Y0080005D01*
X0157607Y0079600D01*
X0192050Y0079600D01*
X0192228Y0080029D01*
X0193831Y0081632D01*
X0194236Y0081800D01*
X0193831Y0081968D01*
X0192228Y0083571D01*
X0191360Y0085666D01*
X0191360Y0087934D01*
X0192228Y0090029D01*
X0193831Y0091632D01*
X0194236Y0091800D01*
X0193831Y0091968D01*
X0192228Y0093571D01*
X0191360Y0095666D01*
X0191360Y0097934D01*
X0192228Y0100029D01*
X0193831Y0101632D01*
X0194236Y0101800D01*
X0193831Y0101968D01*
X0192228Y0103571D01*
X0191360Y0105666D01*
X0191360Y0107934D01*
X0192228Y0110029D01*
X0193831Y0111632D01*
X0194236Y0111800D01*
X0193831Y0111968D01*
X0192228Y0113571D01*
X0191360Y0115666D01*
X0191360Y0117430D01*
X0189163Y0119000D01*
X0121365Y0119000D01*
X0120266Y0117900D01*
X0118575Y0117200D01*
X0111545Y0117200D01*
X0109854Y0117900D01*
X0108560Y0119194D01*
X0107860Y0120885D01*
X0107860Y0122715D01*
X0108560Y0124406D01*
X0109854Y0125700D01*
X0111545Y0126400D01*
X0118575Y0126400D01*
X0120266Y0125700D01*
X0121365Y0124600D01*
X0189828Y0124600D01*
X0190149Y0124653D01*
X0190380Y0124600D01*
X0190617Y0124600D01*
X0190917Y0124476D01*
X0191234Y0124402D01*
X0191427Y0124264D01*
X0191646Y0124174D01*
X0191876Y0123944D01*
X0192156Y0123743D01*
X0191360Y0125666D01*
X0191360Y0127430D01*
X0189163Y0129000D01*
X0121365Y0129000D01*
X0120266Y0127900D01*
X0118575Y0127200D01*
X0111545Y0127200D01*
X0109854Y0127900D01*
X0108560Y0129194D01*
X0107860Y0130885D01*
X0107860Y0132715D01*
X0108560Y0134406D01*
X0109854Y0135700D01*
X0111545Y0136400D01*
X0118575Y0136400D01*
X0120266Y0135700D01*
X0121365Y0134600D01*
X0189828Y0134600D01*
X0190149Y0134653D01*
X0190380Y0134600D01*
X0190617Y0134600D01*
X0190917Y0134476D01*
X0191234Y0134402D01*
X0191427Y0134264D01*
X0191646Y0134174D01*
X0191876Y0133944D01*
X0192156Y0133743D01*
X0191360Y0135666D01*
X0191360Y0137430D01*
X0189163Y0139000D01*
X0121365Y0139000D01*
X0120266Y0137900D01*
X0118575Y0137200D01*
X0111545Y0137200D01*
X0109854Y0137900D01*
X0108560Y0139194D01*
X0107860Y0140885D01*
X0107860Y0142715D01*
X0108560Y0144406D01*
X0109854Y0145700D01*
X0111545Y0146400D01*
X0118575Y0146400D01*
X0120266Y0145700D01*
X0121365Y0144600D01*
X0189828Y0144600D01*
X0190149Y0144653D01*
X0190380Y0144600D01*
X0190617Y0144600D01*
X0190917Y0144476D01*
X0191234Y0144402D01*
X0191427Y0144264D01*
X0191646Y0144174D01*
X0191876Y0143944D01*
X0194642Y0141968D01*
X0195926Y0142500D01*
X0198194Y0142500D01*
X0199910Y0141789D01*
X0199910Y0196650D01*
X0025342Y0196650D01*
X0026512Y0195481D01*
X0027670Y0192684D01*
X0027670Y0189656D01*
X0027670Y0190424D02*
X0045910Y0190424D01*
X0044343Y0187227D02*
X0042127Y0187227D01*
X0044043Y0185629D02*
X0044419Y0185629D01*
X0041438Y0181800D02*
X0040139Y0183099D01*
X0041438Y0181800D02*
X0065060Y0181800D01*
X0065060Y0186800D01*
X0067905Y0190424D02*
X0070089Y0190424D01*
X0072934Y0186800D02*
X0074347Y0181800D01*
X0078916Y0177231D01*
X0082700Y0177231D01*
X0087269Y0181800D01*
X0095060Y0186800D01*
X0120060Y0189300D01*
X0124660Y0188826D02*
X0141812Y0188826D01*
X0140660Y0189977D02*
X0143237Y0187400D01*
X0145060Y0187400D01*
X0146883Y0187400D01*
X0149460Y0189977D01*
X0149460Y0191800D01*
X0149460Y0193623D01*
X0146883Y0196200D01*
X0145060Y0196200D01*
X0145060Y0191800D01*
X0149460Y0191800D01*
X0145060Y0191800D01*
X0145060Y0191800D01*
X0145060Y0191800D01*
X0145060Y0187400D01*
X0145060Y0191800D01*
X0145060Y0191800D01*
X0145060Y0191800D01*
X0140660Y0191800D01*
X0140660Y0193623D01*
X0143237Y0196200D01*
X0145060Y0196200D01*
X0145060Y0191800D01*
X0140660Y0191800D01*
X0140660Y0189977D01*
X0140660Y0190424D02*
X0124660Y0190424D01*
X0123843Y0192023D02*
X0140660Y0192023D01*
X0140660Y0193621D02*
X0122244Y0193621D01*
X0117876Y0193621D02*
X0027282Y0193621D01*
X0027670Y0192023D02*
X0116277Y0192023D01*
X0112383Y0185629D02*
X0111488Y0185629D01*
X0110785Y0184030D02*
X0098796Y0184030D01*
X0097197Y0182432D02*
X0110460Y0182432D01*
X0110460Y0180833D02*
X0097249Y0180833D01*
X0096883Y0181200D02*
X0095060Y0181200D01*
X0095060Y0176800D01*
X0090060Y0171800D01*
X0085060Y0171800D01*
X0084988Y0171872D01*
X0055132Y0171872D01*
X0053523Y0171242D02*
X0116651Y0171242D01*
X0115851Y0169644D02*
X0097564Y0169644D01*
X0098637Y0168045D02*
X0115052Y0168045D01*
X0114253Y0166447D02*
X0098841Y0166447D01*
X0098344Y0164848D02*
X0109003Y0164848D01*
X0108081Y0163250D02*
X0096369Y0163250D01*
X0093751Y0163250D02*
X0092039Y0163250D01*
X0092260Y0161651D02*
X0107860Y0161651D01*
X0108205Y0160053D02*
X0091915Y0160053D01*
X0090819Y0158454D02*
X0109300Y0158454D01*
X0110771Y0155878D02*
X0110154Y0155563D01*
X0109594Y0155156D01*
X0109104Y0154666D01*
X0108697Y0154106D01*
X0108382Y0153489D01*
X0108168Y0152830D01*
X0108060Y0152146D01*
X0108060Y0151800D01*
X0115060Y0151800D01*
X0122060Y0151800D01*
X0122060Y0152146D01*
X0121952Y0152830D01*
X0121738Y0153489D01*
X0121423Y0154106D01*
X0121016Y0154666D01*
X0120526Y0155156D01*
X0119966Y0155563D01*
X0119349Y0155878D01*
X0118690Y0156092D01*
X0118006Y0156200D01*
X0115060Y0156200D01*
X0115060Y0151800D01*
X0115060Y0151800D01*
X0115060Y0151800D01*
X0122060Y0151800D01*
X0122060Y0151454D01*
X0121952Y0150770D01*
X0121738Y0150111D01*
X0121423Y0149494D01*
X0121016Y0148934D01*
X0120526Y0148444D01*
X0119966Y0148037D01*
X0119349Y0147722D01*
X0118690Y0147508D01*
X0118006Y0147400D01*
X0115060Y0147400D01*
X0115060Y0151800D01*
X0115060Y0151800D01*
X0115060Y0151800D01*
X0115060Y0156200D01*
X0112114Y0156200D01*
X0111430Y0156092D01*
X0110771Y0155878D01*
X0109733Y0155257D02*
X0090708Y0155257D01*
X0091869Y0153659D02*
X0108469Y0153659D01*
X0108060Y0152060D02*
X0092260Y0152060D01*
X0092085Y0150462D02*
X0108268Y0150462D01*
X0108168Y0150770D02*
X0108382Y0150111D01*
X0108697Y0149494D01*
X0109104Y0148934D01*
X0109594Y0148444D01*
X0110154Y0148037D01*
X0110771Y0147722D01*
X0111430Y0147508D01*
X0112114Y0147400D01*
X0115060Y0147400D01*
X0115060Y0151800D01*
X0108060Y0151800D01*
X0108060Y0151454D01*
X0108168Y0150770D01*
X0109174Y0148863D02*
X0091228Y0148863D01*
X0088731Y0147265D02*
X0193090Y0147265D01*
X0193155Y0147200D02*
X0196965Y0147200D01*
X0199660Y0149895D01*
X0199660Y0153705D01*
X0196965Y0156400D01*
X0193155Y0156400D01*
X0190460Y0153705D01*
X0190460Y0149895D01*
X0193155Y0147200D01*
X0191492Y0148863D02*
X0158346Y0148863D01*
X0159460Y0149977D02*
X0159460Y0151800D01*
X0159460Y0153623D01*
X0156883Y0156200D01*
X0155060Y0156200D01*
X0155060Y0151800D01*
X0159460Y0151800D01*
X0155060Y0151800D01*
X0155060Y0151800D01*
X0155060Y0151800D01*
X0155060Y0147400D01*
X0156883Y0147400D01*
X0159460Y0149977D01*
X0159460Y0150462D02*
X0190460Y0150462D01*
X0190460Y0152060D02*
X0159460Y0152060D01*
X0159424Y0153659D02*
X0190460Y0153659D01*
X0192012Y0155257D02*
X0157825Y0155257D01*
X0155060Y0155257D02*
X0155060Y0155257D01*
X0155060Y0156200D02*
X0155060Y0151800D01*
X0155060Y0151800D01*
X0155060Y0151800D01*
X0150660Y0151800D01*
X0150660Y0153623D01*
X0153237Y0156200D01*
X0155060Y0156200D01*
X0155060Y0153659D02*
X0155060Y0153659D01*
X0155060Y0152060D02*
X0155060Y0152060D01*
X0155060Y0151800D02*
X0150660Y0151800D01*
X0150660Y0149977D01*
X0153237Y0147400D01*
X0155060Y0147400D01*
X0155060Y0151800D01*
X0155060Y0150462D02*
X0155060Y0150462D01*
X0155060Y0148863D02*
X0155060Y0148863D01*
X0151774Y0148863D02*
X0120946Y0148863D01*
X0121852Y0150462D02*
X0150660Y0150462D01*
X0150660Y0152060D02*
X0122060Y0152060D01*
X0121651Y0153659D02*
X0150696Y0153659D01*
X0152295Y0155257D02*
X0120387Y0155257D01*
X0120819Y0158454D02*
X0142183Y0158454D01*
X0143237Y0157400D02*
X0140660Y0159977D01*
X0140660Y0161800D01*
X0145060Y0161800D01*
X0149460Y0161800D01*
X0149460Y0163623D01*
X0146883Y0166200D01*
X0145060Y0166200D01*
X0145060Y0161800D01*
X0145060Y0161800D01*
X0145060Y0161800D01*
X0149460Y0161800D01*
X0149460Y0159977D01*
X0146883Y0157400D01*
X0145060Y0157400D01*
X0145060Y0161800D01*
X0145060Y0161800D01*
X0145060Y0161800D01*
X0145060Y0166200D01*
X0143237Y0166200D01*
X0140660Y0163623D01*
X0140660Y0161800D01*
X0145060Y0161800D01*
X0145060Y0157400D01*
X0143237Y0157400D01*
X0145060Y0158454D02*
X0145060Y0158454D01*
X0145060Y0160053D02*
X0145060Y0160053D01*
X0145060Y0161651D02*
X0145060Y0161651D01*
X0145060Y0163250D02*
X0145060Y0163250D01*
X0145060Y0164848D02*
X0145060Y0164848D01*
X0143155Y0167200D02*
X0146965Y0167200D01*
X0149660Y0169895D01*
X0149660Y0173705D01*
X0146965Y0176400D01*
X0143155Y0176400D01*
X0140460Y0173705D01*
X0140460Y0169895D01*
X0143155Y0167200D01*
X0142309Y0168045D02*
X0121313Y0168045D01*
X0120514Y0166447D02*
X0165660Y0166447D01*
X0165660Y0166800D02*
X0165660Y0164977D01*
X0168237Y0162400D01*
X0170060Y0162400D01*
X0171883Y0162400D01*
X0174460Y0164977D01*
X0174460Y0166800D01*
X0174460Y0168623D01*
X0171883Y0171200D01*
X0170060Y0171200D01*
X0170060Y0166800D01*
X0174460Y0166800D01*
X0170060Y0166800D01*
X0170060Y0166800D01*
X0170060Y0166800D01*
X0170060Y0162400D01*
X0170060Y0166800D01*
X0170060Y0166800D01*
X0170060Y0166800D01*
X0165660Y0166800D01*
X0165660Y0168623D01*
X0168237Y0171200D01*
X0170060Y0171200D01*
X0170060Y0166800D01*
X0165660Y0166800D01*
X0165660Y0168045D02*
X0147811Y0168045D01*
X0149409Y0169644D02*
X0166681Y0169644D01*
X0170060Y0169644D02*
X0170060Y0169644D01*
X0170060Y0168045D02*
X0170060Y0168045D01*
X0170060Y0166447D02*
X0170060Y0166447D01*
X0170060Y0164848D02*
X0170060Y0164848D01*
X0170060Y0163250D02*
X0170060Y0163250D01*
X0172732Y0163250D02*
X0199910Y0163250D01*
X0199910Y0164848D02*
X0174331Y0164848D01*
X0174460Y0166447D02*
X0199910Y0166447D01*
X0199910Y0168045D02*
X0174460Y0168045D01*
X0173439Y0169644D02*
X0199910Y0169644D01*
X0199910Y0171242D02*
X0149660Y0171242D01*
X0149660Y0172841D02*
X0199910Y0172841D01*
X0199910Y0174439D02*
X0148926Y0174439D01*
X0147328Y0176038D02*
X0199910Y0176038D01*
X0199910Y0177636D02*
X0147402Y0177636D01*
X0149000Y0179235D02*
X0199910Y0179235D01*
X0199910Y0180833D02*
X0154504Y0180833D01*
X0149927Y0185629D02*
X0147737Y0185629D01*
X0148308Y0188826D02*
X0165912Y0188826D01*
X0167179Y0190424D02*
X0149460Y0190424D01*
X0149460Y0192023D02*
X0199910Y0192023D01*
X0199910Y0193621D02*
X0149460Y0193621D01*
X0147863Y0195220D02*
X0199910Y0195220D01*
X0199910Y0190424D02*
X0197941Y0190424D01*
X0196965Y0191400D02*
X0199660Y0188705D01*
X0199660Y0184895D01*
X0196965Y0182200D01*
X0193155Y0182200D01*
X0190460Y0184895D01*
X0190460Y0188705D01*
X0193155Y0191400D01*
X0196965Y0191400D01*
X0199540Y0188826D02*
X0199910Y0188826D01*
X0199910Y0187227D02*
X0199660Y0187227D01*
X0199660Y0185629D02*
X0199910Y0185629D01*
X0199910Y0184030D02*
X0198796Y0184030D01*
X0199910Y0182432D02*
X0197197Y0182432D01*
X0192923Y0182432D02*
X0187197Y0182432D01*
X0188796Y0184030D02*
X0191324Y0184030D01*
X0190460Y0185629D02*
X0189660Y0185629D01*
X0189660Y0187227D02*
X0190460Y0187227D01*
X0190580Y0188826D02*
X0189540Y0188826D01*
X0187941Y0190424D02*
X0192179Y0190424D01*
X0185060Y0186800D02*
X0170060Y0186800D01*
X0145060Y0181800D01*
X0125060Y0181800D01*
X0115060Y0161800D01*
X0121117Y0164848D02*
X0141886Y0164848D01*
X0140660Y0163250D02*
X0122039Y0163250D01*
X0122260Y0161651D02*
X0140660Y0161651D01*
X0140660Y0160053D02*
X0121915Y0160053D01*
X0115060Y0155257D02*
X0115060Y0155257D01*
X0115060Y0153659D02*
X0115060Y0153659D01*
X0115060Y0152060D02*
X0115060Y0152060D01*
X0115060Y0150462D02*
X0115060Y0150462D01*
X0115060Y0148863D02*
X0115060Y0148863D01*
X0120299Y0145666D02*
X0199910Y0145666D01*
X0199910Y0144068D02*
X0191752Y0144068D01*
X0193941Y0142469D02*
X0195851Y0142469D01*
X0198269Y0142469D02*
X0199910Y0142469D01*
X0199910Y0147265D02*
X0197030Y0147265D01*
X0198628Y0148863D02*
X0199910Y0148863D01*
X0199910Y0150462D02*
X0199660Y0150462D01*
X0199660Y0152060D02*
X0199910Y0152060D01*
X0199910Y0153659D02*
X0199660Y0153659D01*
X0199910Y0155257D02*
X0198108Y0155257D01*
X0199910Y0156856D02*
X0084075Y0156856D01*
X0080060Y0156800D02*
X0085060Y0161800D01*
X0080060Y0156800D02*
X0030060Y0156800D01*
X0026279Y0156856D02*
X0025248Y0156856D01*
X0024371Y0155978D02*
X0026512Y0158119D01*
X0027670Y0160916D01*
X0027670Y0163944D01*
X0026512Y0166741D01*
X0024371Y0168882D01*
X0021574Y0170040D01*
X0018546Y0170040D01*
X0015749Y0168882D01*
X0013608Y0166741D01*
X0012450Y0163944D01*
X0012450Y0160916D01*
X0013608Y0158119D01*
X0015749Y0155978D01*
X0018546Y0154820D01*
X0021574Y0154820D01*
X0024371Y0155978D01*
X0022630Y0155257D02*
X0026606Y0155257D01*
X0026650Y0158454D02*
X0026653Y0158454D01*
X0027313Y0160053D02*
X0028032Y0160053D01*
X0027670Y0161651D02*
X0077860Y0161651D01*
X0078081Y0163250D02*
X0027670Y0163250D01*
X0027296Y0164848D02*
X0053019Y0164848D01*
X0055139Y0166800D02*
X0040139Y0176800D01*
X0044714Y0177636D02*
X0074551Y0177636D01*
X0076150Y0176038D02*
X0046330Y0176038D01*
X0048728Y0174439D02*
X0078340Y0174439D01*
X0072953Y0179235D02*
X0066184Y0179235D01*
X0067690Y0180833D02*
X0071711Y0180833D01*
X0071259Y0182432D02*
X0067860Y0182432D01*
X0068760Y0184030D02*
X0069234Y0184030D01*
X0075779Y0190424D02*
X0077406Y0190424D01*
X0084210Y0190424D02*
X0092179Y0190424D01*
X0090580Y0188826D02*
X0085347Y0188826D01*
X0085777Y0187227D02*
X0090460Y0187227D01*
X0088051Y0185629D02*
X0085701Y0185629D01*
X0085539Y0184030D02*
X0085039Y0184030D01*
X0083941Y0182432D02*
X0083246Y0182432D01*
X0082342Y0180833D02*
X0079274Y0180833D01*
X0078371Y0182432D02*
X0077675Y0182432D01*
X0083276Y0174439D02*
X0091198Y0174439D01*
X0090660Y0174977D02*
X0093237Y0172400D01*
X0095060Y0172400D01*
X0096883Y0172400D01*
X0099460Y0174977D01*
X0099460Y0176800D01*
X0099460Y0178623D01*
X0096883Y0181200D01*
X0095060Y0181200D02*
X0093237Y0181200D01*
X0090660Y0178623D01*
X0090660Y0176800D01*
X0095060Y0176800D01*
X0099460Y0176800D01*
X0095060Y0176800D01*
X0095060Y0176800D01*
X0095060Y0176800D01*
X0095060Y0172400D01*
X0095060Y0176800D01*
X0095060Y0176800D01*
X0095060Y0176800D01*
X0095060Y0181200D01*
X0095060Y0180833D02*
X0095060Y0180833D01*
X0095060Y0179235D02*
X0095060Y0179235D01*
X0095060Y0177636D02*
X0095060Y0177636D01*
X0095060Y0176800D02*
X0090660Y0176800D01*
X0090660Y0174977D01*
X0090660Y0176038D02*
X0085466Y0176038D01*
X0087065Y0177636D02*
X0090660Y0177636D01*
X0091272Y0179235D02*
X0088663Y0179235D01*
X0090947Y0180833D02*
X0092871Y0180833D01*
X0095060Y0176038D02*
X0095060Y0176038D01*
X0095060Y0174439D02*
X0095060Y0174439D01*
X0095060Y0172841D02*
X0095060Y0172841D01*
X0097323Y0172841D02*
X0117450Y0172841D01*
X0118249Y0174439D02*
X0098922Y0174439D01*
X0099460Y0176038D02*
X0119048Y0176038D01*
X0119848Y0177636D02*
X0117402Y0177636D01*
X0119000Y0179235D02*
X0120647Y0179235D01*
X0120460Y0180833D02*
X0119660Y0180833D01*
X0119660Y0182432D02*
X0120460Y0182432D01*
X0120785Y0184030D02*
X0119335Y0184030D01*
X0124493Y0187227D02*
X0157919Y0187227D01*
X0162496Y0182432D02*
X0168585Y0182432D01*
X0171535Y0182432D02*
X0182923Y0182432D01*
X0182179Y0190424D02*
X0172941Y0190424D01*
X0165789Y0164848D02*
X0148234Y0164848D01*
X0149460Y0163250D02*
X0167388Y0163250D01*
X0149460Y0161651D02*
X0199910Y0161651D01*
X0199910Y0160053D02*
X0149460Y0160053D01*
X0147937Y0158454D02*
X0199910Y0158454D01*
X0190060Y0141800D02*
X0197060Y0136800D01*
X0191853Y0134476D02*
X0190915Y0134476D01*
X0191360Y0136075D02*
X0119360Y0136075D01*
X0119718Y0137673D02*
X0191020Y0137673D01*
X0190060Y0141800D02*
X0115060Y0141800D01*
X0110402Y0137673D02*
X0103791Y0137673D01*
X0103841Y0136075D02*
X0110760Y0136075D01*
X0108631Y0134476D02*
X0103084Y0134476D01*
X0100060Y0136800D02*
X0040060Y0136800D01*
X0037036Y0134476D02*
X0018543Y0134476D01*
X0017593Y0132878D02*
X0077927Y0132878D01*
X0077860Y0131279D02*
X0016411Y0131279D01*
X0015346Y0129681D02*
X0078359Y0129681D01*
X0079672Y0128082D02*
X0015698Y0128082D01*
X0015760Y0126484D02*
X0191360Y0126484D01*
X0191683Y0124885D02*
X0121080Y0124885D01*
X0120448Y0128082D02*
X0190447Y0128082D01*
X0190060Y0131800D02*
X0197060Y0126800D01*
X0190060Y0121800D02*
X0197060Y0116800D01*
X0191360Y0116893D02*
X0015760Y0116893D01*
X0015606Y0115294D02*
X0079449Y0115294D01*
X0079854Y0117900D02*
X0081545Y0117200D01*
X0088575Y0117200D01*
X0090266Y0117900D01*
X0091560Y0119194D01*
X0092260Y0120885D01*
X0092260Y0122715D01*
X0091560Y0124406D01*
X0090266Y0125700D01*
X0088575Y0126400D01*
X0081545Y0126400D01*
X0079854Y0125700D01*
X0078560Y0124406D01*
X0077860Y0122715D01*
X0077860Y0120885D01*
X0078560Y0119194D01*
X0079854Y0117900D01*
X0079263Y0118491D02*
X0015529Y0118491D01*
X0014831Y0120090D02*
X0078189Y0120090D01*
X0077860Y0121688D02*
X0013153Y0121688D01*
X0014608Y0123287D02*
X0078097Y0123287D01*
X0079040Y0124885D02*
X0015437Y0124885D01*
X0010060Y0126800D02*
X0015069Y0134314D01*
X0015360Y0134605D01*
X0015360Y0134750D01*
X0020060Y0141800D01*
X0085060Y0141800D01*
X0090299Y0145666D02*
X0109821Y0145666D01*
X0108420Y0144068D02*
X0091700Y0144068D01*
X0092260Y0142469D02*
X0107860Y0142469D01*
X0107866Y0140870D02*
X0092254Y0140870D01*
X0092192Y0132878D02*
X0107927Y0132878D01*
X0107860Y0131279D02*
X0092260Y0131279D01*
X0091761Y0129681D02*
X0108359Y0129681D01*
X0109672Y0128082D02*
X0090448Y0128082D01*
X0091080Y0124885D02*
X0109040Y0124885D01*
X0108097Y0123287D02*
X0092023Y0123287D01*
X0092260Y0121688D02*
X0107860Y0121688D01*
X0108189Y0120090D02*
X0091931Y0120090D01*
X0090857Y0118491D02*
X0109263Y0118491D01*
X0109854Y0115700D02*
X0108560Y0114406D01*
X0107860Y0112715D01*
X0107860Y0110885D01*
X0108560Y0109194D01*
X0109854Y0107900D01*
X0111545Y0107200D01*
X0118575Y0107200D01*
X0120266Y0107900D01*
X0121560Y0109194D01*
X0122260Y0110885D01*
X0122260Y0112715D01*
X0121560Y0114406D01*
X0120266Y0115700D01*
X0118575Y0116400D01*
X0111545Y0116400D01*
X0109854Y0115700D01*
X0109449Y0115294D02*
X0090671Y0115294D01*
X0091854Y0113696D02*
X0108266Y0113696D01*
X0107860Y0112097D02*
X0092260Y0112097D01*
X0092100Y0110499D02*
X0108020Y0110499D01*
X0108854Y0108900D02*
X0091266Y0108900D01*
X0088821Y0107302D02*
X0111299Y0107302D01*
X0109863Y0105703D02*
X0090257Y0105703D01*
X0091684Y0104105D02*
X0092017Y0104105D01*
X0095060Y0101800D02*
X0115060Y0101800D01*
X0119808Y0097711D02*
X0191360Y0097711D01*
X0191360Y0096112D02*
X0119270Y0096112D01*
X0121452Y0094514D02*
X0191837Y0094514D01*
X0192884Y0092915D02*
X0122177Y0092915D01*
X0122260Y0091317D02*
X0193516Y0091317D01*
X0192099Y0089718D02*
X0121777Y0089718D01*
X0120485Y0088120D02*
X0191437Y0088120D01*
X0191360Y0086521D02*
X0079751Y0086521D01*
X0080907Y0086136D02*
X0075760Y0087851D01*
X0075760Y0087934D01*
X0074892Y0090029D01*
X0073289Y0091632D01*
X0071194Y0092500D01*
X0068926Y0092500D01*
X0066831Y0091632D01*
X0065228Y0090029D01*
X0064360Y0087934D01*
X0064360Y0085666D01*
X0065228Y0083571D01*
X0066831Y0081968D01*
X0067524Y0081681D01*
X0067177Y0081504D01*
X0066477Y0080995D01*
X0065865Y0080383D01*
X0065356Y0079683D01*
X0064963Y0078911D01*
X0064695Y0078088D01*
X0064560Y0077233D01*
X0064560Y0077000D01*
X0069860Y0077000D01*
X0069860Y0076600D01*
X0064560Y0076600D01*
X0064560Y0076367D01*
X0064695Y0075512D01*
X0064963Y0074689D01*
X0065356Y0073917D01*
X0065865Y0073217D01*
X0066477Y0072605D01*
X0067177Y0072096D01*
X0067524Y0071919D01*
X0066831Y0071632D01*
X0065228Y0070029D01*
X0064360Y0067934D01*
X0064360Y0065666D01*
X0065228Y0063571D01*
X0066831Y0061968D01*
X0068926Y0061100D01*
X0071194Y0061100D01*
X0073289Y0061968D01*
X0074892Y0063571D01*
X0075760Y0065666D01*
X0075760Y0065749D01*
X0080907Y0067464D01*
X0081545Y0067200D01*
X0088575Y0067200D01*
X0090266Y0067900D01*
X0091560Y0069194D01*
X0092260Y0070885D01*
X0092260Y0072715D01*
X0091560Y0074406D01*
X0090266Y0075700D01*
X0088575Y0076400D01*
X0081545Y0076400D01*
X0079854Y0075700D01*
X0078560Y0074406D01*
X0077860Y0072715D01*
X0077860Y0072351D01*
X0073892Y0071029D01*
X0073289Y0071632D01*
X0072596Y0071919D01*
X0072943Y0072096D01*
X0073643Y0072605D01*
X0074255Y0073217D01*
X0074764Y0073917D01*
X0075157Y0074689D01*
X0075425Y0075512D01*
X0075560Y0076367D01*
X0075560Y0076600D01*
X0070260Y0076600D01*
X0070260Y0077000D01*
X0075560Y0077000D01*
X0075560Y0077233D01*
X0075425Y0078088D01*
X0075157Y0078911D01*
X0074764Y0079683D01*
X0074255Y0080383D01*
X0073643Y0080995D01*
X0072943Y0081504D01*
X0072596Y0081681D01*
X0073289Y0081968D01*
X0073892Y0082571D01*
X0077860Y0081249D01*
X0077860Y0080885D01*
X0078560Y0079194D01*
X0079854Y0077900D01*
X0081545Y0077200D01*
X0088575Y0077200D01*
X0090266Y0077900D01*
X0091560Y0079194D01*
X0092260Y0080885D01*
X0092260Y0082715D01*
X0091560Y0084406D01*
X0090266Y0085700D01*
X0088575Y0086400D01*
X0081545Y0086400D01*
X0080907Y0086136D01*
X0081430Y0087508D02*
X0082114Y0087400D01*
X0085060Y0087400D01*
X0085060Y0091800D01*
X0078060Y0091800D01*
X0078060Y0091454D01*
X0078168Y0090770D01*
X0078382Y0090111D01*
X0078697Y0089494D01*
X0079104Y0088934D01*
X0079594Y0088444D01*
X0080154Y0088037D01*
X0080771Y0087722D01*
X0081430Y0087508D01*
X0080040Y0088120D02*
X0075683Y0088120D01*
X0075021Y0089718D02*
X0078583Y0089718D01*
X0078082Y0091317D02*
X0073604Y0091317D01*
X0078196Y0092915D02*
X0047860Y0092915D01*
X0047860Y0091317D02*
X0066516Y0091317D01*
X0065099Y0089718D02*
X0048647Y0089718D01*
X0049660Y0088120D02*
X0064437Y0088120D01*
X0064360Y0086521D02*
X0049660Y0086521D01*
X0049660Y0084923D02*
X0064668Y0084923D01*
X0065475Y0083324D02*
X0048089Y0083324D01*
X0047860Y0081726D02*
X0067416Y0081726D01*
X0065679Y0080127D02*
X0047860Y0080127D01*
X0047860Y0078529D02*
X0064839Y0078529D01*
X0064754Y0075332D02*
X0047860Y0075332D01*
X0047860Y0076930D02*
X0069860Y0076930D01*
X0070260Y0076930D02*
X0151279Y0076930D01*
X0151576Y0075332D02*
X0120285Y0075332D01*
X0120526Y0075156D02*
X0119966Y0075563D01*
X0119349Y0075878D01*
X0118690Y0076092D01*
X0118006Y0076200D01*
X0115060Y0076200D01*
X0115060Y0071800D01*
X0122060Y0071800D01*
X0122060Y0072146D01*
X0121952Y0072830D01*
X0121738Y0073489D01*
X0121423Y0074106D01*
X0121016Y0074666D01*
X0120526Y0075156D01*
X0121613Y0073733D02*
X0152780Y0073733D01*
X0155060Y0076800D02*
X0197060Y0076800D01*
X0194057Y0081726D02*
X0149460Y0081726D01*
X0149460Y0081800D02*
X0149460Y0079977D01*
X0146883Y0077400D01*
X0145060Y0077400D01*
X0145060Y0081800D01*
X0149460Y0081800D01*
X0149460Y0083623D01*
X0146883Y0086200D01*
X0145060Y0086200D01*
X0145060Y0081800D01*
X0145060Y0081800D01*
X0149460Y0081800D01*
X0149460Y0083324D02*
X0192475Y0083324D01*
X0191668Y0084923D02*
X0148160Y0084923D01*
X0145060Y0084923D02*
X0145060Y0084923D01*
X0145060Y0086200D02*
X0143237Y0086200D01*
X0140660Y0083623D01*
X0140660Y0081800D01*
X0145060Y0081800D01*
X0145060Y0081800D01*
X0145060Y0081800D01*
X0145060Y0081800D01*
X0145060Y0086200D01*
X0145060Y0083324D02*
X0145060Y0083324D01*
X0145060Y0081800D02*
X0140660Y0081800D01*
X0140660Y0079977D01*
X0143237Y0077400D01*
X0145060Y0077400D01*
X0145060Y0081800D01*
X0145060Y0081726D02*
X0145060Y0081726D01*
X0145060Y0080127D02*
X0145060Y0080127D01*
X0145060Y0078529D02*
X0145060Y0078529D01*
X0148011Y0078529D02*
X0151683Y0078529D01*
X0153212Y0080127D02*
X0149460Y0080127D01*
X0156908Y0080127D02*
X0192326Y0080127D01*
X0192161Y0073733D02*
X0157340Y0073733D01*
X0159308Y0065581D02*
X0157918Y0065005D01*
X0157513Y0064600D01*
X0121365Y0064600D01*
X0120266Y0065700D01*
X0118575Y0066400D01*
X0111545Y0066400D01*
X0109854Y0065700D01*
X0108560Y0064406D01*
X0107860Y0062715D01*
X0107860Y0060885D01*
X0108560Y0059194D01*
X0109854Y0057900D01*
X0111545Y0057200D01*
X0118575Y0057200D01*
X0120266Y0057900D01*
X0121365Y0059000D01*
X0157513Y0059000D01*
X0157918Y0058595D01*
X0159308Y0058019D01*
X0160812Y0058019D01*
X0162202Y0058595D01*
X0163265Y0059658D01*
X0163841Y0061048D01*
X0163841Y0062552D01*
X0163265Y0063942D01*
X0162202Y0065005D01*
X0160812Y0065581D01*
X0159308Y0065581D01*
X0160060Y0061800D02*
X0115060Y0061800D01*
X0115060Y0067400D02*
X0112114Y0067400D01*
X0111430Y0067508D01*
X0110771Y0067722D01*
X0110154Y0068037D01*
X0109594Y0068444D01*
X0109104Y0068934D01*
X0108697Y0069494D01*
X0108382Y0070111D01*
X0108168Y0070770D01*
X0108060Y0071454D01*
X0108060Y0071800D01*
X0115060Y0071800D01*
X0115060Y0071800D01*
X0115060Y0071800D01*
X0122060Y0071800D01*
X0122060Y0071454D01*
X0121952Y0070770D01*
X0121738Y0070111D01*
X0121423Y0069494D01*
X0121016Y0068934D01*
X0120526Y0068444D01*
X0119966Y0068037D01*
X0119349Y0067722D01*
X0118690Y0067508D01*
X0118006Y0067400D01*
X0115060Y0067400D01*
X0115060Y0071800D01*
X0115060Y0071800D01*
X0115060Y0071800D01*
X0115060Y0076200D01*
X0112114Y0076200D01*
X0111430Y0076092D01*
X0110771Y0075878D01*
X0110154Y0075563D01*
X0109594Y0075156D01*
X0109104Y0074666D01*
X0108697Y0074106D01*
X0108382Y0073489D01*
X0108168Y0072830D01*
X0108060Y0072146D01*
X0108060Y0071800D01*
X0115060Y0071800D01*
X0115060Y0067400D01*
X0115060Y0068937D02*
X0115060Y0068937D01*
X0115060Y0070536D02*
X0115060Y0070536D01*
X0115060Y0072134D02*
X0115060Y0072134D01*
X0115060Y0073733D02*
X0115060Y0073733D01*
X0115060Y0075332D02*
X0115060Y0075332D01*
X0118575Y0077200D02*
X0120266Y0077900D01*
X0121360Y0078995D01*
X0122454Y0077900D01*
X0124145Y0077200D01*
X0125975Y0077200D01*
X0127666Y0077900D01*
X0128960Y0079194D01*
X0129660Y0080885D01*
X0129660Y0082715D01*
X0128960Y0084406D01*
X0127666Y0085700D01*
X0125975Y0086400D01*
X0124145Y0086400D01*
X0122454Y0085700D01*
X0121360Y0084605D01*
X0120266Y0085700D01*
X0118575Y0086400D01*
X0111545Y0086400D01*
X0109854Y0085700D01*
X0108560Y0084406D01*
X0107860Y0082715D01*
X0107860Y0080885D01*
X0108560Y0079194D01*
X0109854Y0077900D01*
X0111545Y0077200D01*
X0118575Y0077200D01*
X0120894Y0078529D02*
X0121826Y0078529D01*
X0125060Y0081800D02*
X0115060Y0081800D01*
X0121043Y0084923D02*
X0121677Y0084923D01*
X0128443Y0084923D02*
X0141960Y0084923D01*
X0140660Y0083324D02*
X0129408Y0083324D01*
X0129660Y0081726D02*
X0140660Y0081726D01*
X0140660Y0080127D02*
X0129346Y0080127D01*
X0128294Y0078529D02*
X0142109Y0078529D01*
X0122060Y0072134D02*
X0193664Y0072134D01*
X0193018Y0070536D02*
X0121876Y0070536D01*
X0121019Y0068937D02*
X0191976Y0068937D01*
X0191577Y0067339D02*
X0088910Y0067339D01*
X0090167Y0065740D02*
X0109953Y0065740D01*
X0108451Y0064142D02*
X0091669Y0064142D01*
X0092260Y0062543D02*
X0107860Y0062543D01*
X0107860Y0060945D02*
X0092260Y0060945D01*
X0091623Y0059346D02*
X0108497Y0059346D01*
X0110222Y0057748D02*
X0089898Y0057748D01*
X0089180Y0056149D02*
X0110940Y0056149D01*
X0108705Y0054551D02*
X0107656Y0054551D01*
X0105060Y0051800D02*
X0085060Y0051800D01*
X0076000Y0051800D01*
X0071800Y0056000D01*
X0068320Y0056000D01*
X0064120Y0051800D01*
X0020060Y0051800D01*
X0025060Y0056800D02*
X0025060Y0081800D01*
X0030060Y0086800D01*
X0033647Y0089718D02*
X0041473Y0089718D01*
X0042260Y0090505D02*
X0040460Y0088705D01*
X0040460Y0084895D01*
X0042260Y0083095D01*
X0042260Y0056243D01*
X0042686Y0055214D01*
X0043300Y0054600D01*
X0028207Y0054600D01*
X0028265Y0054658D01*
X0028841Y0056048D01*
X0028841Y0057552D01*
X0028265Y0058942D01*
X0027860Y0059347D01*
X0027860Y0080640D01*
X0029420Y0082200D01*
X0031965Y0082200D01*
X0034660Y0084895D01*
X0034660Y0088705D01*
X0031965Y0091400D01*
X0028155Y0091400D01*
X0025460Y0088705D01*
X0025460Y0086160D01*
X0022686Y0083386D01*
X0022260Y0082357D01*
X0022260Y0059600D01*
X0015070Y0059600D01*
X0014892Y0060029D01*
X0013289Y0061632D01*
X0012596Y0061919D01*
X0012943Y0062096D01*
X0013643Y0062605D01*
X0014255Y0063217D01*
X0014764Y0063917D01*
X0015157Y0064689D01*
X0015425Y0065512D01*
X0015560Y0066367D01*
X0015560Y0066600D01*
X0010260Y0066600D01*
X0010260Y0067000D01*
X0015560Y0067000D01*
X0015560Y0067233D01*
X0015425Y0068088D01*
X0015157Y0068911D01*
X0014764Y0069683D01*
X0014255Y0070383D01*
X0013643Y0070995D01*
X0012943Y0071504D01*
X0012596Y0071681D01*
X0013289Y0071968D01*
X0014892Y0073571D01*
X0015760Y0075666D01*
X0015760Y0077934D01*
X0014892Y0080029D01*
X0013289Y0081632D01*
X0012884Y0081800D01*
X0013289Y0081968D01*
X0014892Y0083571D01*
X0015760Y0085666D01*
X0015760Y0087934D01*
X0014892Y0090029D01*
X0013289Y0091632D01*
X0012884Y0091800D01*
X0013289Y0091968D01*
X0014892Y0093571D01*
X0015070Y0094000D01*
X0042260Y0094000D01*
X0042260Y0090505D01*
X0042260Y0091317D02*
X0032049Y0091317D01*
X0034660Y0088120D02*
X0040460Y0088120D01*
X0040460Y0086521D02*
X0034660Y0086521D01*
X0034660Y0084923D02*
X0040460Y0084923D01*
X0042031Y0083324D02*
X0033089Y0083324D01*
X0028945Y0081726D02*
X0042260Y0081726D01*
X0042260Y0080127D02*
X0027860Y0080127D01*
X0027860Y0078529D02*
X0042260Y0078529D01*
X0042260Y0076930D02*
X0027860Y0076930D01*
X0027860Y0075332D02*
X0042260Y0075332D01*
X0042260Y0073733D02*
X0027860Y0073733D01*
X0027860Y0072134D02*
X0042260Y0072134D01*
X0042260Y0070536D02*
X0027860Y0070536D01*
X0027860Y0068937D02*
X0042260Y0068937D01*
X0042260Y0067339D02*
X0027860Y0067339D01*
X0027860Y0065740D02*
X0042260Y0065740D01*
X0042260Y0064142D02*
X0027860Y0064142D01*
X0027860Y0062543D02*
X0042260Y0062543D01*
X0042260Y0060945D02*
X0027860Y0060945D01*
X0027861Y0059346D02*
X0042260Y0059346D01*
X0042260Y0057748D02*
X0028760Y0057748D01*
X0028841Y0056149D02*
X0042299Y0056149D01*
X0045060Y0056800D02*
X0066009Y0056800D01*
X0067409Y0058200D01*
X0081460Y0058200D01*
X0085060Y0061800D01*
X0081209Y0067339D02*
X0080531Y0067339D01*
X0079953Y0065740D02*
X0075760Y0065740D01*
X0075129Y0064142D02*
X0078451Y0064142D01*
X0077860Y0062543D02*
X0073864Y0062543D01*
X0070060Y0066800D02*
X0085060Y0071800D01*
X0090634Y0075332D02*
X0109835Y0075332D01*
X0108507Y0073733D02*
X0091838Y0073733D01*
X0092260Y0072134D02*
X0108060Y0072134D01*
X0108244Y0070536D02*
X0092115Y0070536D01*
X0091303Y0068937D02*
X0109101Y0068937D01*
X0109226Y0078529D02*
X0090894Y0078529D01*
X0091946Y0080127D02*
X0108174Y0080127D01*
X0107860Y0081726D02*
X0092260Y0081726D01*
X0092008Y0083324D02*
X0108112Y0083324D01*
X0109077Y0084923D02*
X0091043Y0084923D01*
X0090080Y0088120D02*
X0109635Y0088120D01*
X0115060Y0091800D02*
X0093600Y0091800D01*
X0089400Y0096000D01*
X0060860Y0096000D01*
X0060060Y0096800D01*
X0056999Y0094514D02*
X0047860Y0094514D01*
X0047860Y0096112D02*
X0056279Y0096112D01*
X0056345Y0097711D02*
X0047713Y0097711D01*
X0045060Y0096800D02*
X0045060Y0086800D01*
X0045060Y0056800D01*
X0047860Y0060945D02*
X0066719Y0060945D01*
X0066256Y0062543D02*
X0047860Y0062543D01*
X0047860Y0064142D02*
X0064991Y0064142D01*
X0064360Y0065740D02*
X0047860Y0065740D01*
X0047860Y0067339D02*
X0064360Y0067339D01*
X0064776Y0068937D02*
X0047860Y0068937D01*
X0047860Y0070536D02*
X0065735Y0070536D01*
X0067124Y0072134D02*
X0047860Y0072134D01*
X0047860Y0073733D02*
X0065490Y0073733D01*
X0072996Y0072134D02*
X0077209Y0072134D01*
X0078282Y0073733D02*
X0074630Y0073733D01*
X0075366Y0075332D02*
X0079486Y0075332D01*
X0079226Y0078529D02*
X0075281Y0078529D01*
X0074441Y0080127D02*
X0078174Y0080127D01*
X0076429Y0081726D02*
X0072704Y0081726D01*
X0070060Y0086800D02*
X0085060Y0081800D01*
X0085060Y0088120D02*
X0085060Y0088120D01*
X0085060Y0089718D02*
X0085060Y0089718D01*
X0085060Y0091317D02*
X0085060Y0091317D01*
X0091537Y0089718D02*
X0091722Y0089718D01*
X0093247Y0096112D02*
X0110850Y0096112D01*
X0110312Y0097711D02*
X0091649Y0097711D01*
X0091607Y0099309D02*
X0092204Y0099309D01*
X0085060Y0101800D02*
X0047555Y0101800D01*
X0047255Y0102100D01*
X0042865Y0102100D01*
X0042565Y0101800D01*
X0020060Y0101800D01*
X0010060Y0106800D01*
X0015360Y0108900D02*
X0078854Y0108900D01*
X0081299Y0107302D02*
X0015760Y0107302D01*
X0018514Y0105703D02*
X0079863Y0105703D01*
X0085060Y0111800D02*
X0015060Y0111800D01*
X0010060Y0116800D01*
X0010060Y0136800D02*
X0015060Y0151800D01*
X0085060Y0151800D01*
X0081389Y0147265D02*
X0016500Y0147265D01*
X0017032Y0148863D02*
X0078892Y0148863D01*
X0079821Y0145666D02*
X0015967Y0145666D01*
X0015434Y0144068D02*
X0018368Y0144068D01*
X0017141Y0142469D02*
X0014901Y0142469D01*
X0014368Y0140870D02*
X0016075Y0140870D01*
X0020674Y0137673D02*
X0036329Y0137673D01*
X0036279Y0136075D02*
X0019608Y0136075D01*
X0008851Y0142469D02*
X0007060Y0142469D01*
X0007060Y0144068D02*
X0009531Y0144068D01*
X0010064Y0145666D02*
X0007060Y0145666D01*
X0007060Y0147265D02*
X0010597Y0147265D01*
X0011130Y0148863D02*
X0007060Y0148863D01*
X0007060Y0150462D02*
X0011662Y0150462D01*
X0012195Y0152060D02*
X0007060Y0152060D01*
X0007060Y0153659D02*
X0012959Y0153659D01*
X0014872Y0156856D02*
X0007060Y0156856D01*
X0007060Y0158454D02*
X0013470Y0158454D01*
X0012807Y0160053D02*
X0007060Y0160053D01*
X0007060Y0161651D02*
X0012450Y0161651D01*
X0012450Y0163250D02*
X0007060Y0163250D01*
X0007060Y0164848D02*
X0012824Y0164848D01*
X0013487Y0166447D02*
X0007060Y0166447D01*
X0007060Y0168045D02*
X0014913Y0168045D01*
X0017589Y0169644D02*
X0007060Y0169644D01*
X0007060Y0171242D02*
X0031460Y0171242D01*
X0030840Y0172841D02*
X0007060Y0172841D01*
X0007060Y0174439D02*
X0030840Y0174439D01*
X0031451Y0176038D02*
X0007060Y0176038D01*
X0007060Y0177636D02*
X0031421Y0177636D01*
X0030840Y0179235D02*
X0007060Y0179235D01*
X0007060Y0180833D02*
X0030840Y0180833D01*
X0031491Y0182432D02*
X0007060Y0182432D01*
X0007060Y0184030D02*
X0017410Y0184030D01*
X0014839Y0185629D02*
X0007060Y0185629D01*
X0007060Y0187227D02*
X0013456Y0187227D01*
X0012794Y0188826D02*
X0007060Y0188826D01*
X0007060Y0190424D02*
X0012450Y0190424D01*
X0012450Y0192023D02*
X0007060Y0192023D01*
X0007060Y0193621D02*
X0012838Y0193621D01*
X0013500Y0195220D02*
X0007060Y0195220D01*
X0022710Y0184030D02*
X0033311Y0184030D01*
X0036235Y0185629D02*
X0025281Y0185629D01*
X0026664Y0187227D02*
X0038150Y0187227D01*
X0026620Y0195220D02*
X0142257Y0195220D01*
X0145060Y0195220D02*
X0145060Y0195220D01*
X0145060Y0193621D02*
X0145060Y0193621D01*
X0145060Y0192023D02*
X0145060Y0192023D01*
X0145060Y0190424D02*
X0145060Y0190424D01*
X0145060Y0188826D02*
X0145060Y0188826D01*
X0142383Y0185629D02*
X0127737Y0185629D01*
X0127402Y0177636D02*
X0142718Y0177636D01*
X0142792Y0176038D02*
X0125309Y0176038D01*
X0124510Y0174439D02*
X0141194Y0174439D01*
X0140460Y0172841D02*
X0123711Y0172841D01*
X0122912Y0171242D02*
X0140460Y0171242D01*
X0140711Y0169644D02*
X0122112Y0169644D01*
X0112718Y0177636D02*
X0099460Y0177636D01*
X0098848Y0179235D02*
X0111120Y0179235D01*
X0103164Y0190424D02*
X0097941Y0190424D01*
X0092797Y0172841D02*
X0051125Y0172841D01*
X0048223Y0168045D02*
X0043762Y0168045D01*
X0044432Y0169644D02*
X0045825Y0169644D01*
X0041818Y0166447D02*
X0050621Y0166447D01*
X0055139Y0166800D02*
X0095060Y0166800D01*
X0092556Y0169644D02*
X0055921Y0169644D01*
X0040139Y0169644D02*
X0040139Y0169644D01*
X0040139Y0168045D02*
X0040139Y0168045D01*
X0040139Y0166447D02*
X0040139Y0166447D01*
X0038459Y0166447D02*
X0026633Y0166447D01*
X0025207Y0168045D02*
X0036515Y0168045D01*
X0033133Y0169644D02*
X0022531Y0169644D01*
X0032088Y0160053D02*
X0078205Y0160053D01*
X0102935Y0139272D02*
X0108528Y0139272D01*
X0115060Y0131800D02*
X0190060Y0131800D01*
X0190060Y0121800D02*
X0115060Y0121800D01*
X0120857Y0118491D02*
X0189875Y0118491D01*
X0191514Y0115294D02*
X0120671Y0115294D01*
X0121854Y0113696D02*
X0192176Y0113696D01*
X0193702Y0112097D02*
X0122260Y0112097D01*
X0122100Y0110499D02*
X0192698Y0110499D01*
X0191760Y0108900D02*
X0121266Y0108900D01*
X0118821Y0107302D02*
X0191360Y0107302D01*
X0191360Y0105703D02*
X0120257Y0105703D01*
X0121684Y0104105D02*
X0192007Y0104105D01*
X0193293Y0102506D02*
X0122260Y0102506D01*
X0122260Y0100908D02*
X0193107Y0100908D01*
X0191930Y0099309D02*
X0121607Y0099309D01*
X0120167Y0065740D02*
X0191659Y0065740D01*
X0192242Y0064142D02*
X0163065Y0064142D01*
X0163841Y0062543D02*
X0193561Y0062543D01*
X0196860Y0062543D02*
X0197260Y0062543D01*
X0197260Y0064142D02*
X0196860Y0064142D01*
X0196860Y0065740D02*
X0197260Y0065740D01*
X0199910Y0060945D02*
X0163798Y0060945D01*
X0162954Y0059346D02*
X0199910Y0059346D01*
X0199910Y0057748D02*
X0119898Y0057748D01*
X0119180Y0056149D02*
X0199910Y0056149D01*
X0199910Y0054551D02*
X0172656Y0054551D01*
X0173675Y0052952D02*
X0199910Y0052952D01*
X0199910Y0051354D02*
X0173841Y0051354D01*
X0173306Y0049755D02*
X0199910Y0049755D01*
X0199910Y0048157D02*
X0171145Y0048157D01*
X0168975Y0048157D02*
X0120522Y0048157D01*
X0121006Y0044960D02*
X0177873Y0044960D01*
X0180060Y0041800D02*
X0115060Y0041800D01*
X0110720Y0037600D02*
X0129260Y0037600D01*
X0130060Y0036800D01*
X0133560Y0035369D02*
X0188795Y0035369D01*
X0191325Y0035369D02*
X0199910Y0035369D01*
X0199910Y0036967D02*
X0133841Y0036967D01*
X0133421Y0038566D02*
X0177988Y0038566D01*
X0182132Y0038566D02*
X0199910Y0038566D01*
X0199910Y0040164D02*
X0183475Y0040164D01*
X0183841Y0041763D02*
X0199910Y0041763D01*
X0199910Y0043361D02*
X0183506Y0043361D01*
X0182247Y0044960D02*
X0199910Y0044960D01*
X0199910Y0046558D02*
X0064460Y0046558D01*
X0064442Y0044960D02*
X0079114Y0044960D01*
X0078128Y0043361D02*
X0062844Y0043361D01*
X0060060Y0043361D02*
X0060060Y0043361D01*
X0060060Y0042400D02*
X0058237Y0042400D01*
X0055660Y0044977D01*
X0055660Y0046800D01*
X0060060Y0046800D01*
X0060060Y0042400D01*
X0057664Y0041763D02*
X0070597Y0041763D01*
X0075173Y0036967D02*
X0107393Y0036967D01*
X0108992Y0035369D02*
X0101325Y0035369D01*
X0098795Y0035369D02*
X0090597Y0035369D01*
X0090931Y0038566D02*
X0105795Y0038566D01*
X0106520Y0041800D02*
X0110720Y0037600D01*
X0108297Y0033770D02*
X0103337Y0033770D01*
X0103841Y0032172D02*
X0107860Y0032172D01*
X0107989Y0030573D02*
X0103644Y0030573D01*
X0102582Y0028975D02*
X0108780Y0028975D01*
X0111120Y0027376D02*
X0089000Y0027376D01*
X0091340Y0028975D02*
X0097538Y0028975D01*
X0100060Y0031800D02*
X0085060Y0031800D01*
X0083668Y0025778D02*
X0199910Y0025778D01*
X0199910Y0027376D02*
X0119000Y0027376D01*
X0121340Y0028975D02*
X0187538Y0028975D01*
X0190060Y0031800D02*
X0115060Y0031800D01*
X0113155Y0021400D02*
X0110460Y0018705D01*
X0110460Y0014895D01*
X0113155Y0012200D01*
X0116965Y0012200D01*
X0118765Y0014000D01*
X0141355Y0014000D01*
X0143155Y0012200D01*
X0146965Y0012200D01*
X0149660Y0014895D01*
X0149660Y0018705D01*
X0146965Y0021400D01*
X0143155Y0021400D01*
X0141355Y0019600D01*
X0118765Y0019600D01*
X0116965Y0021400D01*
X0113155Y0021400D01*
X0112737Y0020982D02*
X0107383Y0020982D01*
X0106965Y0021400D02*
X0103155Y0021400D01*
X0100460Y0018705D01*
X0100460Y0014895D01*
X0103155Y0012200D01*
X0106965Y0012200D01*
X0109660Y0014895D01*
X0109660Y0018705D01*
X0106965Y0021400D01*
X0108982Y0019384D02*
X0111138Y0019384D01*
X0110460Y0017785D02*
X0109660Y0017785D01*
X0109660Y0016187D02*
X0110460Y0016187D01*
X0110767Y0014588D02*
X0109353Y0014588D01*
X0107755Y0012990D02*
X0112365Y0012990D01*
X0115060Y0016800D02*
X0145060Y0016800D01*
X0149660Y0016187D02*
X0180660Y0016187D01*
X0180660Y0016800D02*
X0180660Y0014977D01*
X0183237Y0012400D01*
X0185060Y0012400D01*
X0186883Y0012400D01*
X0189460Y0014977D01*
X0189460Y0016800D01*
X0189460Y0018623D01*
X0186883Y0021200D01*
X0185060Y0021200D01*
X0185060Y0016800D01*
X0189460Y0016800D01*
X0185060Y0016800D01*
X0185060Y0016800D01*
X0185060Y0016800D01*
X0185060Y0012400D01*
X0185060Y0016800D01*
X0185060Y0016800D01*
X0185060Y0016800D01*
X0180660Y0016800D01*
X0180660Y0018623D01*
X0183237Y0021200D01*
X0185060Y0021200D01*
X0185060Y0016800D01*
X0180660Y0016800D01*
X0180660Y0017785D02*
X0149660Y0017785D01*
X0148982Y0019384D02*
X0181421Y0019384D01*
X0183020Y0020982D02*
X0147383Y0020982D01*
X0142737Y0020982D02*
X0117383Y0020982D01*
X0117755Y0012990D02*
X0142365Y0012990D01*
X0147755Y0012990D02*
X0182648Y0012990D01*
X0181049Y0014588D02*
X0149353Y0014588D01*
X0185060Y0014588D02*
X0185060Y0014588D01*
X0185060Y0012990D02*
X0185060Y0012990D01*
X0187472Y0012990D02*
X0199910Y0012990D01*
X0199910Y0014588D02*
X0189071Y0014588D01*
X0189460Y0016187D02*
X0199910Y0016187D01*
X0199910Y0017785D02*
X0189460Y0017785D01*
X0188699Y0019384D02*
X0199910Y0019384D01*
X0199910Y0020982D02*
X0187100Y0020982D01*
X0185060Y0020982D02*
X0185060Y0020982D01*
X0185060Y0019384D02*
X0185060Y0019384D01*
X0185060Y0017785D02*
X0185060Y0017785D01*
X0185060Y0016187D02*
X0185060Y0016187D01*
X0192582Y0028975D02*
X0199910Y0028975D01*
X0199910Y0030573D02*
X0193644Y0030573D01*
X0193841Y0032172D02*
X0199910Y0032172D01*
X0199910Y0033770D02*
X0193337Y0033770D01*
X0199910Y0024179D02*
X0082786Y0024179D01*
X0083926Y0022500D02*
X0081831Y0021632D01*
X0080228Y0020029D01*
X0079360Y0017934D01*
X0079360Y0015666D01*
X0080228Y0013571D01*
X0081831Y0011968D01*
X0083926Y0011100D01*
X0086194Y0011100D01*
X0088289Y0011968D01*
X0089892Y0013571D01*
X0090760Y0015666D01*
X0090760Y0017934D01*
X0089892Y0020029D01*
X0088289Y0021632D01*
X0086194Y0022500D01*
X0083926Y0022500D01*
X0081181Y0020982D02*
X0068656Y0020982D01*
X0068643Y0020995D02*
X0067943Y0021504D01*
X0067171Y0021897D01*
X0066348Y0022165D01*
X0065493Y0022300D01*
X0065260Y0022300D01*
X0065260Y0017000D01*
X0070560Y0017000D01*
X0070560Y0017233D01*
X0070425Y0018088D01*
X0070157Y0018911D01*
X0069764Y0019683D01*
X0069255Y0020383D01*
X0068643Y0020995D01*
X0069916Y0019384D02*
X0079961Y0019384D01*
X0079360Y0017785D02*
X0070473Y0017785D01*
X0070560Y0016600D02*
X0065260Y0016600D01*
X0065260Y0017000D01*
X0064860Y0017000D01*
X0064860Y0022300D01*
X0064627Y0022300D01*
X0063772Y0022165D01*
X0062949Y0021897D01*
X0062177Y0021504D01*
X0061477Y0020995D01*
X0060865Y0020383D01*
X0060356Y0019683D01*
X0059963Y0018911D01*
X0059695Y0018088D01*
X0059560Y0017233D01*
X0059560Y0017000D01*
X0064860Y0017000D01*
X0064860Y0016600D01*
X0065260Y0016600D01*
X0065260Y0011300D01*
X0065493Y0011300D01*
X0066348Y0011435D01*
X0067171Y0011703D01*
X0067943Y0012096D01*
X0068643Y0012605D01*
X0069255Y0013217D01*
X0069764Y0013917D01*
X0070157Y0014689D01*
X0070425Y0015512D01*
X0070560Y0016367D01*
X0070560Y0016600D01*
X0070531Y0016187D02*
X0079360Y0016187D01*
X0079807Y0014588D02*
X0070106Y0014588D01*
X0069028Y0012990D02*
X0080809Y0012990D01*
X0083223Y0011391D02*
X0066068Y0011391D01*
X0065260Y0011391D02*
X0064860Y0011391D01*
X0064860Y0011300D02*
X0064860Y0016600D01*
X0059560Y0016600D01*
X0059560Y0016367D01*
X0059695Y0015512D01*
X0059963Y0014689D01*
X0060356Y0013917D01*
X0060865Y0013217D01*
X0061477Y0012605D01*
X0062177Y0012096D01*
X0062949Y0011703D01*
X0063772Y0011435D01*
X0064627Y0011300D01*
X0064860Y0011300D01*
X0064052Y0011391D02*
X0051068Y0011391D01*
X0051348Y0011435D02*
X0052171Y0011703D01*
X0052943Y0012096D01*
X0053643Y0012605D01*
X0054255Y0013217D01*
X0054764Y0013917D01*
X0055157Y0014689D01*
X0055425Y0015512D01*
X0055560Y0016367D01*
X0055560Y0016600D01*
X0050260Y0016600D01*
X0050260Y0017000D01*
X0055560Y0017000D01*
X0055560Y0017233D01*
X0055425Y0018088D01*
X0055157Y0018911D01*
X0054764Y0019683D01*
X0054255Y0020383D01*
X0053643Y0020995D01*
X0052943Y0021504D01*
X0052171Y0021897D01*
X0051348Y0022165D01*
X0050493Y0022300D01*
X0050260Y0022300D01*
X0050260Y0017000D01*
X0049860Y0017000D01*
X0049860Y0022300D01*
X0049627Y0022300D01*
X0048772Y0022165D01*
X0047949Y0021897D01*
X0047177Y0021504D01*
X0046477Y0020995D01*
X0045865Y0020383D01*
X0045356Y0019683D01*
X0044963Y0018911D01*
X0044695Y0018088D01*
X0044560Y0017233D01*
X0044560Y0017000D01*
X0049860Y0017000D01*
X0049860Y0016600D01*
X0050260Y0016600D01*
X0050260Y0011300D01*
X0050493Y0011300D01*
X0051348Y0011435D01*
X0050260Y0011391D02*
X0049860Y0011391D01*
X0049860Y0011300D02*
X0049860Y0016600D01*
X0044560Y0016600D01*
X0044560Y0016367D01*
X0044695Y0015512D01*
X0044963Y0014689D01*
X0045356Y0013917D01*
X0045865Y0013217D01*
X0046477Y0012605D01*
X0047177Y0012096D01*
X0047949Y0011703D01*
X0048772Y0011435D01*
X0049627Y0011300D01*
X0049860Y0011300D01*
X0049052Y0011391D02*
X0031896Y0011391D01*
X0031194Y0011100D02*
X0033289Y0011968D01*
X0034892Y0013571D01*
X0035760Y0015666D01*
X0035760Y0017934D01*
X0034892Y0020029D01*
X0033289Y0021632D01*
X0031194Y0022500D01*
X0028926Y0022500D01*
X0026831Y0021632D01*
X0025228Y0020029D01*
X0024360Y0017934D01*
X0024360Y0015666D01*
X0025228Y0013571D01*
X0026831Y0011968D01*
X0028926Y0011100D01*
X0031194Y0011100D01*
X0028223Y0011391D02*
X0011896Y0011391D01*
X0014311Y0012990D02*
X0025809Y0012990D01*
X0024807Y0014588D02*
X0015313Y0014588D01*
X0015760Y0016187D02*
X0024360Y0016187D01*
X0024360Y0017785D02*
X0015760Y0017785D01*
X0016603Y0019384D02*
X0024961Y0019384D01*
X0026181Y0020982D02*
X0018202Y0020982D01*
X0019800Y0022581D02*
X0199910Y0022581D01*
X0199910Y0011391D02*
X0086896Y0011391D01*
X0089311Y0012990D02*
X0102365Y0012990D01*
X0100767Y0014588D02*
X0090313Y0014588D01*
X0090760Y0016187D02*
X0100460Y0016187D01*
X0100460Y0017785D02*
X0090760Y0017785D01*
X0090159Y0019384D02*
X0101138Y0019384D01*
X0102737Y0020982D02*
X0088939Y0020982D01*
X0079955Y0026695D02*
X0075060Y0026800D01*
X0020060Y0026800D01*
X0010060Y0016800D01*
X0008223Y0011391D02*
X0007060Y0011391D01*
X0007060Y0009793D02*
X0199910Y0009793D01*
X0199910Y0008194D02*
X0007060Y0008194D01*
X0007060Y0006596D02*
X0199910Y0006596D01*
X0199910Y0004997D02*
X0007060Y0004997D01*
X0010060Y0026800D02*
X0020060Y0031800D01*
X0015060Y0031800D01*
X0015112Y0034600D02*
X0015157Y0034689D01*
X0015425Y0035512D01*
X0015560Y0036367D01*
X0015560Y0036600D01*
X0010260Y0036600D01*
X0010260Y0037000D01*
X0015560Y0037000D01*
X0015560Y0037233D01*
X0015425Y0038088D01*
X0015157Y0038911D01*
X0015117Y0038989D01*
X0015417Y0038968D01*
X0015514Y0039000D01*
X0015617Y0039000D01*
X0016040Y0039175D01*
X0027395Y0042960D01*
X0028155Y0042200D01*
X0031965Y0042200D01*
X0033765Y0044000D01*
X0041355Y0044000D01*
X0043155Y0042200D01*
X0046912Y0042200D01*
X0055460Y0036501D01*
X0055460Y0034895D01*
X0055755Y0034600D01*
X0020514Y0034600D01*
X0020417Y0034632D01*
X0019961Y0034600D01*
X0015112Y0034600D01*
X0015378Y0035369D02*
X0055460Y0035369D01*
X0054761Y0036967D02*
X0010260Y0036967D01*
X0010060Y0036800D02*
X0045060Y0036800D01*
X0047568Y0041763D02*
X0023803Y0041763D01*
X0019007Y0040164D02*
X0049966Y0040164D01*
X0052364Y0038566D02*
X0015269Y0038566D01*
X0015060Y0041800D02*
X0010060Y0046800D01*
X0015060Y0041800D02*
X0030060Y0046800D01*
X0045060Y0046800D01*
X0060060Y0036800D01*
X0085060Y0041800D01*
X0106520Y0041800D01*
X0109114Y0044960D02*
X0091006Y0044960D01*
X0090522Y0048157D02*
X0103975Y0048157D01*
X0106145Y0048157D02*
X0109598Y0048157D01*
X0108328Y0049755D02*
X0108306Y0049755D01*
X0115060Y0051800D02*
X0170060Y0051800D01*
X0079598Y0048157D02*
X0064460Y0048157D01*
X0066035Y0049755D02*
X0074085Y0049755D01*
X0072486Y0051354D02*
X0067634Y0051354D01*
X0069232Y0052952D02*
X0070888Y0052952D01*
X0060060Y0046558D02*
X0060060Y0046558D01*
X0060060Y0044960D02*
X0060060Y0044960D01*
X0057276Y0043361D02*
X0055266Y0043361D01*
X0055678Y0044960D02*
X0052868Y0044960D01*
X0050470Y0046558D02*
X0055660Y0046558D01*
X0055660Y0048157D02*
X0049660Y0048157D01*
X0041993Y0043361D02*
X0033127Y0043361D01*
X0025060Y0056800D02*
X0010060Y0056800D01*
X0013976Y0060945D02*
X0022260Y0060945D01*
X0022260Y0062543D02*
X0013558Y0062543D01*
X0014878Y0064142D02*
X0022260Y0064142D01*
X0022260Y0065740D02*
X0015461Y0065740D01*
X0015543Y0067339D02*
X0022260Y0067339D01*
X0022260Y0068937D02*
X0015144Y0068937D01*
X0014102Y0070536D02*
X0022260Y0070536D01*
X0022260Y0072134D02*
X0013456Y0072134D01*
X0014959Y0073733D02*
X0022260Y0073733D01*
X0022260Y0075332D02*
X0015621Y0075332D01*
X0015160Y0074688D02*
X0015160Y0086900D01*
X0020060Y0091800D01*
X0040060Y0091800D01*
X0042260Y0092915D02*
X0014236Y0092915D01*
X0013604Y0091317D02*
X0028071Y0091317D01*
X0026473Y0089718D02*
X0015021Y0089718D01*
X0015683Y0088120D02*
X0025460Y0088120D01*
X0025460Y0086521D02*
X0015760Y0086521D01*
X0015452Y0084923D02*
X0024223Y0084923D01*
X0022661Y0083324D02*
X0014645Y0083324D01*
X0013063Y0081726D02*
X0022260Y0081726D01*
X0022260Y0080127D02*
X0014794Y0080127D01*
X0015514Y0078529D02*
X0022260Y0078529D01*
X0022260Y0076930D02*
X0015760Y0076930D01*
X0015160Y0074688D02*
X0010060Y0069588D01*
X0010060Y0066800D01*
X0010260Y0067000D02*
X0010260Y0071100D01*
X0009860Y0071100D01*
X0009860Y0067000D01*
X0010260Y0067000D01*
X0010260Y0067339D02*
X0009860Y0067339D01*
X0009860Y0068937D02*
X0010260Y0068937D01*
X0010260Y0070536D02*
X0009860Y0070536D01*
X0010060Y0096800D02*
X0045060Y0096800D01*
X0017490Y0155257D02*
X0007060Y0155257D01*
X0052714Y0190424D02*
X0054341Y0190424D01*
X0060031Y0190424D02*
X0062215Y0190424D01*
X0067181Y0035369D02*
X0068795Y0035369D01*
X0071325Y0035369D02*
X0079523Y0035369D01*
X0078297Y0033770D02*
X0073337Y0033770D01*
X0073841Y0032172D02*
X0077860Y0032172D01*
X0077989Y0030573D02*
X0073644Y0030573D01*
X0070060Y0031800D02*
X0020060Y0031800D01*
X0033939Y0020982D02*
X0046464Y0020982D01*
X0045204Y0019384D02*
X0035159Y0019384D01*
X0035760Y0017785D02*
X0044647Y0017785D01*
X0044589Y0016187D02*
X0035760Y0016187D01*
X0035313Y0014588D02*
X0045014Y0014588D01*
X0046092Y0012990D02*
X0034311Y0012990D01*
X0049860Y0012990D02*
X0050260Y0012990D01*
X0050260Y0014588D02*
X0049860Y0014588D01*
X0049860Y0016187D02*
X0050260Y0016187D01*
X0050260Y0017785D02*
X0049860Y0017785D01*
X0049860Y0019384D02*
X0050260Y0019384D01*
X0050260Y0020982D02*
X0049860Y0020982D01*
X0053656Y0020982D02*
X0061464Y0020982D01*
X0060204Y0019384D02*
X0054916Y0019384D01*
X0055473Y0017785D02*
X0059647Y0017785D01*
X0059589Y0016187D02*
X0055531Y0016187D01*
X0055106Y0014588D02*
X0060014Y0014588D01*
X0061092Y0012990D02*
X0054028Y0012990D01*
X0064860Y0012990D02*
X0065260Y0012990D01*
X0065260Y0014588D02*
X0064860Y0014588D01*
X0064860Y0016187D02*
X0065260Y0016187D01*
X0065260Y0017785D02*
X0064860Y0017785D01*
X0064860Y0019384D02*
X0065260Y0019384D01*
X0065260Y0020982D02*
X0064860Y0020982D01*
D19*
X0070060Y0031800D03*
X0079955Y0026695D03*
X0100060Y0031800D03*
X0105060Y0051800D03*
X0130060Y0036800D03*
X0160060Y0061800D03*
X0170060Y0051800D03*
X0180060Y0041800D03*
X0190060Y0031800D03*
X0155060Y0076800D03*
X0095060Y0101800D03*
X0060060Y0096800D03*
X0040060Y0091800D03*
X0025060Y0056800D03*
X0020060Y0051800D03*
X0045060Y0036800D03*
X0040060Y0136800D03*
X0030060Y0156800D03*
X0055132Y0171872D03*
X0095060Y0166800D03*
X0100060Y0136800D03*
M02*
