%
M48
M72
T01C0.02362
T02C0.03150
T03C0.03200
T04C0.03937
T05C0.04000
T06C0.07480
%
T01
X45060Y36800
X25060Y56800
X20060Y51800
X40060Y91800
X60060Y96800
X95060Y101800
X100060Y136800
X95060Y166800
X55132Y171872
X30060Y156800
X40060Y136800
X105060Y51800
X100060Y31800
X79955Y26695
X70060Y31800
X130060Y36800
X160060Y61800
X170060Y51800
X180060Y41800
X190060Y31800
X155060Y76800
T02
X40139Y170501
X35414Y173650
X40139Y176800
X35414Y179950
X40139Y183099
X57186Y186800
X65060Y186800
X72934Y186800
T03
X85060Y161800
X85060Y151800
X85060Y141800
X85060Y131800
X85060Y121800
X85060Y111800
X85060Y101800
X85060Y91800
X85060Y81800
X85060Y71800
X85060Y61800
X85060Y51800
X85060Y41800
X85060Y31800
X105060Y16800
X115060Y16800
X115060Y31800
X115060Y41800
X115060Y51800
X115060Y61800
X115060Y71800
X115060Y81800
X125060Y81800
X115060Y91800
X115060Y101800
X115060Y111800
X115060Y121800
X115060Y131800
X115060Y141800
X115060Y151800
X115060Y161800
X115060Y181800
X120060Y189300
X125060Y181800
X145060Y181800
X145060Y171800
X145060Y161800
X155060Y151800
X170060Y166800
X170060Y186800
X185060Y186800
X195060Y186800
X195060Y151800
X145060Y191800
X95060Y186800
X95060Y176800
X45060Y86800
X30060Y86800
X30060Y46800
X45060Y46800
X60060Y46800
X60060Y36800
X145060Y16800
X185060Y16800
X145060Y81800
T04
X49312Y186800
X80808Y186800
T05
X10060Y136800
X10060Y126800
X10060Y116800
X10060Y106800
X10060Y96800
X10060Y86800
X10060Y76800
X10060Y66800
X10060Y56800
X10060Y46800
X10060Y36800
X10060Y26800
X10060Y16800
X30060Y16800
X50060Y16800
X65060Y16800
X85060Y16800
X70060Y66800
X70060Y76800
X70060Y86800
X197060Y86800
X197060Y76800
X197060Y66800
X197060Y96800
X197060Y106800
X197060Y116800
X197060Y126800
X197060Y136800
T06
X20060Y191170
X20060Y162430
M30
