G75*
%MOIN*%
%OFA0B0*%
%FSLAX25Y25*%
%IPPOS*%
%LPD*%
%AMOC8*
5,1,8,0,0,1.08239X$1,22.5*
%
%ADD10C,0.00000*%
%ADD11C,0.07800*%
%ADD12OC8,0.05600*%
%ADD13C,0.05600*%
%ADD14C,0.05550*%
%ADD15C,0.11620*%
%ADD16C,0.05600*%
%ADD17C,0.06337*%
D10*
X0005060Y0001800D02*
X0005060Y0198650D01*
X0201910Y0198650D01*
X0201910Y0001800D01*
X0005060Y0001800D01*
D11*
X0010060Y0016800D03*
X0010060Y0026800D03*
X0010060Y0036800D03*
X0010060Y0046800D03*
X0010060Y0056800D03*
X0010060Y0066800D03*
X0010060Y0076800D03*
X0010060Y0086800D03*
X0010060Y0096800D03*
X0010060Y0106800D03*
X0010060Y0116800D03*
X0010060Y0126800D03*
X0010060Y0136800D03*
X0070060Y0086800D03*
X0070060Y0076800D03*
X0070060Y0066800D03*
X0065060Y0016800D03*
X0050060Y0016800D03*
X0030060Y0016800D03*
X0085060Y0016800D03*
X0197060Y0066800D03*
X0197060Y0076800D03*
X0197060Y0086800D03*
X0197060Y0096800D03*
X0197060Y0106800D03*
X0197060Y0116800D03*
X0197060Y0126800D03*
X0197060Y0136800D03*
D12*
X0195060Y0151800D03*
X0170060Y0166800D03*
X0155060Y0151800D03*
X0145060Y0161800D03*
X0145060Y0171800D03*
X0145060Y0181800D03*
X0145060Y0191800D03*
X0125060Y0181800D03*
X0120060Y0189300D03*
X0115060Y0181800D03*
X0095060Y0176800D03*
X0095060Y0186800D03*
X0185060Y0186800D03*
X0195060Y0186800D03*
X0145060Y0081800D03*
X0145060Y0016800D03*
X0115060Y0016800D03*
X0105060Y0016800D03*
X0060060Y0036800D03*
X0060060Y0046800D03*
X0045060Y0046800D03*
X0030060Y0046800D03*
X0030060Y0086800D03*
X0045060Y0086800D03*
X0185060Y0016800D03*
D13*
X0125060Y0081800D03*
X0170060Y0186800D03*
D14*
X0072934Y0186800D03*
X0065060Y0186800D03*
X0057186Y0186800D03*
X0040139Y0183099D03*
X0035414Y0179950D03*
X0040139Y0176800D03*
X0035414Y0173650D03*
X0040139Y0170501D03*
D15*
X0020060Y0162430D03*
X0020060Y0191170D03*
D16*
X0082460Y0161800D02*
X0087660Y0161800D01*
X0087660Y0151800D02*
X0082460Y0151800D01*
X0082460Y0141800D02*
X0087660Y0141800D01*
X0087660Y0131800D02*
X0082460Y0131800D01*
X0082460Y0121800D02*
X0087660Y0121800D01*
X0087660Y0111800D02*
X0082460Y0111800D01*
X0082460Y0101800D02*
X0087660Y0101800D01*
X0087660Y0091800D02*
X0082460Y0091800D01*
X0082460Y0081800D02*
X0087660Y0081800D01*
X0087660Y0071800D02*
X0082460Y0071800D01*
X0082460Y0061800D02*
X0087660Y0061800D01*
X0087660Y0051800D02*
X0082460Y0051800D01*
X0082460Y0041800D02*
X0087660Y0041800D01*
X0087660Y0031800D02*
X0082460Y0031800D01*
X0112460Y0031800D02*
X0117660Y0031800D01*
X0117660Y0041800D02*
X0112460Y0041800D01*
X0112460Y0051800D02*
X0117660Y0051800D01*
X0117660Y0061800D02*
X0112460Y0061800D01*
X0112460Y0071800D02*
X0117660Y0071800D01*
X0117660Y0081800D02*
X0112460Y0081800D01*
X0112460Y0091800D02*
X0117660Y0091800D01*
X0117660Y0101800D02*
X0112460Y0101800D01*
X0112460Y0111800D02*
X0117660Y0111800D01*
X0117660Y0121800D02*
X0112460Y0121800D01*
X0112460Y0131800D02*
X0117660Y0131800D01*
X0117660Y0141800D02*
X0112460Y0141800D01*
X0112460Y0151800D02*
X0117660Y0151800D01*
X0117660Y0161800D02*
X0112460Y0161800D01*
D17*
X0080808Y0186800D03*
X0049312Y0186800D03*
M02*
